SplineFontDB: 3.0
FontName: AmalgamR
FullName: AmalgamR Regular
FamilyName: AmalgamR
Weight: Regular
Copyright: PWEI FAN CREATIONS
Version: 1.0.0
ItalicAngle: 0
UnderlinePosition: -175
UnderlineWidth: 150
Ascent: 800
Descent: 200
LayerCount: 2
Layer: 0 1 "Back"  1
Layer: 1 1 "Fore"  0
XUID: [1021 908 1664711296 14690074]
UniqueID: 4162816
FSType: 0
OS2Version: 0
OS2_WeightWidthSlopeOnly: 0
OS2_UseTypoMetrics: 0
CreationTime: 1190266529
ModificationTime: 1341705214
PfmFamily: 33
TTFWeight: 500
TTFWidth: 5
LineGap: 0
VLineGap: 50
Panose: 2 11 6 0 0 0 1 3 2 0
OS2TypoAscent: 800
OS2TypoAOffset: 0
OS2TypoDescent: -200
OS2TypoDOffset: 0
OS2TypoLinegap: 0
OS2WinAscent: 800
OS2WinAOffset: 0
OS2WinDescent: 200
OS2WinDOffset: 0
HheadAscent: 800
HheadAOffset: 0
HheadDescent: -200
HheadDOffset: 0
OS2SubXSize: 650
OS2SubYSize: 600
OS2SubXOff: 0
OS2SubYOff: 75
OS2SupXSize: 650
OS2SupYSize: 600
OS2SupXOff: 0
OS2SupYOff: 350
OS2StrikeYSize: 150
OS2StrikeYPos: 480
OS2FamilyClass: 2063
OS2Vendor: 'UKWN'
OS2CodePages: c0000001.80000000
OS2UnicodeRanges: 00000043.00000000.00000000.00000000
MarkAttachClasses: 1
DEI: 91125
LangName: 1033 "" "" "" "" "" "" "" "Copyright/Tradmark, origination nor any affiliation is claimed and inherited by obtaining this software which is an elaboration modeled after marketed product hence acrediting Design Republic and partners commercial ownership and/or licensing rite." "" "CDC/Altered Ego; TFW/tfoOo" "" "" "" "" "" "" "" "" "AmalgamR" 
GaspTable: 9 0 1 5 0 8 1 9 3 10 3 12 3 17 2 36 2 65535 3 0
Encoding: UnicodeBmp
UnicodeInterp: none
NameList: Adobe Glyph List
DisplaySize: -36
AntiAlias: 1
FitToEm: 0
WinInfo: 0 20 9
BeginPrivate: 8
BlueValues 13 [0 0 800 800]
BlueScale 8 0.039625
BlueFuzz 1 1
StdHW 5 [200]
StdVW 5 [200]
StemSnapH 5 [200]
StemSnapV 5 [200]
ExpansionFactor 4 0.06
EndPrivate
TeXData: 1 0 0 629146 419430 209715 838861 838861 0 783286 444596 497025 792723 393216 433062 380633 303038 157286 324010 404750 52429 2506097 1059062 262144

StartChar: .notdef
Encoding: 65536 -1 0
Width: 500
Flags: MW
HStem: 0 50<100 400 100 450> 483 50<100 400 100 100>
VStem: 50 50<50 50 50 483> 400 50<50 483 483 483>
LayerCount: 2
Fore
SplineSet
50 0 m 1,0,-1
 50 533 l 1,1,-1
 450 533 l 1,2,-1
 450 0 l 1,3,-1
 50 0 l 1,0,-1
100 50 m 1,4,-1
 400 50 l 1,5,-1
 400 483 l 1,6,-1
 100 483 l 1,7,-1
 100 50 l 1,4,-1
EndSplineSet
EndChar

StartChar: exclam
Encoding: 33 33 2
Width: 300
Flags: MW
HStem: 780 20G<50 250 250 250>
VStem: 50 200<86.335 113.665 250 800>
LayerCount: 2
Fore
SplineSet
250 250 m 1,0,-1
 50 250 l 1,1,-1
 50 800 l 1,2,-1
 250 800 l 1,3,-1
 250 250 l 1,0,-1
220.5 170.5 m 128,-1,5
 250.005 140.995 250.005 140.995 250 100 c 128,-1,6
 250 59.0048 250 59.0048 220.5 29.5 c 128,-1,7
 190.995 -0.004879 190.995 -0.004879 150 0 c 128,-1,8
 109.005 0 109.005 0 79.5 29.5 c 128,-1,9
 49.9952 59.0048 49.9952 59.0048 50 100 c 128,-1,10
 50 140.995 50 140.995 79.5 170.5 c 128,-1,11
 109.005 200.005 109.005 200.005 150 200 c 128,-1,4
 190.995 200 190.995 200 220.5 170.5 c 128,-1,5
EndSplineSet
EndChar

StartChar: quotedbl
Encoding: 34 34 3
Width: 600
Flags: MW
HStem: 500 300<50 250 50 250 50 350 350 550>
VStem: 50 200<500 800> 350 200<500 800>
LayerCount: 2
Fore
SplineSet
250 500 m 1,0,-1
 50 500 l 1,1,-1
 50 800 l 1,2,-1
 250 800 l 1,3,-1
 250 500 l 1,0,-1
550 500 m 1,4,-1
 350 500 l 1,5,-1
 350 800 l 1,6,-1
 550 800 l 1,7,-1
 550 500 l 1,4,-1
EndSplineSet
EndChar

StartChar: numbersign
Encoding: 35 35 4
Width: 750
Flags: W
HStem: 383 125<106 133 315 342 523 550> 592 125<200 227 408 435 617 644> 780 20G<311.843 446 520.084 654>
LayerCount: 2
Fore
SplineSet
190 508 m 1,0,-1
 227 592 l 1,1,-1
 144 592 l 1,2,-1
 200 717 l 1,3,-1
 283 717 l 1,4,-1
 321 800 l 1,5,-1
 446 800 l 1,6,-1
 408 717 l 1,7,-1
 492 717 l 1,8,-1
 529 800 l 1,9,-1
 654 800 l 1,10,-1
 617 717 l 1,11,-1
 700 717 l 1,12,-1
 644 592 l 1,13,-1
 560 592 l 1,14,-1
 523 508 l 1,15,-1
 606 508 l 1,16,-1
 550 383 l 1,17,-1
 467 383 l 1,18,-1
 429 300 l 1,19,-1
 304 300 l 1,20,-1
 342 383 l 1,21,-1
 258 383 l 1,22,-1
 221 300 l 1,23,-1
 96 300 l 1,24,-1
 133 383 l 1,25,-1
 50 383 l 1,26,-1
 106 508 l 1,27,-1
 190 508 l 1,0,-1
352 592 m 1,28,-1
 315 508 l 1,29,-1
 398 508 l 1,30,-1
 435 592 l 1,31,-1
 352 592 l 1,28,-1
EndSplineSet
EndChar

StartChar: dollar
Encoding: 36 36 5
Width: 800
Flags: MW
HStem: 0 21G<350 450 350 350> 100 105<50 350 50 350 450 605 50 450> 353 105<146 350 194 350 194 450 450 605> 596 105<181 350 194 350 194 450 450 750> 780 20G<350 450 450 450>
VStem: 50 105<504 550 504 585> 350 100<0 100 0 100 205 353 458 596 701 800> 643 107<264.335 313.665>
LayerCount: 2
Fore
SplineSet
400 353 m 5,0,-1
 400 205 l 5,1,-1
 505 205 l 6,2,3
 542.995 205 542.995 205 543 294 c 4,4,5
 543 353 543 353 505 353 c 6,6,-1
 400 353 l 5,0,-1
300 596 m 5,7,-1
 194 596 l 2,8,9
 155 596 155 596 155 527 c 128,-1,10
 155 458 155 458 194 458 c 2,11,-1
 300 458 l 5,12,-1
 300 596 l 5,7,-1
400 701 m 5,13,-1
 650 701 l 5,14,-1
 650 596 l 5,15,-1
 400 596 l 5,16,-1
 400 458 l 5,17,-1
 505 458 l 6,18,19
 650.005 458 650.005 458 650 294 c 4,20,21
 650 100 650 100 505 100 c 6,22,-1
 400 100 l 5,23,-1
 400 0 l 5,24,-1
 300 0 l 5,25,-1
 300 100 l 5,26,-1
 50 100 l 1,27,-1
 50 205 l 1,28,-1
 300 205 l 5,29,-1
 300 353 l 5,30,-1
 194 353 l 2,31,32
 50 353 50 353 50 527 c 128,-1,33
 50 701 50 701 194 701 c 2,34,-1
 300 701 l 5,35,-1
 300 800 l 5,36,-1
 400 800 l 5,37,-1
 400 701 l 5,13,-1
EndSplineSet
EndChar

StartChar: percent
Encoding: 37 37 6
Width: 500
Flags: MW
HStem: 300 200<50 450>
LayerCount: 2
Fore
SplineSet
112.5 650 m 0,0,1
 112 612 112 612 150 612.5 c 0,2,3
 188 613 188 613 187.5 650 c 0,4,5
 188 688 188 688 150 687.5 c 0,6,7
 112 688 112 688 112.5 650 c 0,0,1
50 650 m 0,8,9
 50 750.01 50 750.01 150 750 c 0,10,11
 250.014 750 250.014 750 250 650 c 0,12,13
 249.998 550.074 249.998 550.074 150 550 c 0,14,15
 49.9883 550 49.9883 550 50 650 c 0,8,9
312.5 150 m 4,16,17
 312 112 312 112 350 112.5 c 4,18,19
 388 113 388 113 387.5 150 c 4,20,21
 388 188 388 188 350 187.5 c 4,22,23
 312 188 312 188 312.5 150 c 4,16,17
250 150 m 4,24,25
 250 250.01 250 250.01 350 250 c 4,26,27
 450.014 250 450.014 250 450 150 c 4,28,29
 449.998 50.0742 449.998 50.0742 350 50 c 4,30,31
 249.988 50 249.988 50 250 150 c 4,24,25
EndSplineSet
Refer: 14 45 N 1 0 0 1 0 0 2
EndChar

StartChar: ampersand
Encoding: 38 38 7
Width: 940
Flags: MW
HStem: 0 160<247.109 624.993> 200 160<414.727 642.8> 400 160<410 525.273 819.971 890> 640 160<414.307 525.273>
VStem: 50 160<196.602 369.613> 250 160<369.453 392.8 560 630.029> 530 160<567.349 632.651> 730 160<0 104.499>
LayerCount: 2
Fore
SplineSet
410 800 m 2,0,-1
 530 800 l 2,1,2
 690 800 690 800 690 600 c 130,-1,3
 690 400 690 400 530 400 c 2,4,-1
 410 400 l 1,5,6
 410 360 410 360 450 360 c 2,7,-1
 650 360 l 1,8,9
 650 560 650 560 850 560 c 2,10,-1
 890 560 l 1,11,-1
 890 400 l 1,12,-1
 850 400 l 2,13,14
 810 400 810 400 810 360 c 2,15,-1
 810 356 l 1,16,17
 890 337.6 890 337.6 890 160 c 2,18,-1
 890 0 l 1,19,-1
 730 0 l 1,20,-1
 730 80 l 2,21,22
 730 95.2002 730 95.2002 724.4 104.8 c 1,23,24
 699.6 0 699.6 0 570 0 c 2,25,-1
 290 0 l 2,26,27
 50 0 50 0 50 280 c 0,28,29
 50 556.8 50 556.8 250 556.8 c 1,30,-1
 250 600 l 2,31,32
 250 800 250 800 410 800 c 2,0,-1
450 640 m 2,33,34
 410 640 410 640 410 602.4 c 0,35,36
 410 601.6 410 601.6 410 600 c 2,37,-1
 410 560 l 1,38,-1
 490 560 l 2,39,40
 530 560 530 560 530 600 c 130,-1,41
 530 640 530 640 490 640 c 2,42,-1
 450 640 l 2,33,34
250 392.8 m 1,43,44
 210 376.8 210 376.8 210 280 c 0,45,46
 210 160 210 160 290 160 c 2,47,-1
 570 160 l 2,48,49
 626.8 160 626.8 160 642.8 200 c 1,50,-1
 410 200 l 2,51,52
 254.8 200 254.8 200 250 392.8 c 1,43,44
EndSplineSet
EndChar

StartChar: quoteright
Encoding: 8217 8217 8
Width: 300
Flags: W
LayerCount: 2
Fore
SplineSet
300 900 m 5,0,-1
 200 600 l 5,1,-1
 0 600 l 5,2,-1
 100 900 l 5,3,-1
 300 900 l 5,0,-1
EndSplineSet
EndChar

StartChar: parenleft
Encoding: 40 40 9
Width: 400
Flags: MW
HStem: 0 21G<250 350> 780 20G<250 350>
VStem: 50 200<331.335 464.665 331.335 533.335>
LayerCount: 2
Fore
SplineSet
350 0 m 1,0,1
 50 0 50 0 50 400 c 128,-1,2
 50 800.005 50 800.005 350 800 c 1,3,-1
 350 600 l 1,4,5
 249.995 600 249.995 600 250 397 c 0,6,7
 250 200.005 250 200.005 350 200 c 1,8,-1
 350 0 l 1,0,1
EndSplineSet
EndChar

StartChar: parenright
Encoding: 41 41 10
Width: 400
Flags: MW
HStem: 0 21G<50 150> 780 20G<50 150>
VStem: 150 200<335.335 468.665>
LayerCount: 2
Fore
SplineSet
50 800 m 1,0,1
 350 800 350 800 350 400 c 128,-1,2
 350 -0.00500488 350 -0.00500488 50 0 c 1,3,-1
 50 200 l 1,4,5
 150.005 200 150.005 200 150 403 c 0,6,7
 150 599.995 150 599.995 50 600 c 1,8,-1
 50 800 l 1,0,1
EndSplineSet
EndChar

StartChar: asterisk
Encoding: 42 42 11
Width: 600
Flags: MW
HStem: 500 100<50 180 50 180 420 550> 780 20G<250 350 350 350>
VStem: 250 100<300 429 300 429 671 800>
LayerCount: 2
Fore
SplineSet
420 500 m 1,0,-1
 512 408 l 1,1,-1
 441 338 l 1,2,-1
 350 429 l 1,3,-1
 350 300 l 1,4,-1
 250 300 l 1,5,-1
 250 429 l 1,6,-1
 159 338 l 1,7,-1
 88 408 l 1,8,-1
 180 500 l 1,9,-1
 50 500 l 1,10,-1
 50 600 l 1,11,-1
 180 600 l 1,12,-1
 88 692 l 1,13,-1
 159 762 l 1,14,-1
 250 671 l 1,15,-1
 250 800 l 1,16,-1
 350 800 l 1,17,-1
 350 671 l 1,18,-1
 441 762 l 1,19,-1
 512 692 l 1,20,-1
 420 600 l 1,21,-1
 550 600 l 1,22,-1
 550 500 l 1,23,-1
 420 500 l 1,0,-1
EndSplineSet
EndChar

StartChar: plus
Encoding: 43 43 12
Width: 500
Flags: MW
HStem: 300 200<50 150 50 150 350 450>
VStem: 150 200<200 300 200 300 500 600>
LayerCount: 2
Fore
SplineSet
150 600 m 1,0,-1
 350 600 l 1,1,-1
 350 500 l 1,2,-1
 450 500 l 1,3,-1
 450 300 l 1,4,-1
 350 300 l 1,5,-1
 350 200 l 1,6,-1
 150 200 l 1,7,-1
 150 300 l 1,8,-1
 50 300 l 1,9,-1
 50 500 l 1,10,-1
 150 500 l 1,11,-1
 150 600 l 1,0,-1
EndSplineSet
EndChar

StartChar: comma
Encoding: 44 44 13
Width: 400
Flags: MW
VStem: 50 300
LayerCount: 2
Fore
SplineSet
350 200 m 1,0,-1
 250 -100 l 1,1,-1
 50 -100 l 1,2,-1
 150 200 l 1,3,-1
 350 200 l 1,0,-1
EndSplineSet
EndChar

StartChar: hyphen
Encoding: 45 45 14
Width: 500
Flags: MW
HStem: 300 200<50 450 50 450>
LayerCount: 2
Fore
SplineSet
450 300 m 1,0,-1
 50 300 l 1,1,-1
 50 500 l 1,2,-1
 450 500 l 1,3,-1
 450 300 l 1,0,-1
EndSplineSet
EndChar

StartChar: period
Encoding: 46 46 15
Width: 300
Flags: MW
HStem: 0 21G<136.335 163.665>
LayerCount: 2
Fore
SplineSet
220.5 170.5 m 128,-1,1
 250.005 140.995 250.005 140.995 250 100 c 128,-1,2
 250 59.0048 250 59.0048 220.5 29.5 c 128,-1,3
 190.995 -0.004879 190.995 -0.004879 150 0 c 128,-1,4
 109.005 0 109.005 0 79.5 29.5 c 128,-1,5
 49.9952 59.0048 49.9952 59.0048 50 100 c 128,-1,6
 50 140.995 50 140.995 79.5 170.5 c 128,-1,7
 109.005 200.005 109.005 200.005 150 200 c 128,-1,0
 190.995 200 190.995 200 220.5 170.5 c 128,-1,1
EndSplineSet
EndChar

StartChar: slash
Encoding: 47 47 16
Width: 700
Flags: W
LayerCount: 2
Fore
SplineSet
50 0 m 1,0,-1
 250 0 l 1,1,-1
 650 800 l 1,2,-1
 450 800 l 1,3,-1
 50 0 l 1,0,-1
EndSplineSet
EndChar

StartChar: zero
Encoding: 48 48 17
Width: 1300
Flags: MW
HStem: 0 200<250 950.01 350.01 950> 600 200<316.01 950 350 950 350 950 349 950>
VStem: 50 200 1050 200<400 466.665>
LayerCount: 2
Fore
SplineSet
1250 400 m 128,-1,1
 1250 -0.00500488 1250 -0.00500488 950 0 c 2,2,-1
 350 0 l 2,3,4
 50 0 50 0 50 400 c 128,-1,5
 50 800.005 50 800.005 350 800 c 2,6,-1
 950 800 l 2,7,0
 1250 800 1250 800 1250 400 c 128,-1,1
349 600 m 2,8,9
 250.01 600 250.01 600 250.01 400 c 128,-1,10
 250.01 200.005 250.01 200.005 350.01 200 c 2,11,-1
 950.01 200 l 2,12,13
 1050.02 200 1050.02 200 1050 400 c 128,-1,14
 1050 599.995 1050 599.995 950 600 c 2,15,-1
 349 600 l 2,8,9
EndSplineSet
EndChar

StartChar: one
Encoding: 49 49 18
Width: 500
Flags: W
HStem: 0 21G<250 450> 600 200<50 220.312>
VStem: 250 200<0 570.312>
LayerCount: 2
Fore
SplineSet
450 0 m 1,0,-1
 250 0 l 1,1,-1
 250 500 l 2,2,3
 250 600 250 600 150 600 c 2,4,-1
 50 600 l 1,5,-1
 50 800 l 1,6,-1
 150 800 l 2,7,8
 450 800 450 800 450 500 c 2,9,-1
 450 0 l 1,0,-1
EndSplineSet
EndChar

StartChar: two
Encoding: 50 50 19
Width: 1000
Flags: MW
HStem: 0 200<250 950 50 50> 300 200<316.665 700 350 700> 600 200<50 700 50 700>
LayerCount: 2
Fore
SplineSet
700 800 m 2,0,1
 950.005 800 950.005 800 950 550 c 128,-1,2
 950 299.995 950 299.995 700 300 c 2,3,-1
 350 300 l 2,4,5
 249.995 300 249.995 300 250 200 c 1,6,-1
 950 200 l 1,7,-1
 950 0 l 1,8,-1
 50 0 l 1,9,-1
 50 200 l 2,10,11
 50 500 50 500 350 500 c 2,12,-1
 700 500 l 2,13,14
 749.995 500 749.995 500 750 550 c 128,-1,15
 750 599.995 750 599.995 700 600 c 2,16,-1
 50 600 l 1,17,-1
 50 800 l 1,18,-1
 700 800 l 2,0,1
EndSplineSet
EndChar

StartChar: three
Encoding: 51 51 20
Width: 1000
Flags: MW
HStem: 0 200<50 650 50 650> 300 200<50 650 50 650> 600 200<50 650 50 650>
VStem: 750 200<233.335 266.665 533.335 566.665>
LayerCount: 2
Fore
SplineSet
50 800 m 5,0,-1
 650 800 l 6,1,2
 950.01 800 950.01 800 950 550 c 4,3,4
 950.01 458 950.01 458 909 400 c 5,5,6
 950.01 342 950.01 342 950.01 250 c 4,7,8
 950.01 0 950.01 0 650.01 0 c 6,9,-1
 50 0 l 5,10,-1
 50 200 l 5,11,-1
 700.01 200 l 6,12,13
 750.01 200 750.01 200 750.01 250 c 132,-1,14
 750.01 300 750.01 300 700.01 300 c 6,15,-1
 50 300 l 5,16,-1
 50 500 l 5,17,-1
 700.01 500 l 6,18,19
 750.01 500 750.01 500 750.01 550 c 132,-1,20
 750.01 600 750.01 600 700.01 600 c 4,21,22
 375 600 375 600 50 600 c 5,23,-1
 50 800 l 5,0,-1
EndSplineSet
EndChar

StartChar: four
Encoding: 52 52 21
Width: 900
Flags: MW
HStem: 0 21G<450 650 450 450> 100 200<250 450 250 450 650 850> 500 200<316.665 600 350 600 600 616.665 350 650> 780 20G<650 850 850 850>
VStem: 50 200<300 400 300 400 300 500> 450 200<0 100 0 100 300 400>
LayerCount: 2
Fore
SplineSet
850 100 m 1,0,-1
 650 100 l 1,1,-1
 650 0 l 1,2,-1
 450 0 l 1,3,-1
 450 100 l 1,4,-1
 50 100 l 1,5,-1
 50 400 l 2,6,7
 50 700 50 700 350 700 c 2,8,-1
 600 700 l 2,9,10
 649.995 700 649.995 700 650 750 c 2,11,-1
 650 800 l 1,12,-1
 850 800 l 1,13,-1
 850 750 l 2,14,15
 850 499.995 850 499.995 650 500 c 2,16,-1
 350 500 l 2,17,18
 249.995 500 249.995 500 250 400 c 2,19,-1
 250 300 l 1,20,-1
 450 300 l 1,21,-1
 450 400 l 1,22,-1
 650 400 l 1,23,-1
 650 300 l 1,24,-1
 850 300 l 1,25,-1
 850 100 l 1,0,-1
EndSplineSet
EndChar

StartChar: five
Encoding: 53 53 22
Width: 1000
Flags: MW
HStem: 0 200<50 700 50 700> 300 200<250 700 350 700> 600 200<50 950 250 250 250 950>
LayerCount: 2
Fore
SplineSet
700 0 m 2,0,-1
 50 0 l 1,1,-1
 50 200 l 1,2,-1
 700 200 l 2,3,4
 749.995 200 749.995 200 750 250 c 128,-1,5
 750 299.995 750 299.995 700 300 c 2,6,-1
 350 300 l 2,7,8
 50 300 50 300 50 600 c 2,9,-1
 50 800 l 1,10,-1
 950 800 l 1,11,-1
 950 600 l 1,12,-1
 250 600 l 1,13,14
 250 499.995 250 499.995 350 500 c 2,15,-1
 700 500 l 2,16,17
 950.005 500 950.005 500 950 250 c 128,-1,18
 950 -0.00485229 950 -0.00485229 700 0 c 2,0,-1
EndSplineSet
EndChar

StartChar: six
Encoding: 54 54 23
Width: 1200
Flags: MW
HStem: 0 200<250.01 900.01 350.01 900> 300 200<350.01 900.01 350.01 900.01> 600 200<316.675 1150.01 350.01 1150.01>
VStem: 50 200
LayerCount: 2
Fore
SplineSet
900 0 m 2,0,-1
 350.01 0 l 2,1,2
 50.01 0 50.01 0 50.0098 400 c 128,-1,3
 50.0098 800.005 50.0098 800.005 350.01 800 c 2,4,-1
 1150.01 800 l 1,5,-1
 1150.01 600 l 1,6,-1
 350.01 600 l 2,7,8
 250.005 600 250.005 600 250.01 400 c 128,-1,9
 250.01 200.005 250.01 200.005 350.01 200 c 2,10,-1
 900.01 200 l 2,11,12
 950.005 200 950.005 200 950.01 250 c 128,-1,13
 950.01 299.995 950.01 299.995 900.01 300 c 2,14,-1
 350.01 300 l 1,15,-1
 350.01 500 l 1,16,-1
 900.01 500 l 2,17,18
 1150.02 500 1150.02 500 1150 250 c 128,-1,19
 1150 -0.00485229 1150 -0.00485229 900 0 c 2,0,-1
EndSplineSet
EndChar

StartChar: seven
Encoding: 55 55 24
Width: 900
Flags: MW
HStem: 0 21G<600 800 600 600> 150 200<350 600 350 600 800 850> 600 200<50 494 50 500>
VStem: 600 200<0 150 0 150 350 500>
LayerCount: 2
Fore
SplineSet
500 800 m 2,0,1
 800 800 800 800 800 500 c 2,2,-1
 800 350 l 1,3,-1
 850 350 l 1,4,-1
 850 150 l 1,5,-1
 800 150 l 1,6,-1
 800 0 l 1,7,-1
 600 0 l 1,8,-1
 600 150 l 1,9,-1
 350 150 l 1,10,-1
 350 350 l 1,11,-1
 600 350 l 1,12,-1
 600 500 l 2,13,14
 600 600.005 600 600.005 494 600 c 2,15,-1
 50 600 l 1,16,-1
 50 800 l 1,17,-1
 500 800 l 2,0,1
EndSplineSet
EndChar

StartChar: eight
Encoding: 56 56 25
Width: 1100
Flags: MW
HStem: 0 200<216.665 800 300 800> 300 200<283.335 800 300 800> 600 200<283.335 800 300 800>
VStem: 50 200<233.335 250 533.335 566.665> 850 200<233.335 250 166.665 266.665>
LayerCount: 2
Fore
SplineSet
300 600 m 2,0,1
 250.005 600 250.005 600 250 550 c 128,-1,2
 250 500.005 250 500.005 300 500 c 2,3,-1
 800 500 l 2,4,5
 849.995 500 849.995 500 850 550 c 128,-1,6
 850 599.995 850 599.995 800 600 c 2,7,-1
 300 600 l 2,0,1
800 200 m 2,8,9
 849.995 200 849.995 200 850 250 c 128,-1,10
 850 299.995 850 299.995 800 300 c 2,11,-1
 300 300 l 2,12,13
 250.005 300 250.005 300 250 250 c 128,-1,14
 250 200.005 250 200.005 300 200 c 2,15,-1
 800 200 l 2,8,9
800 800 m 2,16,17
 1049.99 800 1049.99 800 1049.99 550 c 0,18,19
 1049.99 449.995 1049.99 449.995 999.99 400 c 1,20,21
 1049.98 350.005 1049.98 350.005 1050 250 c 0,22,23
 1050 -0.00485229 1050 -0.00485229 800 0 c 2,24,-1
 300 0 l 2,25,26
 49.995 0 49.995 0 50 250 c 1,27,28
 48.9952 350.005 48.9952 350.005 100 400 c 1,29,30
 50.0048 449.995 50.0048 449.995 50 550 c 0,31,32
 50 800.005 50 800.005 300 800 c 2,33,-1
 800 800 l 2,16,17
EndSplineSet
EndChar

StartChar: nine
Encoding: 57 57 26
Width: 1200
Flags: MW
HStem: 0 21G<950 1150 950 950> 200 200<250 900 350 900> 600 200<316.665 850 350 850>
VStem: 50 200<466.665 533.335 466.665 600> 950 200<0 500 0 533.335>
LayerCount: 2
Fore
SplineSet
50 500 m 128,-1,1
 50 800 50 800 350 800 c 2,2,-1
 850 800 l 2,3,4
 1150 800 1150 800 1150 500 c 2,5,-1
 1150 0 l 1,6,-1
 950 0 l 1,7,-1
 950 500 l 2,8,9
 950 600.005 950 600.005 850 600 c 2,10,-1
 350 600 l 2,11,12
 249.995 600 249.995 600 250 500 c 128,-1,13
 250 399.995 250 399.995 350 400 c 2,14,-1
 900 400 l 1,15,-1
 900 200 l 1,16,-1
 350 200 l 2,17,0
 50 200 50 200 50 500 c 128,-1,1
EndSplineSet
EndChar

StartChar: colon
Encoding: 58 58 27
Width: 300
Flags: MW
HStem: 0 21G<136.335 163.665>
VStem: 50 200<86.335 113.665 386.335 413.665>
LayerCount: 2
Fore
SplineSet
220.5 470.5 m 128,-1,1
 250.005 440.995 250.005 440.995 250 400 c 128,-1,2
 250 359.005 250 359.005 220.5 329.5 c 128,-1,3
 190.995 299.995 190.995 299.995 150 300 c 128,-1,4
 109.005 300 109.005 300 79.5 329.5 c 128,-1,5
 49.9952 359.005 49.9952 359.005 50 400 c 128,-1,6
 50 440.995 50 440.995 79.5 470.5 c 128,-1,7
 109.005 500.005 109.005 500.005 150 500 c 128,-1,0
 190.995 500 190.995 500 220.5 470.5 c 128,-1,1
220.5 170.5 m 128,-1,9
 250.005 140.995 250.005 140.995 250 100 c 128,-1,10
 250 59.0048 250 59.0048 220.5 29.5 c 128,-1,11
 190.995 -0.004879 190.995 -0.004879 150 0 c 128,-1,12
 109.005 0 109.005 0 79.5 29.5 c 128,-1,13
 49.9952 59.0048 49.9952 59.0048 50 100 c 128,-1,14
 50 140.995 50 140.995 79.5 170.5 c 128,-1,15
 109.005 200.005 109.005 200.005 150 200 c 128,-1,8
 190.995 200 190.995 200 220.5 170.5 c 128,-1,9
EndSplineSet
EndChar

StartChar: semicolon
Encoding: 59 59 28
Width: 400
Flags: W
LayerCount: 2
Fore
SplineSet
320.5 470.5 m 128,-1,1
 350.005 440.995 350.005 440.995 350 400 c 128,-1,2
 350 359.005 350 359.005 320.5 329.5 c 128,-1,3
 290.995 299.995 290.995 299.995 250 300 c 128,-1,4
 209.005 300 209.005 300 179.5 329.5 c 128,-1,5
 149.995 359.005 149.995 359.005 150 400 c 128,-1,6
 150 440.995 150 440.995 179.5 470.5 c 128,-1,7
 209.005 500.005 209.005 500.005 250 500 c 128,-1,0
 290.995 500 290.995 500 320.5 470.5 c 128,-1,1
350 200 m 1,8,-1
 250 -100 l 1,9,-1
 50 -100 l 1,10,-1
 150 200 l 1,11,-1
 350 200 l 1,8,-1
EndSplineSet
EndChar

StartChar: less
Encoding: 60 60 29
Width: 650
Flags: W
LayerCount: 2
Fore
SplineSet
600 150 m 1,0,-1
 450 0 l 1,1,-1
 50 400 l 1,2,-1
 450 800 l 1,3,-1
 600 650 l 1,4,-1
 350 400 l 1,5,-1
 600 150 l 1,0,-1
EndSplineSet
EndChar

StartChar: equal
Encoding: 61 61 30
Width: 500
Flags: MW
HStem: 150 200<50 450 50 450> 450 200<50 450 50 450>
VStem: 50 400<150 350 150 350 450 650>
LayerCount: 2
Fore
SplineSet
450 450 m 1,0,-1
 50 450 l 1,1,-1
 50 650 l 1,2,-1
 450 650 l 1,3,-1
 450 450 l 1,0,-1
450 150 m 1,4,-1
 50 150 l 1,5,-1
 50 350 l 1,6,-1
 450 350 l 1,7,-1
 450 150 l 1,4,-1
EndSplineSet
EndChar

StartChar: question
Encoding: 63 63 32
Width: 1000
Flags: W
HStem: 0 200<88.0255 211.975> 300 200<262.463 737.537> 600 200<50 737.537>
VStem: 50 200<38.0255 161.975 225 287.537> 750 200<509.186 590.814>
CounterMasks: 1 e0
LayerCount: 2
Fore
SplineSet
700 800 m 2,0,1
 950 800 950 800 950 550 c 128,-1,2
 950 300 950 300 700 300 c 2,3,-1
 300 300 l 2,4,5
 250 300 250 300 250 250 c 2,6,-1
 250 225 l 1,7,-1
 50 225 l 1,8,-1
 50 250 l 2,9,10
 50 500 50 500 300 500 c 2,11,-1
 700 500 l 2,12,13
 750 500 750 500 750 550 c 128,-1,14
 750 600 750 600 700 600 c 2,15,-1
 350 600 l 1,16,-1
 50 600 l 1,17,-1
 50 800 l 1,18,-1
 350 800 l 1,19,-1
 700 800 l 2,0,1
220.5 170.5 m 128,-1,21
 250.005 140.995 250.005 140.995 250 100 c 128,-1,22
 250 59.0048 250 59.0048 220.5 29.5 c 128,-1,23
 190.995 -0.004879 190.995 -0.004879 150 0 c 128,-1,24
 109.005 0 109.005 0 79.5 29.5 c 128,-1,25
 49.9952 59.0048 49.9952 59.0048 50 100 c 128,-1,26
 50 140.995 50 140.995 79.5 170.5 c 128,-1,27
 109.005 200.005 109.005 200.005 150 200 c 128,-1,20
 190.995 200 190.995 200 220.5 170.5 c 128,-1,21
EndSplineSet
EndChar

StartChar: at
Encoding: 64 64 33
Width: 1000
Flags: MW
HStem: 0 100<250 850 350 850> 200 100<450 450.01 450 600 450 450.01 783.335 816.665> 500 100<416.665 550 450 550> 700 100<283.335 650 350 650>
VStem: 50 100<300 500 300 532.665> 250 100<399 433.335> 650 100<333.335 350 350 400> 850 100<200 300 350 400>
LayerCount: 2
Fore
SplineSet
450 200 m 2,0,1
 251.005 200 251.005 200 250 399 c 1,2,3
 250 600 250 600 450 600 c 2,4,-1
 550 600 l 2,5,6
 749.995 600 749.995 600 750 400 c 2,7,-1
 750 350 l 2,8,9
 750 300.005 750 300.005 800 300 c 128,-1,10
 849.995 300 849.995 300 850 350 c 2,11,-1
 850 400 l 2,12,13
 850 700 850 700 650 700 c 2,14,-1
 350 700 l 2,15,16
 150.005 700 150.005 700 150 400 c 128,-1,17
 150 100 150 100 350 100 c 2,18,-1
 850 100 l 1,19,-1
 850 0 l 1,20,-1
 350 0 l 2,21,22
 50 0 50 0 50 399 c 0,23,24
 50 799.995 50 799.995 350 800 c 2,25,-1
 650 800 l 2,26,27
 948.995 800 948.995 800 950 400 c 1,28,-1
 950 300 l 2,29,30
 950 199.995 950 199.995 850 200 c 2,31,-1
 750 200 l 2,32,33
 649.995 200 649.995 200 650 300 c 2,34,-1
 650 400 l 2,35,36
 650 500.005 650 500.005 550 500 c 2,37,-1
 450 500 l 2,38,39
 349.995 500 349.995 500 350 400 c 128,-1,40
 350 299.995 350 299.995 450 300 c 2,41,-1
 600 300 l 1,42,-1
 600 200 l 1,43,-1
 450 200 l 2,0,1
EndSplineSet
EndChar

StartChar: A
Encoding: 65 65 34
Width: 1200
Flags: W
HStem: 0 200<279.688 900> 600 200<279.688 920.312>
VStem: 50 200<229.688 570.312> 950 200<0 570.312>
LayerCount: 2
Fore
SplineSet
50 300 m 2,0,-1
 50 500 l 2,1,2
 50 800 50 800 350 800 c 2,3,-1
 850 800 l 2,4,5
 1150 800 1150 800 1150 500 c 2,6,-1
 1150 0 l 1,7,-1
 950 0 l 1,8,-1
 950 500 l 2,9,10
 950 600.005 950 600.005 850 600 c 2,11,-1
 350 600 l 2,12,13
 249.995 600 249.995 600 250 500 c 2,14,-1
 250 300 l 2,15,16
 250 199.995 250 199.995 350 200 c 2,17,-1
 900 200 l 1,18,-1
 900 0 l 1,19,-1
 350 0 l 2,20,21
 50 0 50 0 50 300 c 2,0,-1
EndSplineSet
EndChar

StartChar: B
Encoding: 66 66 35
Width: 1200
Flags: W
HStem: 0 200<300 944.09> 300 200<300 944.09> 600 200<278.22 944.092>
VStem: 50 200<0 571.777> 950 200<209.185 293.981 506.018 590.813>
CounterMasks: 1 e0
LayerCount: 2
Fore
SplineSet
50 0 m 1,0,-1
 49.9902 600 l 2,1,2
 49.9902 799.995 49.9902 799.995 249.99 800 c 2,3,-1
 849.99 800 l 2,4,5
 1149.99 800 1149.99 800 1149.99 550 c 0,6,7
 1149.99 458.005 1149.99 458.005 1108.99 400 c 1,8,9
 1149.98 341.995 1149.98 341.995 1150 250 c 0,10,11
 1150 -0.00485229 1150 -0.00485229 850 0 c 2,12,-1
 300 0 l 1,13,-1
 300 200 l 1,14,-1
 900 200 l 2,15,16
 949.995 200 949.995 200 950 250 c 128,-1,17
 950 299.995 950 299.995 900 300 c 2,18,-1
 300 300 l 1,19,-1
 300 500 l 1,20,-1
 900 500 l 2,21,22
 949.995 500 949.995 500 950 550 c 128,-1,23
 950 599.995 950 599.995 900 600 c 2,24,-1
 350 600 l 2,25,26
 249.995 600 249.995 600 250 500 c 2,27,-1
 250 0 l 1,28,-1
 50 0 l 1,0,-1
EndSplineSet
EndChar

StartChar: C
Encoding: 67 67 36
Width: 950
Flags: W
HStem: 0 200<296.387 900> 600 200<296.387 900>
VStem: 50 200<263.896 535.771>
LayerCount: 2
Fore
SplineSet
900 1 m 1,0,-1
 350 0 l 2,1,2
 50 -0.545455 50 -0.545455 50 400 c 0,3,4
 50 799.455 50 799.455 350 800 c 2,5,-1
 900 801 l 1,6,-1
 900 601 l 1,7,-1
 350 600 l 2,8,9
 249.995 599.818 249.995 599.818 250 400 c 0,10,11
 250 199.818 250 199.818 350 200 c 2,12,-1
 900 201 l 1,13,-1
 900 1 l 1,0,-1
EndSplineSet
EndChar

StartChar: D
Encoding: 68 68 37
Width: 1200
Flags: W
HStem: 0 200<300 920.312> 600 200<279.688 920.312>
VStem: 50 200<0 570.312> 950 200<229.688 570.312>
LayerCount: 2
Fore
SplineSet
850 0 m 2,0,-1
 300 0 l 1,1,-1
 300 200 l 1,2,-1
 850 200 l 2,3,4
 950.005 200 950.005 200 950 300 c 2,5,-1
 950 500 l 2,6,7
 950 600.005 950 600.005 850 600 c 2,8,-1
 350 600 l 2,9,10
 249.995 600 249.995 600 250 500 c 2,11,-1
 250 0 l 1,12,-1
 50 0 l 1,13,-1
 50 500 l 2,14,15
 50 800 50 800 350 800 c 2,16,-1
 850 800 l 2,17,18
 1150 800 1150 800 1150 500 c 2,19,-1
 1150 300 l 2,20,21
 1150 0 1150 0 850 0 c 2,0,-1
EndSplineSet
EndChar

StartChar: E
Encoding: 69 69 38
Width: 1000
HStem: 0 200<279.688 950> 300 200<250 950> 600 200<279.688 950>
VStem: 50 200<228.22 300 500 571.777>
CounterMasks: 1 e0
LayerCount: 2
Fore
SplineSet
50 400 m 128,-1,1
 50 800.005 50 800.005 350 800 c 2,2,-1
 950 800 l 1,3,-1
 950 600 l 1,4,-1
 349 600 l 2,5,6
 250 600 250 600 250 500 c 1,7,-1
 950 500 l 1,8,-1
 950 300 l 1,9,-1
 250 300 l 1,10,11
 250 199.995 250 199.995 350 200 c 2,12,-1
 950 200 l 1,13,-1
 950 0 l 1,14,-1
 350 0 l 2,15,0
 50 0 50 0 50 400 c 128,-1,1
EndSplineSet
EndChar

StartChar: F
Encoding: 70 70 39
Width: 900
Flags: W
HStem: 0 21G<50 250> 200 200<250 850> 600 200<279.688 850>
VStem: 50 200<0 200 400 570.312>
LayerCount: 2
Fore
SplineSet
850 800 m 1,0,-1
 850 600 l 1,1,-1
 350 600 l 2,2,3
 249.995 600 249.995 600 250 500 c 2,4,-1
 250 400 l 1,5,-1
 850 400 l 1,6,-1
 850 200 l 1,7,-1
 250 200 l 1,8,-1
 250 0 l 1,9,-1
 50 0 l 1,10,-1
 50 500 l 2,11,12
 50 800 50 800 350 800 c 2,13,-1
 850 800 l 1,0,-1
EndSplineSet
EndChar

StartChar: G
Encoding: 71 71 40
Width: 1200
Flags: W
HStem: 0 200<296.397 937.537> 300 200<350.01 937.548> 600 200<296.397 1150.01>
VStem: 50.0098 200<264.062 535.939> 950.01 199.99<212.463 287.537>
CounterMasks: 1 e0
LayerCount: 2
Fore
SplineSet
900 0 m 2,0,-1
 350.01 0 l 2,1,2
 50.01 0 50.01 0 50.0098 400 c 128,-1,3
 50.0098 800.005 50.0098 800.005 350.01 800 c 2,4,-1
 1150.01 800 l 1,5,-1
 1150.01 600 l 1,6,-1
 350.01 600 l 2,7,8
 250.005 600 250.005 600 250.01 400 c 128,-1,9
 250.01 200.005 250.01 200.005 350.01 200 c 2,10,-1
 900.01 200 l 2,11,12
 950.005 200 950.005 200 950.01 250 c 128,-1,13
 950.01 299.995 950.01 299.995 900.01 300 c 2,14,-1
 350.01 300 l 1,15,-1
 350.01 500 l 1,16,-1
 900.01 500 l 2,17,18
 1150.02 500 1150.02 500 1150 250 c 128,-1,19
 1150 -0.00485229 1150 -0.00485229 900 0 c 2,0,-1
EndSplineSet
EndChar

StartChar: H
Encoding: 72 72 41
Width: 900
Flags: W
HStem: 0 21G<50 250 650 850> 300 200<250 650> 780 20G<50 250 650 850>
VStem: 50 200<0 300 500 800> 650 200<0 300 500 800>
LayerCount: 2
Fore
SplineSet
850 0 m 1,0,-1
 650 0 l 1,1,-1
 650 300 l 1,2,-1
 250 300 l 1,3,-1
 250 0 l 1,4,-1
 50 0 l 1,5,-1
 50 800 l 1,6,-1
 250 800 l 1,7,-1
 250 500 l 1,8,-1
 650 500 l 1,9,-1
 650 800 l 1,10,-1
 850 800 l 1,11,-1
 850 0 l 1,0,-1
EndSplineSet
EndChar

StartChar: I
Encoding: 73 73 42
Width: 300
Flags: W
HStem: 0 21G<50 250> 780 20G<50 250>
VStem: 50 200<0 800>
LayerCount: 2
Fore
SplineSet
250 0 m 1,0,-1
 50 0 l 1,1,-1
 50 800 l 1,2,-1
 250 800 l 1,3,-1
 250 0 l 1,0,-1
EndSplineSet
EndChar

StartChar: J
Encoding: 74 74 43
Width: 800
Flags: W
HStem: 0 200<50 520.312> 780 20G<550 750>
VStem: 550 200<229.688 800>
LayerCount: 2
Fore
SplineSet
750 300 m 2,0,1
 750 0 750 0 450 0 c 2,2,-1
 50 0 l 1,3,-1
 50 200 l 1,4,-1
 450 200 l 2,5,6
 550 200 550 200 550 300 c 2,7,-1
 550 800 l 1,8,-1
 750 800 l 1,9,-1
 750 300 l 2,0,1
EndSplineSet
EndChar

StartChar: K
Encoding: 75 75 44
Width: 900
Flags: W
HStem: 0 21G<60 260 660 860> 300 200<260 631.777> 780 20G<60 260 660 860>
VStem: 60 200<0 300 500 800> 660 200<0 269.807 530.195 800>
LayerCount: 2
Fore
SplineSet
560 300 m 2,0,-1
 260 300 l 1,1,-1
 260 0 l 1,2,-1
 60 0 l 1,3,-1
 60 800 l 1,4,-1
 260 800 l 1,5,-1
 260 500 l 1,6,-1
 560 500 l 2,7,8
 660.005 500 660.005 500 660 600 c 2,9,-1
 660 800 l 1,10,-1
 860 800 l 1,11,-1
 860 600 l 2,12,13
 860 483 860 483 760 400 c 1,14,15
 860.005 317.005 860.005 317.005 860 200 c 2,16,-1
 860 0 l 1,17,-1
 660 0 l 1,18,-1
 660 200 l 2,19,20
 660 300.005 660 300.005 560 300 c 2,0,-1
EndSplineSet
EndChar

StartChar: L
Encoding: 76 76 45
Width: 800
Flags: W
HStem: 0 200<279.688 750> 780 20G<50 250>
VStem: 50 200<229.688 800>
LayerCount: 2
Fore
SplineSet
50 800 m 1,0,-1
 250 800 l 1,1,-1
 250 300 l 2,2,3
 250 199.995 250 199.995 350 200 c 2,4,-1
 750 200 l 1,5,-1
 750 0 l 1,6,-1
 350 0 l 2,7,8
 50 0 50 0 50 300 c 2,9,-1
 50 800 l 1,0,-1
EndSplineSet
EndChar

StartChar: N
Encoding: 78 78 47
Width: 800
Flags: W
HStem: 0.0576172 16.4912<363.806 436.243> 42.7588 17.0713<380.727 414.51> 91.749 16.53<401.4 414.511> 183.498 16.569<364.46 435.775> 600 200<308.539 491.461>
VStem: 50 200<0 541.406> 299.971 16.528<64.1521 137.143> 350.689 27.631<61.2939 90.6733> 414.511 27.07<59.8301 91.749 108.279 153.579> 483.489 16.531<64.1442 135.996> 550 200<0 541.406>
LayerCount: 2
Fore
SplineSet
414.51 59.8301 m 1,0,-1
 414.511 91.749 l 1,1,-1
 401.4 91.749 l 2,2,3
 378.316 91.749 378.316 91.749 378.32 76.3594 c 0,4,5
 378.32 59.83 378.32 59.83 402.83 59.8301 c 2,6,-1
 414.51 59.8301 l 1,0,-1
441.581 42.749 m 1,7,-1
 397.989 42.7588 l 2,8,9
 350.694 42.7588 350.694 42.7588 350.689 74.3789 c 0,10,11
 350.689 98.0186 350.689 98.0186 374.91 104.009 c 1,12,-1
 350.12 153.579 l 1,13,-1
 380.32 153.579 l 1,14,-1
 401.4 108.279 l 1,15,-1
 414.511 108.279 l 1,16,-1
 414.511 153.579 l 1,17,-1
 441.581 153.579 l 1,18,-1
 441.581 42.749 l 1,7,-1
399.989 16.5488 m 0,19,20
 434.474 16.5771 434.474 16.5771 458.129 40.2168 c 0,21,22
 483.494 65.5674 483.494 65.5674 483.489 100.038 c 0,23,24
 483.489 133.938 483.489 133.938 459.269 158.147 c 0,25,26
 434.473 183.499 434.473 183.499 400.288 183.498 c 0,27,28
 366.658 183.498 366.658 183.498 341.009 158.998 c 0,29,30
 316.499 135.628 316.499 135.628 316.499 101.729 c 0,31,32
 316.499 65.8337 316.499 65.8337 340.148 41.6191 c 0,33,34
 364.944 16.5543 364.944 16.5543 399.989 16.5488 c 0,19,20
400.279 0.0576172 m 0,35,36
 358.111 0.0761719 358.111 0.0761719 328.471 29.9863 c 0,37,38
 299.971 58.7559 299.971 58.7559 299.971 100.356 c 0,39,40
 299.971 142.522 299.971 142.522 329.61 171.007 c 0,41,42
 359.536 200.062 359.536 200.062 400.28 200.067 c 0,43,44
 430.2 200.067 430.2 200.067 455.85 182.967 c 0,45,46
 481.215 165.582 481.215 165.582 492.609 137.957 c 0,47,48
 500.02 120.003 500.02 120.003 500.02 100.348 c 0,49,50
 500.02 72.7175 500.02 72.7175 485.489 48.208 c 0,51,52
 471.806 25.1331 471.806 25.1331 449.3 12.5977 c 0,53,54
 427.069 0.0571003 427.069 0.0571003 400.279 0.0576172 c 0,35,36
750 450 m 2,55,-1
 750 0 l 1,56,-1
 550 0 l 1,57,-1
 550 450 l 2,58,59
 550 600 550 600 400 600 c 128,-1,60
 250 600 250 600 250 450 c 2,61,-1
 250 0 l 1,62,-1
 50 0 l 1,63,-1
 50 450 l 2,64,65
 50 799.995 50 799.995 400 800 c 128,-1,66
 749.995 800 749.995 800 750 450 c 2,55,-1
EndSplineSet
EndChar

StartChar: O
Encoding: 79 79 48
Width: 1300
Flags: W
HStem: 0 200<296.377 1003.53> 600 200<296.377 1003.53>
VStem: 49.9902 200<264.062 535.939> 1049.99 200.01<253.588 546.41>
LayerCount: 2
Fore
SplineSet
1250 400 m 128,-1,1
 1249.98 -0.00500488 1249.98 -0.00500488 959.99 0 c 2,2,-1
 349.99 0 l 2,3,4
 49.99 0 49.99 0 49.9902 400 c 128,-1,5
 49.9902 800.005 49.9902 800.005 349.99 800 c 2,6,-1
 959.99 800 l 2,7,0
 1249.98 800 1249.98 800 1250 400 c 128,-1,1
348.99 600 m 2,8,9
 249.99 600 249.99 600 249.99 400 c 128,-1,10
 249.99 200.005 249.99 200.005 349.99 200 c 2,11,-1
 959.99 200 l 2,12,13
 1049.99 200 1049.99 200 1049.99 400 c 128,-1,14
 1049.99 599.995 1049.99 599.995 959.99 600 c 2,15,-1
 348.99 600 l 2,8,9
EndSplineSet
EndChar

StartChar: P
Encoding: 80 80 49
Width: 1200
Flags: W
HStem: 0 21G<50 250> 200 200<300 920.312> 600 200<250 920.312>
VStem: 50 200<0 600> 950 200<429.688 570.312>
LayerCount: 2
Fore
SplineSet
50 0 m 1,0,-1
 50 800 l 1,1,-1
 850 800 l 0,2,3
 1150 800 1150 800 1150 500 c 128,-1,4
 1150 200 1150 200 850 200 c 2,5,-1
 300 200 l 1,6,-1
 300 400 l 1,7,-1
 850 400 l 2,8,9
 950.005 400 950.005 400 950 500 c 128,-1,10
 950 600 950 600 850 600 c 0,11,12
 550 600 550 600 250 600 c 1,13,-1
 250 0 l 1,14,-1
 50 0 l 1,0,-1
EndSplineSet
EndChar

StartChar: Q
Encoding: 81 81 50
Width: 1300
Flags: W
VStem: 50 200<264.061 535.938> 950 200<400 535.939>
LayerCount: 2
Fore
SplineSet
850 800 m 2,0,-1
 350 800 l 2,1,2
 50 800 50 800 50 400 c 128,-1,3
 50 -0.00488281 50 -0.00488281 350 0 c 2,4,-1
 1250 0 l 1,5,-1
 1250 200 l 1,6,-1
 350 200 l 2,7,8
 249.99 200 249.99 200 250 400 c 128,-1,9
 250 599.995 250 599.995 350 600 c 2,10,-1
 850 600 l 2,11,12
 950.005 600 950.005 600 950 400 c 2,13,-1
 950 250 l 1,14,-1
 1150 250 l 1,15,-1
 1150 400 l 2,16,17
 1150 800.005 1150 800.005 850 800 c 2,0,-1
EndSplineSet
EndChar

StartChar: R
Encoding: 82 82 51
Width: 1200
Flags: W
HStem: 0 200<512.463 1150> 300 200<512.463 937.537> 600 200<250 937.539>
VStem: 50 200<0 600> 300 200<212.463 287.537> 950 200<512.463 587.537>
CounterMasks: 1 e0
LayerCount: 2
Fore
SplineSet
900 800 m 2,0,1
 1150.02 800 1150.02 800 1150 550 c 128,-1,2
 1150 299.995 1150 299.995 900 300 c 2,3,-1
 550 300 l 2,4,5
 500.005 300 500.005 300 500 250 c 128,-1,6
 500 200.005 500 200.005 550 200 c 2,7,-1
 1150 200 l 1,8,-1
 1150 0 l 1,9,-1
 550 0 l 2,10,11
 299.995 0 299.995 0 300 250 c 128,-1,12
 300 500.005 300 500.005 550 500 c 2,13,-1
 900 500 l 2,14,15
 949.995 500 949.995 500 950 550 c 128,-1,16
 950 599.995 950 599.995 900 600 c 2,17,-1
 250 600 l 1,18,-1
 250 0 l 1,19,-1
 50 0 l 1,20,-1
 50 800 l 1,21,-1
 300 800 l 1,22,-1
 900 800 l 2,0,1
EndSplineSet
EndChar

StartChar: S
Encoding: 83 83 52
Width: 1000
Flags: W
HStem: 0 200<50 737.537> 300 200<262.463 737.537> 600 200<262.463 950>
VStem: 50 200<512.463 587.537> 750 200<212.463 287.537>
CounterMasks: 1 e0
LayerCount: 2
Fore
SplineSet
950 800 m 1,0,-1
 950 600 l 1,1,-1
 300 600 l 2,2,3
 250.005 600 250.005 600 250 550 c 128,-1,4
 250 500.005 250 500.005 300 500 c 2,5,-1
 700 500 l 2,6,7
 950.005 500 950.005 500 950 250 c 128,-1,8
 950 -0.00485229 950 -0.00485229 700 0 c 2,9,-1
 50 0 l 1,10,-1
 50 200 l 1,11,-1
 700 200 l 2,12,13
 749.995 200 749.995 200 750 250 c 128,-1,14
 750 299.995 750 299.995 700 300 c 2,15,-1
 300 300 l 2,16,17
 49.995 300 49.995 300 50 550 c 128,-1,18
 50 800.005 50 800.005 300 800 c 2,19,-1
 950 800 l 1,0,-1
EndSplineSet
EndChar

StartChar: T
Encoding: 84 84 53
Width: 900
Flags: W
HStem: 0 21G<350 550> 600 200<50 350 550 850>
VStem: 350 200<0 600>
LayerCount: 2
Fore
SplineSet
850 600 m 1,0,-1
 550 600 l 1,1,-1
 550 0 l 1,2,-1
 350 0 l 1,3,-1
 350 600 l 1,4,-1
 50 600 l 1,5,-1
 50 800 l 1,6,-1
 850 800 l 1,7,-1
 850 600 l 1,0,-1
EndSplineSet
EndChar

StartChar: V
Encoding: 86 86 55
Width: 800
Flags: W
HStem: 0 21G<375 425> 780 20G<50 250 550 750>
VStem: 50 200<332.172 800> 550 200<332.031 800>
LayerCount: 2
Fore
SplineSet
750 800 m 1,0,-1
 750 400 l 2,1,2
 750 300 750 300 700 250 c 2,3,-1
 500 50 l 2,4,5
 450 0 450 0 400 0 c 128,-1,6
 350 0 350 0 300 50 c 2,7,-1
 100 251 l 2,8,9
 50 300 50 300 50 400 c 2,10,-1
 50 800 l 1,11,-1
 250 800 l 1,12,-1
 250 400 l 2,13,14
 250 350 250 350 290 310 c 2,15,-1
 360 240 l 2,16,17
 400 200 400 200 440 240 c 2,18,-1
 510 310 l 2,19,20
 550 350 550 350 550 400 c 2,21,-1
 550 800 l 1,22,-1
 750 800 l 1,0,-1
EndSplineSet
EndChar

StartChar: X
Encoding: 88 88 57
Width: 1100
Flags: W
HStem: 0 200<50 350 50 350 750 1050> 600 200<50 350 50 350 750 1050>
VStem: 450 200<333.335 466.665>
LayerCount: 2
Fore
SplineSet
650 400 m 128,-1,1
 650 200.005 650 200.005 750 200 c 2,2,-1
 1050 200 l 1,3,-1
 1050 0 l 1,4,-1
 750 0 l 2,5,6
 630 0 630 0 550 140 c 1,7,8
 470.005 0.00485229 470.005 0.00485229 350 0 c 2,9,-1
 50 0 l 1,10,-1
 50 200 l 1,11,-1
 350 200 l 2,12,13
 450.005 200 450.005 200 450 400 c 128,-1,14
 450 599.995 450 599.995 350 600 c 2,15,-1
 50 600 l 1,16,-1
 50 800 l 1,17,-1
 350 800 l 2,18,19
 470 800 470 800 550 663 c 1,20,21
 629.995 799.995 629.995 799.995 750 800 c 2,22,-1
 1050 800 l 1,23,-1
 1050 600 l 1,24,-1
 750 600 l 2,25,0
 649.995 600 649.995 600 650 400 c 128,-1,1
EndSplineSet
EndChar

StartChar: Y
Encoding: 89 89 58
Width: 900
Flags: W
HStem: 0 21G<350 350 350 550> 600 16.52 691.74 16.52 740.17 17.09 780 20G 783.48 16.52
VStem: 50 200<599.99 799.99> 350 200<0 200 0 200> 350.17 16.53 650 200<599.99 799.99>
CounterMasks: 1 38
LayerCount: 2
Fore
SplineSet
350 0 m 1,0,-1
 350 200 l 1,1,2
 50 249.995 50 249.995 50 599.99 c 2,3,-1
 50 799.99 l 1,4,-1
 250 799.99 l 1,5,-1
 250 599.99 l 2,6,7
 250 399.995 250 399.995 450 399.99 c 0,8,9
 649.995 399.99 649.995 399.99 650 599.99 c 2,10,-1
 650 799.99 l 1,11,-1
 850 799.99 l 1,12,-1
 850 599.99 l 2,13,14
 850 249.995 850 249.995 550 200 c 1,15,-1
 550 0 l 1,16,-1
 350 0 l 1,0,-1
EndSplineSet
Refer: 130 174 S 0.25 -0 -0 0.25 338 600 2
EndChar

StartChar: Z
Encoding: 90 90 59
Width: 1000
Flags: W
HStem: 0 200<250 950> 300 200<279.688 720.312> 600 200<50 750>
VStem: 50 900<0 200 300 500 600 800>
CounterMasks: 1 e0
LayerCount: 2
Fore
SplineSet
50 0 m 1,0,-1
 50 200 l 2,1,2
 50 500 50 500 350 500 c 2,3,-1
 650 500 l 2,4,5
 750.005 500 750.005 500 750 600 c 1,6,-1
 50 600 l 1,7,-1
 50 800 l 1,8,-1
 950 800 l 1,9,-1
 950 600 l 2,10,11
 950 300 950 300 650 300 c 2,12,-1
 350 300 l 2,13,14
 249.995 300 249.995 300 250 200 c 1,15,-1
 950 200 l 1,16,-1
 950 0 l 1,17,-1
 50 0 l 1,0,-1
EndSplineSet
EndChar

StartChar: bracketleft
Encoding: 91 91 60
Width: 500
Flags: MW
HStem: 0 200<116.665 450 300 450 300 450> 600 200<283.335 300 300 450>
VStem: 50 200<233.335 250 250 550>
LayerCount: 2
Fore
SplineSet
450 0 m 1,0,-1
 150 0 l 2,1,2
 49.9951 0 49.9951 0 50 100 c 2,3,-1
 50 700 l 2,4,5
 50 800.005 50 800.005 150 800 c 2,6,-1
 450 800 l 1,7,-1
 450 600 l 1,8,-1
 300 600 l 2,9,10
 250.005 600 250.005 600 250 550 c 2,11,-1
 250 250 l 2,12,13
 250 200.005 250 200.005 300 200 c 2,14,-1
 450 200 l 1,15,-1
 450 0 l 1,0,-1
EndSplineSet
EndChar

StartChar: backslash
Encoding: 92 92 61
Width: 700
Flags: W
LayerCount: 2
Fore
SplineSet
251 800 m 1,0,-1
 50 800 l 1,1,-1
 451 0 l 1,2,-1
 650 0 l 1,3,-1
 251 800 l 1,0,-1
EndSplineSet
EndChar

StartChar: bracketright
Encoding: 93 93 62
Width: 500
Flags: MW
HStem: 0 200<50 200 200 216.665 50 350 50 200> 600 200<50 200 50 350>
VStem: 250 200<250 550 550 566.665>
LayerCount: 2
Fore
SplineSet
50 200 m 1,0,-1
 200 200 l 2,1,2
 249.995 200 249.995 200 250 250 c 2,3,-1
 250 550 l 2,4,5
 250 599.995 250 599.995 200 600 c 2,6,-1
 50 600 l 1,7,-1
 50 800 l 1,8,-1
 350 800 l 2,9,10
 450.005 800 450.005 800 450 700 c 2,11,-1
 450 100 l 2,12,13
 450 -0.00485229 450 -0.00485229 350 0 c 2,14,-1
 50 0 l 1,15,-1
 50 200 l 1,0,-1
EndSplineSet
EndChar

StartChar: asciicircum
Encoding: 94 94 63
Width: 700
Flags: W
HStem: 800 0<330 370>
LayerCount: 2
Fore
SplineSet
650 500 m 1,0,-1
 500 350 l 1,1,-1
 350 500 l 1,2,-1
 200 350 l 1,3,-1
 50 500 l 1,4,-1
 350 800 l 1,5,-1
 650 500 l 1,0,-1
EndSplineSet
EndChar

StartChar: underscore
Encoding: 95 95 64
Width: 900
Flags: MW
HStem: 0 200<50 850 50 850>
LayerCount: 2
Fore
SplineSet
850 0 m 1,0,-1
 50 0 l 1,1,-1
 50 200 l 1,2,-1
 850 200 l 1,3,-1
 850 0 l 1,0,-1
EndSplineSet
EndChar

StartChar: quoteleft
Encoding: 8216 8216 65
Width: 300
Flags: MW
VStem: 0 300
LayerCount: 2
Fore
SplineSet
0 900 m 1,0,-1
 100 600 l 1,1,-1
 300 600 l 1,2,-1
 200 900 l 1,3,-1
 0 900 l 1,0,-1
EndSplineSet
EndChar

StartChar: a
Encoding: 97 97 66
Width: 1200
Flags: MW
HStem: 0 200<216.665 850 300 850> 300 200<283.335 850 300 850> 600 200<50 850 50 850>
VStem: 950 200<333.335 466.665>
LayerCount: 2
Fore
SplineSet
50 250 m 132,-1,1
 50 500.005 50 500.005 300 500 c 6,2,-1
 850 500 l 5,3,-1
 850 300 l 5,4,-1
 300 300 l 6,5,6
 250.005 300 250.005 300 250 250 c 132,-1,7
 250 200.005 250 200.005 300 200 c 6,8,-1
 850 200 l 6,9,10
 950.005 200 950.005 200 950 400 c 132,-1,11
 950 599.995 950 599.995 850 600 c 6,12,-1
 50 600 l 5,13,-1
 50 800 l 5,14,-1
 850 800 l 6,15,16
 1150 800 1150 800 1150 400 c 132,-1,17
 1150 -0.00500488 1150 -0.00500488 850 0 c 6,18,-1
 300 0 l 6,19,0
 49.995 0 49.995 0 50 250 c 132,-1,1
EndSplineSet
EndChar

StartChar: b
Encoding: 98 98 67
Width: 1200
Flags: W
HStem: 0 200<279.688 920.312> 400 200<300 920.312> 780 20G<50 250>
VStem: 50 200<229.688 800> 950 200<229.688 370.312>
LayerCount: 2
Fore
SplineSet
1150 300 m 132,-1,1
 1150 0 1150 0 850 0 c 6,2,-1
 350 0 l 6,3,4
 50 0 50 0 50 300 c 6,5,-1
 50 800 l 5,6,-1
 250 800 l 5,7,-1
 250 300 l 6,8,9
 250 199.995 250 199.995 350 200 c 6,10,-1
 850 200 l 6,11,12
 950.005 200 950.005 200 950 300 c 132,-1,13
 950 400.005 950 400.005 850 400 c 6,14,-1
 300 400 l 5,15,-1
 300 600 l 5,16,-1
 850 600 l 6,17,0
 1150 600 1150 600 1150 300 c 132,-1,1
EndSplineSet
EndChar

StartChar: c
Encoding: 99 99 68
Width: 900
Flags: W
HStem: 0 200<296.387 850> 600 200<296.387 850>
VStem: 50 200<264.062 535.939>
LayerCount: 2
Fore
SplineSet
850 0 m 5,0,-1
 350 0 l 6,1,2
 50 0 50 0 50 400 c 132,-1,3
 50 800.005 50 800.005 350 800 c 6,4,-1
 850 800 l 5,5,-1
 850 600 l 5,6,-1
 350 600 l 6,7,8
 249.995 600 249.995 600 250 400 c 132,-1,9
 250 200.005 250 200.005 350 200 c 6,10,-1
 850 200 l 5,11,-1
 850 0 l 5,0,-1
EndSplineSet
EndChar

StartChar: d
Encoding: 100 100 69
Width: 1200
Flags: W
HStem: 0 200<279.688 920.312> 400 200<279.688 900> 780 20G<950 1150>
VStem: 50 200<229.688 370.312> 950 200<229.688 800>
LayerCount: 2
Fore
SplineSet
350 600 m 6,0,-1
 900 600 l 5,1,-1
 900 400 l 5,2,-1
 350 400 l 6,3,4
 249.995 400 249.995 400 250 300 c 132,-1,5
 250 199.995 250 199.995 350 200 c 6,6,-1
 850 200 l 6,7,8
 950.005 200 950.005 200 950 300 c 6,9,-1
 950 800 l 5,10,-1
 1150 800 l 5,11,-1
 1150 300 l 6,12,13
 1150 0 1150 0 850 0 c 6,14,-1
 350 0 l 6,15,16
 50 0 50 0 50 300 c 132,-1,17
 50 600 50 600 350 600 c 6,0,-1
EndSplineSet
EndChar

StartChar: e
Encoding: 101 101 70
Width: 1100
Flags: W
HStem: 0 200<296.397 1100.01> 300 200<350.01 887.545> 600 200<296.397 887.548>
VStem: 50.0098 200<264.369 535.939> 900.01 200<512.463 587.537>
CounterMasks: 1 e0
LayerCount: 2
Fore
SplineSet
1100.01 550 m 132,-1,1
 1100 300 1100 300 850.01 300 c 6,2,-1
 350.01 300 l 5,3,-1
 350.01 500 l 5,4,-1
 850.01 500 l 262,5,6
 900.005 500 900.005 500 900.01 550 c 132,-1,7
 900.01 599.995 900.01 599.995 850.01 600 c 6,8,-1
 350.01 600 l 6,9,10
 250.005 600 250.005 600 250.01 400 c 132,-1,11
 250.01 200.005 250.01 200.005 350.01 200 c 6,12,-1
 1100.01 200 l 5,13,-1
 1100.01 0 l 5,14,-1
 350.01 0 l 5,15,16
 50.01 1.00488 50.01 1.00488 50.0098 400 c 4,17,18
 50.0098 800.005 50.0098 800.005 350.01 800 c 6,19,-1
 850.01 800 l 6,20,0
 1100.02 800 1100.02 800 1100.01 550 c 132,-1,1
EndSplineSet
EndChar

StartChar: f
Encoding: 102 102 71
Width: 900
Flags: W
HStem: 0 21G<150 350> 200 200<50 150 350 650> 600 200<387.964 850>
VStem: 150 200<0 200 400 570.093>
LayerCount: 2
Fore
SplineSet
450 800 m 6,0,1
 850 800 l 5,2,-1
 850 600 l 5,3,-1
 456 600 l 6,4,5
 350 600 350 600 350 500 c 6,6,-1
 350 400 l 5,7,-1
 650 400 l 5,8,-1
 650 200 l 5,9,-1
 350 200 l 5,10,-1
 350 0 l 5,11,-1
 150 0 l 5,12,-1
 150 200 l 5,13,-1
 50 200 l 5,14,-1
 50 400 l 5,15,-1
 150 400 l 5,16,-1
 150 500 l 6,17,18
 150 800 150 800 450 800 c 6,0,1
EndSplineSet
EndChar

StartChar: g
Encoding: 103 103 72
Width: 1150
Flags: W
HStem: 0 200<50 853.614> 300 200<262.462 800> 600 200<262.462 853.614>
VStem: 50.0098 199.99<512.463 587.537> 900 200.003<264.369 535.939>
CounterMasks: 1 e0
LayerCount: 2
Fore
SplineSet
50.0098 550 m 132,-1,1
 49.9902 800 49.9902 800 300 800 c 6,2,-1
 800 800 l 6,3,4
 1100 800.005 1100 800.005 1100 400 c 4,5,6
 1100 1.00488 1100 1.00488 800 0 c 5,7,-1
 50 0 l 5,8,-1
 50 200 l 5,9,-1
 800 200 l 6,10,11
 900 200.005 900 200.005 900 400 c 132,-1,12
 900.005 600 900.005 600 800 600 c 6,13,-1
 300 600 l 6,14,15
 250 599.995 250 599.995 250 550 c 132,-1,16
 250.005 500 250.005 500 300 500 c 6,17,-1
 800 500 l 5,18,-1
 800 300 l 5,19,-1
 300 300 l 6,20,0
 49.9902 299.995 49.9902 299.995 50.0098 550 c 132,-1,1
EndSplineSet
EndChar

StartChar: i
Encoding: 105 105 74
Width: 300
Flags: MW
HStem: 0 21G<50 250 50 50> 780 20G<50 250 250 250>
VStem: 50 200<0 800>
LayerCount: 2
Fore
SplineSet
250 0 m 1,0,-1
 50 0 l 1,1,-1
 50 800 l 1,2,-1
 250 800 l 1,3,-1
 250 0 l 1,0,-1
EndSplineSet
EndChar

StartChar: l
Encoding: 108 108 77
Width: 500
Flags: W
HStem: 0 200<314.062 450> 780 20G<50 250>
VStem: 50 200<246.387 800>
LayerCount: 2
Fore
SplineSet
50 800 m 1,0,-1
 250 800 l 1,1,-1
 250 300 l 2,2,3
 250 200 250 200 450 200 c 1,4,-1
 450 0 l 1,5,6
 50 0 50 0 50 300 c 2,7,-1
 50 800 l 1,0,-1
EndSplineSet
EndChar

StartChar: m
Encoding: 109 109 78
Width: 1300
Flags: W
HStem: 0 21G<49.9902 249.99 549.99 749.99 1049.99 1249.99> 600 200<308.529 490.127 811.125 991.396>
VStem: 49.9902 200<0 541.406> 549.99 200<0 541.406> 1049.99 200<0 541.406>
LayerCount: 2
Fore
SplineSet
1250 450 m 2,0,-1
 1249.99 0 l 1,1,-1
 1049.99 0 l 1,2,-1
 1049.99 450 l 2,3,4
 1049.99 600 1049.99 600 899.99 600 c 128,-1,5
 749.99 600 749.99 600 749.99 450 c 2,6,-1
 749.99 0 l 1,7,-1
 549.99 0 l 1,8,-1
 549.99 450 l 2,9,10
 549.99 600 549.99 600 399.99 600 c 128,-1,11
 249.99 600 249.99 600 249.99 450 c 2,12,-1
 249.99 0 l 1,13,-1
 49.9902 0 l 1,14,-1
 49.9902 450 l 2,15,16
 49.9902 799.995 49.9902 799.995 399.99 800 c 0,17,18
 549.99 800 549.99 800 649.99 700 c 1,19,20
 749.995 800.005 749.995 800.005 899.99 800 c 0,21,22
 1249.98 800 1249.98 800 1250 450 c 2,0,-1
EndSplineSet
EndChar

StartChar: n
Encoding: 110 110 79
Width: 800
Flags: MW
LayerCount: 2
Fore
SplineSet
750 450 m 2,0,-1
 750 0 l 1,1,-1
 550 0 l 1,2,-1
 550 450 l 2,3,4
 550 600 550 600 400 600 c 128,-1,5
 250 600 250 600 250 450 c 2,6,-1
 250 0 l 1,7,-1
 50 0 l 1,8,-1
 50 450 l 2,9,10
 50 799.995 50 799.995 400 800 c 128,-1,11
 749.995 800 749.995 800 750 450 c 2,0,-1
EndSplineSet
EndChar

StartChar: p
Encoding: 112 112 81
Width: 1200
Flags: MW
HStem: 0 21G<50 250 50 50> 200 200<300 850 300 850> 600 200<316.665 850 350 850>
VStem: 50 200<0 500 0 600> 950 200<466.665 533.335>
LayerCount: 2
Fore
SplineSet
850 200 m 2,0,-1
 300 200 l 1,1,-1
 300 400 l 1,2,-1
 850 400 l 2,3,4
 950.005 400 950.005 400 950 500 c 128,-1,5
 950 600.005 950 600.005 850 600 c 2,6,-1
 350 600 l 2,7,8
 249.995 600 249.995 600 250 500 c 2,9,-1
 250 0 l 1,10,-1
 50 0 l 1,11,-1
 50 500 l 2,12,13
 50 800 50 800 350 800 c 2,14,-1
 850 800 l 2,15,16
 1150 800 1150 800 1150 500 c 128,-1,17
 1150 200 1150 200 850 200 c 2,0,-1
EndSplineSet
EndChar

StartChar: q
Encoding: 113 113 82
Width: 1300
Flags: MW
HStem: 0 200<50.0098 950.01 50.0098 950.01> 600 200<416.665 950.01 450 950>
VStem: 150 200<250 400 250 533.335> 1050 200
LayerCount: 2
Fore
SplineSet
450 800 m 2,0,-1
 950.01 800 l 2,1,2
 1250.01 800 1250.01 800 1250.01 400 c 128,-1,3
 1250.01 -0.00500488 1250.01 -0.00500488 950.01 0 c 2,4,-1
 50.0098 0 l 1,5,-1
 50.0098 200 l 1,6,-1
 950.01 200 l 2,7,8
 1050.02 200 1050.02 200 1050 400 c 128,-1,9
 1050 599.995 1050 599.995 950 600 c 2,10,-1
 450 600 l 2,11,12
 349.995 600 349.995 600 350 400 c 2,13,-1
 350 250 l 1,14,-1
 150 250 l 1,15,-1
 150 400 l 2,16,17
 150 800.005 150 800.005 450 800 c 2,0,-1
EndSplineSet
EndChar

StartChar: r
Encoding: 114 114 83
Width: 1200
Flags: W
HStem: 0 200<512.463 1150> 300 200<512.463 937.537> 600 200<262.463 937.537>
VStem: 50 200<0 587.537> 300 200<209.186 290.814> 950 200<509.186 590.814>
CounterMasks: 1 e0
LayerCount: 2
Fore
SplineSet
900 800 m 2,0,1
 1150 800 1150 800 1150 550 c 128,-1,2
 1150 300 1150 300 900 300 c 2,3,-1
 550 300 l 2,4,5
 500 300 500 300 500 250 c 128,-1,6
 500 200 500 200 550 200 c 2,7,-1
 1150 200 l 1,8,-1
 1150 0 l 1,9,-1
 550 0 l 2,10,11
 300 0 300 0 300 250 c 128,-1,12
 300 500 300 500 550 500 c 2,13,-1
 900 500 l 2,14,15
 950 500 950 500 950 550 c 128,-1,16
 950 600 950 600 900 600 c 2,17,-1
 300 600 l 2,18,19
 250 600 250 600 250 551 c 2,20,-1
 250 0 l 1,21,-1
 50 0 l 1,22,-1
 50 550 l 2,23,24
 50 800 50 800 300 800 c 2,25,-1
 900 800 l 2,0,1
EndSplineSet
EndChar

StartChar: s
Encoding: 115 115 84
Width: 1000
Flags: MW
HStem: 0 200<50 700 50 700> 300 200<216.665 700 300 700> 600 200<283.335 950 300 950>
LayerCount: 2
Fore
SplineSet
950 800 m 1,0,-1
 950 600 l 1,1,-1
 300 600 l 2,2,3
 250.005 600 250.005 600 250 550 c 128,-1,4
 250 500.005 250 500.005 300 500 c 2,5,-1
 700 500 l 2,6,7
 950.005 500 950.005 500 950 250 c 128,-1,8
 950 -0.00485229 950 -0.00485229 700 0 c 2,9,-1
 50 0 l 1,10,-1
 50 200 l 1,11,-1
 700 200 l 2,12,13
 749.995 200 749.995 200 750 250 c 128,-1,14
 750 299.995 750 299.995 700 300 c 2,15,-1
 300 300 l 2,16,17
 49.995 300 49.995 300 50 550 c 128,-1,18
 50 800.005 50 800.005 300 800 c 2,19,-1
 950 800 l 1,0,-1
EndSplineSet
EndChar

StartChar: t
Encoding: 116 116 85
Width: 900
Flags: MW
HStem: 0 200<250 850 350 850> 400 200<250 850 250 850> 780 20G<50 250 250 250>
VStem: 50 200<300 400 600 800>
LayerCount: 2
Fore
SplineSet
350 0 m 6,0,1
 50 0 50 0 50 300 c 2,2,-1
 50 800 l 1,3,-1
 250 800 l 1,4,-1
 250 600 l 1,5,-1
 850 600 l 1,6,-1
 850 400 l 1,7,-1
 250 400 l 1,8,-1
 250 300 l 2,9,10
 250 199.995 250 199.995 350 200 c 2,11,-1
 850 200 l 1,12,-1
 850 0 l 1,13,-1
 350 0 l 6,0,1
EndSplineSet
EndChar

StartChar: u
Encoding: 117 117 86
Width: 800
Flags: W
HStem: 0 200<308.539 491.461> 780 20G<50 250 550 750>
VStem: 50 200<258.594 800> 550 200<258.594 800>
LayerCount: 2
Fore
SplineSet
50 350 m 2,0,-1
 50 800 l 1,1,-1
 250 800 l 1,2,-1
 250 350 l 2,3,4
 250 200 250 200 400 200 c 128,-1,5
 550 200 550 200 550 350 c 2,6,-1
 550 800 l 1,7,-1
 750 800 l 1,8,-1
 750 350 l 2,9,10
 750 0.00488281 750 0.00488281 400 0 c 128,-1,11
 50.0049 0 50.0049 0 50 350 c 2,0,-1
EndSplineSet
EndChar

StartChar: v
Encoding: 118 118 87
Width: 900
Flags: MW
HStem: 0 21G<400 500> 780 20G<50 250 250 250 650 850 850 850>
LayerCount: 2
Fore
SplineSet
850 800 m 1,0,-1
 650 200 l 1,1,2
 600.005 0.00485229 600.005 0.00485229 450 0 c 128,-1,3
 300 0 300 0 250 200 c 1,4,-1
 50 800 l 1,5,-1
 250 800 l 1,6,-1
 419 230 l 1,7,8
 450 180 450 180 480 230 c 1,9,-1
 650 800 l 1,10,-1
 850 800 l 1,0,-1
EndSplineSet
EndChar

StartChar: w
Encoding: 119 119 88
Width: 1300
Flags: MW
HStem: 0 200<350 450 350 450 850 950> 600.67 16.52 692.4 16.52 740.84 17.09 780 20G<50 250 250 250 550 750 750 750 1050 1250 1250 1250>
VStem: 50 200<350 800> 550 200<350 800> 797.33 16.53 855.75 27.07 919 27.64 980.84 16.53 1050 200<350 800>
LayerCount: 2
Fore
SplineSet
50 350 m 2,0,-1
 50 800 l 1,1,-1
 250 800 l 1,2,-1
 250 350 l 2,3,4
 250 200 250 200 400 200 c 128,-1,5
 550 200 550 200 550 350 c 2,6,-1
 550 800 l 1,7,-1
 750 800 l 1,8,-1
 750 350 l 2,9,10
 750 200 750 200 900 200 c 128,-1,11
 1050 200 1050 200 1050 350 c 2,12,-1
 1050 800 l 1,13,-1
 1250 800 l 1,14,-1
 1250 350 l 2,15,16
 1250 0.00500488 1250 0.00500488 900 0 c 0,17,18
 750 0 750 0 650 100 c 1,19,20
 549.995 -0.00485229 549.995 -0.00485229 400 0 c 0,21,22
 50.005 0 50.005 0 50 350 c 2,0,-1
EndSplineSet
EndChar

StartChar: x
Encoding: 120 120 89
Width: 900
Flags: MW
HStem: 0 200<50 304.055 595.947 850> 600 200<50 304.053 595.945 850>
VStem: 350 200<256.448 543.552>
LayerCount: 2
Fore
SplineSet
550 400 m 128,-1,1
 550 200.005 550 200.005 650 200 c 2,2,-1
 850 200 l 1,3,-1
 850 0 l 1,4,-1
 650 0 l 2,5,6
 530 0 530 0 450 140 c 1,7,8
 370.005 0.00485229 370.005 0.00485229 250 0 c 2,9,-1
 50 0 l 1,10,-1
 50 200 l 1,11,-1
 250 200 l 2,12,13
 350.005 200 350.005 200 350 400 c 128,-1,14
 350 599.995 350 599.995 250 600 c 2,15,-1
 50 600 l 1,16,-1
 50 800 l 1,17,-1
 250 800 l 2,18,19
 370 800 370 800 450 663 c 1,20,21
 529.995 799.995 529.995 799.995 650 800 c 2,22,-1
 850 800 l 1,23,-1
 850 600 l 1,24,-1
 650 600 l 2,25,0
 549.995 600 549.995 600 550 400 c 128,-1,1
EndSplineSet
EndChar

StartChar: y
Encoding: 121 121 90
Width: 900
Flags: MW
HStem: 0 21G<350 350 350 550> 600 16.52 691.74 16.52 740.17 17.09 780 20G 783.48 16.52
VStem: 50 200<599.99 799.99> 350 200<0 200 0 200> 350.17 16.53 650 200<599.99 799.99>
LayerCount: 2
Fore
SplineSet
350 0 m 1,0,-1
 350 200 l 1,1,2
 50 249.995 50 249.995 50 599.99 c 2,3,-1
 50 799.99 l 1,4,-1
 250 799.99 l 1,5,-1
 250 599.99 l 2,6,7
 250 399.995 250 399.995 450 399.99 c 128,-1,8
 649.995 399.99 649.995 399.99 650 599.99 c 2,9,-1
 650 799.99 l 1,10,-1
 850 799.99 l 1,11,-1
 850 599.99 l 2,12,13
 850 249.995 850 249.995 550 200 c 1,14,-1
 550 0 l 1,15,-1
 350 0 l 1,0,-1
EndSplineSet
EndChar

StartChar: z
Encoding: 122 122 91
Width: 900
Flags: MW
HStem: 0 200<216.665 950 300 950> 300 200<283.335 700 300 700> 600 200<50 700 50 700>
LayerCount: 2
Fore
SplineSet
700 800 m 2,0,1
 950.005 800 950.005 800 950 550 c 128,-1,2
 950 299.995 950 299.995 700 300 c 2,3,-1
 300 300 l 2,4,5
 250.005 300 250.005 300 250 250 c 128,-1,6
 250 200.005 250 200.005 300 200 c 2,7,-1
 950 200 l 1,8,-1
 950 0 l 1,9,-1
 300 0 l 2,10,11
 49.995 0 49.995 0 50 250 c 128,-1,12
 50 500.005 50 500.005 300 500 c 2,13,-1
 700 500 l 2,14,15
 749.995 500 749.995 500 750 550 c 128,-1,16
 750 599.995 750 599.995 700 600 c 2,17,-1
 50 600 l 1,18,-1
 50 800 l 1,19,-1
 700 800 l 2,0,1
EndSplineSet
EndChar

StartChar: braceleft
Encoding: 123 123 92
Width: 500
Flags: MW
HStem: 0 21G<283.335 350 350 450> 780 20G<350 450 450 450>
LayerCount: 2
Fore
SplineSet
450 0 m 1,0,-1
 350 0 l 2,1,2
 150.005 0 150.005 0 150 200 c 2,3,-1
 150 250 l 2,4,5
 150 299.995 150 299.995 100 300 c 128,-1,6
 50.0048 300 50.0048 300 50 400 c 128,-1,7
 50 500.005 50 500.005 100 500 c 128,-1,8
 149.995 500 149.995 500 150 550 c 2,9,-1
 150 600 l 2,10,11
 150 799.995 150 799.995 350 800 c 2,12,-1
 450 800 l 1,13,-1
 450 600 l 1,14,15
 349.995 600 349.995 600 350 500 c 0,16,17
 350 420.005 350 420.005 300 420 c 0,18,19
 280.005 420 280.005 420 280 400 c 128,-1,20
 280 380.005 280 380.005 300 380 c 0,21,22
 349.995 380 349.995 380 350 300 c 0,23,24
 350 199.995 350 199.995 450 200 c 1,25,-1
 450 0 l 1,0,-1
EndSplineSet
EndChar

StartChar: bar
Encoding: 124 124 93
Width: 200
Flags: MW
HStem: 0 21G<50 150 50 50> 780 20G<50 150 150 150>
VStem: 50 100<0 800>
LayerCount: 2
Fore
SplineSet
150 0 m 1,0,-1
 50 0 l 1,1,-1
 50 800 l 1,2,-1
 150 800 l 1,3,-1
 150 0 l 1,0,-1
EndSplineSet
EndChar

StartChar: braceright
Encoding: 125 125 94
Width: 500
Flags: MW
HStem: 0 21G<50 150 50 50> 780 20G<50 150 150 216.665>
LayerCount: 2
Fore
SplineSet
50 200 m 1,0,1
 150.005 200 150.005 200 150 300 c 0,2,3
 150 379.995 150 379.995 200 380 c 0,4,5
 219.995 380 219.995 380 220 400 c 128,-1,6
 220 419.995 220 419.995 200 420 c 0,7,8
 150.005 420 150.005 420 150 500 c 0,9,10
 150 600.005 150 600.005 50 600 c 1,11,-1
 50 800 l 1,12,-1
 150 800 l 2,13,14
 349.995 800 349.995 800 350 600 c 2,15,-1
 350 550 l 2,16,17
 350 500.005 350 500.005 400 500 c 128,-1,18
 449.995 500 449.995 500 450 400 c 128,-1,19
 450 299.995 450 299.995 400 300 c 128,-1,20
 350.005 300 350.005 300 350 250 c 2,21,-1
 350 200 l 2,22,23
 350 0.00485229 350 0.00485229 150 0 c 2,24,-1
 50 0 l 1,25,-1
 50 200 l 1,0,1
EndSplineSet
EndChar

StartChar: asciitilde
Encoding: 126 126 95
Width: 500
Flags: MW
HStem: 300 200<49.9805 249.99 49.9805 249.99 249.99 450>
LayerCount: 2
Fore
SplineSet
450 500 m 1,0,-1
 450 300 l 1,1,2
 349.995 250.005 349.995 250.005 249.99 300 c 128,-1,3
 149.985 349.995 149.985 349.995 49.9805 300 c 1,4,-1
 49.9805 400 l 1,5,-1
 49.9805 500 l 1,6,7
 149.985 549.995 149.985 549.995 249.99 500 c 128,-1,8
 349.995 450.005 349.995 450.005 450 500 c 1,0,-1
EndSplineSet
EndChar

StartChar: exclamdown
Encoding: 161 161 96
Width: 300
Flags: MW
VStem: 352 200<0 550 0 550 686.335 713.665>
LayerCount: 2
Fore
SplineSet
250 0 m 1,0,-1
 50 0 l 1,1,-1
 50 550 l 1,2,-1
 250 550 l 1,3,-1
 250 0 l 1,0,-1
164.491 659.704 m 1,4,-1
 164.492 691.623 l 1,5,-1
 151.381 691.623 l 2,6,7
 128.297 691.623 128.297 691.623 128.301 676.233 c 0,8,9
 128.301 659.704 128.301 659.704 152.812 659.704 c 2,10,-1
 164.491 659.704 l 1,4,-1
191.562 642.623 m 1,11,-1
 147.97 642.634 l 2,12,13
 100.675 642.645 100.675 642.645 100.67 674.254 c 0,14,15
 100.67 697.894 100.67 697.894 124.892 703.884 c 1,16,-1
 100.102 753.453 l 1,17,-1
 130.301 753.453 l 1,18,-1
 151.381 708.153 l 1,19,-1
 164.492 708.153 l 1,20,-1
 164.492 753.453 l 1,21,-1
 191.562 753.453 l 1,22,-1
 191.562 642.623 l 1,11,-1
149.97 616.424 m 0,23,24
 184.455 616.451 184.455 616.451 208.11 640.092 c 0,25,26
 233.476 665.441 233.476 665.441 233.47 699.912 c 0,27,28
 233.47 733.812 233.47 733.812 209.249 758.021 c 0,29,30
 184.454 783.372 184.454 783.372 150.27 783.372 c 0,31,32
 116.639 783.372 116.639 783.372 90.9902 758.872 c 0,33,34
 66.4805 735.502 66.4805 735.502 66.4805 701.604 c 0,35,36
 66.4805 665.708 66.4805 665.708 90.1289 641.493 c 0,37,38
 114.929 616.424 114.929 616.424 149.97 616.424 c 0,23,24
150.26 599.933 m 0,39,40
 108.092 599.95 108.092 599.95 78.4512 629.86 c 0,41,42
 49.9512 658.631 49.9512 658.631 49.9512 700.23 c 0,43,44
 49.9512 742.396 49.9512 742.396 79.5908 770.882 c 0,45,46
 109.517 799.937 109.517 799.937 150.261 799.941 c 0,47,48
 180.183 799.941 180.183 799.941 205.83 782.842 c 0,49,50
 231.196 765.456 231.196 765.456 242.59 737.831 c 0,51,52
 250 719.881 250 719.881 250 700.223 c 0,53,54
 250 672.593 250 672.593 235.47 648.082 c 0,55,56
 221.788 625.009 221.788 625.009 199.281 612.473 c 0,57,58
 177.05 599.932 177.05 599.932 150.26 599.933 c 0,39,40
EndSplineSet
EndChar

StartChar: cent
Encoding: 162 162 97
Width: 600
Flags: MW
HStem: 0 21G<300 400 300 300> 150 100<183.335 300 250 300 400 550> 550 100<216.665 300 250 300 400 550> 780 20G<300 400 400 400>
VStem: 50 100<350 450 350 483.335> 300 100<0 150 0 150 250 550 650 800>
LayerCount: 2
Fore
SplineSet
400 250 m 1,0,-1
 550 250 l 1,1,-1
 550 150 l 1,2,-1
 400 150 l 1,3,-1
 400 0 l 1,4,-1
 300 0 l 1,5,-1
 300 150 l 1,6,-1
 250 150 l 2,7,8
 50.005 150 50.005 150 50 400 c 128,-1,9
 50 650.005 50 650.005 250 650 c 2,10,-1
 300 650 l 1,11,-1
 300 800 l 1,12,-1
 400 800 l 1,13,-1
 400 650 l 1,14,-1
 550 650 l 1,15,-1
 550 550 l 1,16,-1
 400 550 l 1,17,-1
 400 250 l 1,0,-1
300 550 m 1,18,-1
 250 550 l 2,19,20
 149.995 550 149.995 550 150 400 c 128,-1,21
 150 250 150 250 250 250 c 2,22,-1
 300 250 l 1,23,-1
 300 550 l 1,18,-1
EndSplineSet
EndChar

StartChar: sterling
Encoding: 163 163 98
Width: 1000
Flags: W
HStem: 0.00878906 149.991<49.9697 227.889 396.501 790.296> 350 150.03<50.0195 250 399.981 599.992> 625.001 175.039<415.021 849.941>
VStem: 250 149.981<172.637 350 500.03 611.592>
LayerCount: 2
Fore
SplineSet
449.991 800.04 m 2,0,-1
 849.941 800.04 l 1,1,-1
 849.941 625.001 l 1,2,-1
 455.981 625.001 l 2,3,4
 436.349 625.001 436.349 625.001 418.165 608.937 c 128,-1,5
 399.981 592.873 399.981 592.873 399.981 575.012 c 2,6,-1
 399.981 500.03 l 1,7,-1
 599.992 500.03 l 1,8,-1
 599.992 350 l 1,9,-1
 399.981 350 l 1,10,-1
 399.981 200.99 l 2,11,12
 399.981 174.06 399.981 174.06 396.501 149.88 c 1,13,-1
 699.961 150.01 l 2,14,15
 704.893 150.012 704.893 150.012 714.228 149.966 c 0,16,17
 735.997 149.86 735.997 149.86 745.774 150.213 c 128,-1,18
 755.55 150.567 755.55 150.567 768.814 152.932 c 128,-1,19
 782.078 155.298 782.078 155.298 787.245 160.511 c 128,-1,20
 792.413 165.723 792.413 165.723 796.329 175.414 c 128,-1,21
 800.245 185.105 800.245 185.105 799.961 200.029 c 1,22,-1
 949.951 200.029 l 1,23,24
 949.951 75.2799 949.951 75.2799 914.639 37.4688 c 0,25,26
 884.368 5.05562 884.368 5.05562 793.299 1.18163 c 0,27,28
 766.593 0.0455728 766.593 0.0455728 699.961 0.0488281 c 2,29,-1
 49.9697 0.00878906 l 1,30,-1
 49.9697 150 l 1,31,-1
 150 150 l 2,32,33
 173 150 173 150 183 151 c 128,-1,34
 193 152 193 152 207.5 156.5 c 128,-1,35
 222 161 222 161 229 171.5 c 128,-1,36
 236 182 236 182 242 201.5 c 128,-1,37
 248 221 248 221 250 250 c 1,38,-1
 250 350.04 l 1,39,-1
 50.0195 350 l 1,40,-1
 50.0195 500.03 l 1,41,-1
 250 500.03 l 1,42,-1
 250 625.012 l 2,43,44
 250 708.767 250 708.767 301.539 754.404 c 128,-1,45
 353.079 800.04 353.079 800.04 449.991 800.04 c 2,0,-1
EndSplineSet
EndChar

StartChar: fraction
Encoding: 8260 8260 99
Width: 750
Flags: W
LayerCount: 2
Fore
SplineSet
50 0 m 1,0,-1
 300 0 l 1,1,-1
 700 800 l 1,2,-1
 450 800 l 1,3,-1
 50 0 l 1,0,-1
EndSplineSet
EndChar

StartChar: florin
Encoding: 402 402 100
Width: 900
Flags: MW
HStem: -200.03 200.03 249.99 200.02 729.37 200
VStem: 300.01 199.99 800.01 200
LayerCount: 2
Fore
SplineSet
250.01 400.001 m 1,0,-1
 250.02 449.979 l 1,1,-1
 250.02 529.37 l 2,2,3
 250.02 596.943 250.02 596.943 267.355 646.89 c 128,-1,4
 284.691 696.838 284.691 696.838 311.877 725.654 c 128,-1,5
 339.063 754.471 339.063 754.471 380.149 771.713 c 128,-1,6
 421.234 788.956 421.234 788.956 460.675 794.478 c 128,-1,7
 500.116 800 500.116 800 550.02 800 c 128,-1,8
 599.913 800 599.913 800 639.35 794.478 c 128,-1,9
 678.787 788.956 678.787 788.956 719.874 771.713 c 128,-1,10
 760.962 754.47 760.962 754.47 788.152 725.654 c 128,-1,11
 815.342 696.839 815.342 696.839 832.681 646.89 c 128,-1,12
 850.02 596.942 850.02 596.942 850.02 529.37 c 2,13,-1
 850.02 499.991 l 1,14,-1
 700.02 499.991 l 1,15,-1
 700 529 l 2,16,17
 700 598 700 598 659.5 624 c 128,-1,18
 619 650 619 650 550 650 c 0,19,20
 400 650 400 650 400 525 c 2,21,-1
 400.02 449.979 l 1,22,-1
 400.01 400 l 1,23,-1
 600.02 400 l 1,24,-1
 600.02 249.97 l 1,25,-1
 400.01 249.97 l 1,26,-1
 400.01 0 l 2,27,28
 400.01 -150 400.01 -150 250 -150 c 2,29,-1
 50 -150.029 l 1,30,-1
 50 0 l 1,31,-1
 200 0 l 2,32,33
 230.002 2.62283e-006 230.002 2.62283e-006 240.006 10.0008 c 128,-1,34
 250.01 20.0017 250.01 20.0017 250.01 50 c 2,35,-1
 250.01 249.98 l 1,36,-1
 50 249.97 l 1,37,-1
 50 400.001 l 1,38,-1
 250.01 400.001 l 1,0,-1
EndSplineSet
EndChar

StartChar: quotesingle
Encoding: 39 39 101
Width: 300
Flags: W
HStem: 500 300<50 250>
VStem: 50 200<500 800>
LayerCount: 2
Fore
SplineSet
250 500 m 5,0,-1
 50 500 l 5,1,-1
 50 800 l 5,2,-1
 250 800 l 5,3,-1
 250 500 l 5,0,-1
EndSplineSet
EndChar

StartChar: quotedblleft
Encoding: 8220 8220 102
Width: 600
Flags: W
HStem: 500 300<50 250 350 550>
VStem: 50 200<500 800> 350 200<500 800>
LayerCount: 2
Fore
SplineSet
250 500 m 1,0,-1
 50 500 l 1,1,-1
 50 800 l 1,2,-1
 250 800 l 1,3,-1
 250 500 l 1,0,-1
550 500 m 1,4,-1
 350 500 l 1,5,-1
 350 800 l 1,6,-1
 550 800 l 1,7,-1
 550 500 l 1,4,-1
EndSplineSet
EndChar

StartChar: periodcentered
Encoding: 183 183 104
Width: 400
Flags: MW
HStem: 400 300<200 200>
VStem: 50 300<550 550>
LayerCount: 2
Fore
SplineSet
238 588 m 1,0,-1
 350 550 l 1,1,-1
 238 513 l 1,2,-1
 200 400 l 1,3,-1
 163 513 l 1,4,-1
 50 550 l 1,5,-1
 163 588 l 1,6,-1
 200 700 l 1,7,-1
 238 588 l 1,0,-1
EndSplineSet
EndChar

StartChar: paragraph
Encoding: 182 182 105
Width: 500
Flags: MW
HStem: 100 24.99 200 24.99 575 24.99
VStem: 50.02 24.99 299.99 99.95 424.93 24.99
LayerCount: 2
Fore
SplineSet
250.01 599.99 m 128,-1,1
 333.023 600.002 333.023 600.002 391.509 541.502 c 0,2,3
 447.669 485.342 447.669 485.342 449.919 406.611 c 2,4,-1
 449.959 405.182 l 2,5,6
 449.999 403.915 449.999 403.915 449.999 400.021 c 0,7,8
 449.959 398.542 449.959 398.542 449.959 394.861 c 2,9,-1
 449.959 100.031 l 1,10,-1
 249.999 100.031 l 1,11,-1
 249.999 125.021 l 1,12,-1
 299.989 125.021 l 1,13,-1
 299.989 205.871 l 1,14,15
 276.195 200.031 276.195 200.031 250.01 200.031 c 0,16,17
 166.985 200.031 166.985 200.031 108.48 258.531 c 128,-1,18
 50.026 316.986 50.026 316.986 50.0205 400.011 c 128,-1,19
 50.0205 483.034 50.0205 483.034 108.48 541.49 c 128,-1,0
 166.98 599.99 166.98 599.99 250.01 599.99 c 128,-1,1
250.028 425.002 m 128,-1,21
 239.488 424.992 239.488 424.992 232.258 417.762 c 128,-1,22
 224.998 410.502 224.998 410.502 224.998 400.002 c 128,-1,23
 224.998 389.502 224.998 389.502 232.258 382.242 c 128,-1,24
 239.488 375.012 239.488 375.012 250.028 375.012 c 128,-1,25
 260.528 375.012 260.528 375.012 267.759 382.242 c 128,-1,26
 275.019 389.517 275.019 389.517 275.019 400.012 c 128,-1,27
 275.019 410.512 275.019 410.512 267.759 417.771 c 128,-1,20
 260.527 425.003 260.527 425.003 250.028 425.002 c 128,-1,21
424.948 394.082 m 1,28,-1
 424.969 404.581 l 2,29,30
 424.969 472.621 424.969 472.621 373.769 523.812 c 128,-1,31
 322.527 575.052 322.527 575.052 250.038 575.052 c 128,-1,32
 177.513 575.052 177.513 575.052 126.269 523.812 c 128,-1,33
 75.0281 472.57 75.0281 472.57 75.0283 400.042 c 128,-1,34
 75.0283 327.517 75.0283 327.517 126.269 276.272 c 128,-1,35
 177.509 225.032 177.509 225.032 250.038 225.032 c 0,36,37
 274.443 225.032 274.443 225.032 300.018 233.552 c 1,38,-1
 300.018 258.032 l 1,39,40
 276.974 250.013 276.974 250.013 250.047 250.013 c 0,41,42
 188.052 250.013 188.052 250.013 144.047 294.022 c 128,-1,43
 100.052 338.018 100.052 338.018 100.037 400.013 c 128,-1,44
 100.037 462.008 100.037 462.008 144.047 506.013 c 128,-1,45
 188.042 550.008 188.042 550.008 250.037 550.022 c 128,-1,46
 312.032 550.022 312.032 550.022 356.037 506.013 c 0,47,48
 397.647 464.401 397.647 464.401 399.878 406.603 c 2,49,-1
 399.958 403.872 l 2,50,51
 399.998 402.593 399.998 402.593 399.998 400.002 c 2,52,-1
 399.958 124.992 l 1,53,-1
 424.948 124.992 l 1,54,-1
 424.948 394.082 l 1,28,-1
EndSplineSet
EndChar

StartChar: bullet
Encoding: 8226 8226 106
Width: 500
Flags: W
HStem: 199.98 25<200.668 315.469> 574.98 25<184.764 315.256>
VStem: 50.0098 25<329.792 465.227> 425.01 25<334.734 465.227>
LayerCount: 2
Fore
SplineSet
250 425 m 132,-1,1
 239.5 425 239.5 425 232.25 417.75 c 132,-1,2
 225 410.5 225 410.5 225 400 c 132,-1,3
 225 389.5 225 389.5 232.25 382.25 c 132,-1,4
 239.5 375 239.5 375 250 375 c 132,-1,5
 260.5 375 260.5 375 267.75 382.25 c 132,-1,6
 275 389.5 275 389.5 275 400 c 132,-1,7
 275 410.5 275 410.5 267.75 417.75 c 132,-1,0
 260.5 425 260.5 425 250 425 c 132,-1,1
200 258 m 5,8,-1
 200.01 233.48 l 5,9,10
 225.5 224.98 225.5 224.98 250.01 224.98 c 4,11,12
 322.505 224.98 322.505 224.98 373.76 276.23 c 132,-1,13
 425.015 327.485 425.015 327.485 425.01 399.98 c 132,-1,14
 425.01 472.477 425.01 472.477 373.76 523.73 c 132,-1,15
 322.505 574.985 322.505 574.985 250.01 574.98 c 132,-1,16
 177.515 574.98 177.515 574.98 126.26 523.73 c 132,-1,17
 75.0047 472.477 75.0047 472.477 75.0098 399.98 c 132,-1,18
 75.0098 327.485 75.0098 327.485 100.01 299.99 c 5,19,-1
 100.01 399.99 l 6,20,21
 100.01 461.985 100.01 461.985 144.01 505.98 c 132,-1,22
 188.005 549.976 188.005 549.976 250 549.98 c 132,-1,23
 311.995 549.98 311.995 549.98 355.99 505.98 c 132,-1,24
 399.985 461.985 399.985 461.985 399.99 399.99 c 132,-1,25
 399.99 337.995 399.99 337.995 355.99 294 c 132,-1,26
 311.995 250.005 311.995 250.005 250 250 c 4,27,28
 223 250 223 250 200 258 c 5,8,-1
450.01 399.98 m 132,-1,30
 450.01 316.985 450.01 316.985 391.51 258.48 c 132,-1,31
 333.01 199.98 333.01 199.98 250.01 199.98 c 132,-1,32
 167.015 199.98 167.015 199.98 108.51 258.48 c 132,-1,33
 50.0097 316.98 50.0097 316.98 50.0098 399.98 c 132,-1,34
 50.0098 482.977 50.0098 482.977 108.51 541.48 c 132,-1,35
 167.01 599.98 167.01 599.98 250.01 599.98 c 132,-1,36
 333.005 599.98 333.005 599.98 391.51 541.48 c 132,-1,29
 450.01 482.98 450.01 482.98 450.01 399.98 c 132,-1,30
EndSplineSet
EndChar

StartChar: quotesinglbase
Encoding: 8218 8218 107
Width: 400
Flags: MW
HStem: 780 20G<200 400 400 400>
VStem: 100 300
LayerCount: 2
Fore
SplineSet
350 800 m 1,0,-1
 250 500 l 5,1,-1
 50 500 l 5,2,-1
 150 800 l 1,3,-1
 350 800 l 1,0,-1
EndSplineSet
EndChar

StartChar: quotedblbase
Encoding: 8222 8222 108
Width: 524
Flags: W
LayerCount: 2
Fore
SplineSet
462.56 50 m 1,0,-1
 524.771 300 l 1,1,-1
 324.771 300 l 1,2,-1
 262.57 50 l 1,3,4
 262.69 -50.0049 262.69 -50.0049 250.25 -100 c 1,5,-1
 400.25 -100 l 1,6,7
 412.685 -50.0048 412.685 -50.0048 462.56 50 c 1,0,-1
212.57 50 m 1,8,-1
 274.781 300 l 1,9,-1
 74.7812 300 l 1,10,-1
 12.5811 50 l 1,11,12
 12.7011 -50.0049 12.7011 -50.0049 0.260742 -100 c 1,13,-1
 150.261 -100 l 1,14,15
 162.696 -50.0048 162.696 -50.0048 212.57 50 c 1,8,-1
EndSplineSet
EndChar

StartChar: quotedblright
Encoding: 8221 8221 109
Width: 600
Flags: W
HStem: 500 300<50 250 350 550>
VStem: 50 200<500 800> 350 200<500 800>
LayerCount: 2
Fore
SplineSet
250 500 m 1,0,-1
 50 500 l 1,1,-1
 50 800 l 1,2,-1
 250 800 l 1,3,-1
 250 500 l 1,0,-1
550 500 m 1,4,-1
 350 500 l 1,5,-1
 350 800 l 1,6,-1
 550 800 l 1,7,-1
 550 500 l 1,4,-1
EndSplineSet
EndChar

StartChar: grave
Encoding: 96 96 112
Width: 350
Flags: MW
HStem: 780 20G<50 250 250 250>
VStem: 50 300
LayerCount: 2
Fore
SplineSet
250 800 m 1,0,-1
 350 500 l 1,1,-1
 150 500 l 1,2,-1
 50 800 l 1,3,-1
 250 800 l 1,0,-1
EndSplineSet
EndChar

StartChar: acute
Encoding: 180 180 113
Width: 400
Flags: W
LayerCount: 2
Fore
SplineSet
150 800 m 1,0,-1
 50 500 l 1,1,-1
 250 500 l 1,2,-1
 350 800 l 1,3,-1
 150 800 l 1,0,-1
EndSplineSet
EndChar

StartChar: circumflex
Encoding: 710 710 114
Width: 700
Flags: MW
HStem: 800 0<330 370>
LayerCount: 2
Fore
SplineSet
650 1000 m 5,0,-1
 500 850 l 5,1,-1
 350 1000 l 5,2,-1
 200 850 l 5,3,-1
 50 1000 l 5,4,-1
 350 1300 l 5,5,-1
 650 1000 l 5,0,-1
EndSplineSet
EndChar

StartChar: tilde
Encoding: 732 732 115
Width: 500
Flags: W
LayerCount: 2
Fore
SplineSet
450 980 m 5,0,-1
 450 821 l 5,1,2
 350 781 350 781 250 821 c 132,-1,3
 150 861 150 861 50 821 c 5,4,-1
 50 900 l 5,5,-1
 50 980 l 5,6,7
 150 1020 150 1020 250 980 c 132,-1,8
 350 940 350 940 450 980 c 5,0,-1
EndSplineSet
EndChar

StartChar: macron
Encoding: 175 175 116
Width: 800
Flags: MW
HStem: 900 200<0 800 0 800>
LayerCount: 2
Fore
SplineSet
800 900 m 1,0,-1
 0 900 l 1,1,-1
 0 1100 l 1,2,-1
 800 1100 l 1,3,-1
 800 900 l 1,0,-1
EndSplineSet
EndChar

StartChar: breve
Encoding: 728 728 117
Width: 1200
Flags: MW
VStem: 300 200<1133.33 1300 1250 1300> 700 200<1200 1300 1250 1300>
LayerCount: 2
Fore
SplineSet
600 1100 m 128,-1,1
 499.995 1100 499.995 1100 500 1250 c 2,2,-1
 500 1300 l 1,3,-1
 300 1300 l 1,4,-1
 300 1250 l 2,5,6
 300 900.005 300 900.005 600 900 c 128,-1,7
 900 900 900 900 900 1250 c 2,8,-1
 900 1300 l 1,9,-1
 700 1300 l 1,10,-1
 700 1250 l 2,11,0
 700 1100 700 1100 600 1100 c 128,-1,1
EndSplineSet
EndChar

StartChar: ring
Encoding: 730 730 118
Width: 299
Flags: MW
HStem: 800 31.24 881.23 31.24
VStem: 50 40.57 209.64 39.36
LayerCount: 2
Fore
SplineSet
149.9 912.47 m 128,-1,1
 193.496 912.482 193.496 912.482 221.261 895.958 c 128,-1,2
 249.011 879.443 249.011 879.443 249.011 856.248 c 128,-1,3
 249.011 833.058 249.011 833.058 221.261 816.528 c 128,-1,4
 193.511 799.999 193.511 799.999 149.9 799.999 c 128,-1,5
 106.22 799.999 106.22 799.999 78.1104 816.549 c 128,-1,6
 49.9999 833.094 49.9999 833.094 50 856.239 c 128,-1,7
 50 879.384 50 879.384 78.1104 895.93 c 128,-1,0
 106.221 912.475 106.221 912.475 149.9 912.47 c 128,-1,1
150 881.237 m 128,-1,9
 126.508 881.248 126.508 881.248 108.54 874.178 c 128,-1,10
 90.5854 867.113 90.5854 867.113 90.5801 856.268 c 128,-1,11
 90.5801 845.419 90.5801 845.419 108.54 838.337 c 128,-1,12
 126.495 831.257 126.495 831.257 150 831.257 c 128,-1,13
 173.535 831.257 173.535 831.257 191.581 838.337 c 128,-1,14
 209.631 845.419 209.631 845.419 209.631 856.257 c 128,-1,15
 209.631 867.102 209.631 867.102 191.581 874.167 c 128,-1,8
 173.523 881.237 173.523 881.237 150 881.237 c 128,-1,9
EndSplineSet
EndChar

StartChar: caron
Encoding: 711 711 119
Width: 1300
Flags: MW
HStem: 900 400<350 650>
LayerCount: 2
Fore
SplineSet
950 1300 m 1,0,-1
 950 1100 l 1,1,-1
 650 900 l 1,2,-1
 350 1100 l 1,3,-1
 350 1300 l 1,4,-1
 650 1100 l 1,5,-1
 950 1300 l 1,0,-1
EndSplineSet
EndChar

StartChar: Lslash
Encoding: 321 321 120
Width: 1000
Flags: MW
HStem: 0.00999451 199.99 780.02 20G
VStem: 50 199.99
LayerCount: 2
Fore
SplineSet
50 800.02 m 1,0,-1
 250 800.021 l 1,1,-1
 250 637.28 l 1,2,-1
 350 682.851 l 1,3,-1
 350 463.461 l 1,4,-1
 250 417.811 l 1,5,-1
 250 300.011 l 2,6,7
 250 200.006 250 200.006 349.99 200.011 c 2,8,-1
 750.01 200.011 l 1,9,-1
 750.01 0.0205078 l 1,10,-1
 349.99 0.0205078 l 2,11,12
 49.99 0.0205078 49.99 0.0205078 50 300.011 c 2,13,-1
 50 326.551 l 1,14,-1
 -50 280.9 l 1,15,-1
 -50 500.67 l 1,16,-1
 50 546.189 l 1,17,-1
 50 800.02 l 1,0,-1
EndSplineSet
EndChar

StartChar: Oslash
Encoding: 216 216 121
Width: 1300
Flags: MW
HStem: 0 200<350 350.01 350.01 450 650.01 950.01> 600 200<316.665 950.01 350.01 650 850 950.01 950.01 951 850 850>
VStem: 50 200 1050 200
LayerCount: 2
Fore
SplineSet
650 600 m 1,0,-1
 350 600 l 2,1,2
 249.995 600 249.995 600 250 400 c 128,-1,3
 250 200.005 250 200.005 350 200 c 2,4,-1
 450 200 l 1,5,-1
 650 600 l 1,0,-1
850 600 m 1,6,-1
 650.01 200 l 1,7,-1
 950.01 200 l 2,8,9
 1050.02 200 1050.02 200 1050 400 c 128,-1,10
 1050 599.995 1050 599.995 951 600 c 2,11,-1
 850 600 l 1,6,-1
950.01 800 m 2,12,13
 1250.01 800 1250.01 800 1250.01 400 c 128,-1,14
 1250.01 -0.00500488 1250.01 -0.00500488 950.01 0 c 2,15,-1
 350.01 0 l 2,16,17
 50.01 0 50.01 0 50.0098 400 c 128,-1,18
 50.0098 800.005 50.0098 800.005 350.01 800 c 2,19,-1
 950.01 800 l 2,12,13
EndSplineSet
EndChar

StartChar: ordmasculine
Encoding: 186 186 122
Width: 500
Flags: MW
HStem: 900 100 1035.5 100 1335.5 100<250 250>
VStem: 50 100<1221.84 1249.18 1221.84 1263.17> 350 100<1221.84 1249.18>
LayerCount: 2
Fore
SplineSet
391.5 1377 m 128,-1,1
 450 1318.5 450 1318.5 450 1235.5 c 128,-1,2
 450 1152.51 450 1152.51 391.5 1094 c 128,-1,3
 333 1035.5 333 1035.5 250 1035.5 c 128,-1,4
 167.005 1035.5 167.005 1035.5 108.5 1094 c 128,-1,5
 50 1152.5 50 1152.5 50 1235.5 c 128,-1,6
 50 1318.51 50 1318.51 108.5 1377 c 128,-1,7
 167 1435.5 167 1435.5 250 1435.5 c 128,-1,0
 332.995 1435.5 332.995 1435.5 391.5 1377 c 128,-1,1
250 1335.5 m 128,-1,9
 209.005 1335.52 209.005 1335.52 179.5 1306.01 c 128,-1,10
 149.995 1276.52 149.995 1276.52 150 1235.51 c 128,-1,11
 150 1194.52 150 1194.52 179.5 1165.01 c 128,-1,12
 209.005 1135.5 209.005 1135.5 250 1135.51 c 128,-1,13
 290.995 1135.51 290.995 1135.51 320.5 1165.01 c 128,-1,14
 350.005 1194.52 350.005 1194.52 350 1235.51 c 128,-1,15
 350 1276.52 350 1276.52 320.5 1306.01 c 128,-1,8
 290.995 1335.52 290.995 1335.52 250 1335.5 c 128,-1,9
450 900.01 m 1,16,-1
 50 900.01 l 1,17,-1
 50 1000.01 l 1,18,-1
 450 1000.01 l 1,19,-1
 450 900.01 l 1,16,-1
EndSplineSet
EndChar

StartChar: lslash
Encoding: 322 322 123
Width: 500
Flags: MW
HStem: 0.00999451 199.99 780.02 20G
VStem: 50 199.99
LayerCount: 2
Fore
SplineSet
50 800.02 m 1,0,-1
 250 800.021 l 1,1,-1
 250 637.32 l 1,2,-1
 349.99 682.851 l 1,3,-1
 349.99 463.461 l 1,4,-1
 250 417.811 l 1,5,-1
 250 300.011 l 2,6,7
 250 200.006 250 200.006 349.99 200.011 c 2,8,-1
 450.03 200.011 l 1,9,-1
 450.03 0.0205078 l 1,10,-1
 349.99 0.0205078 l 2,11,12
 49.99 0.0205078 49.99 0.0205078 50 300.011 c 2,13,-1
 50 326.551 l 1,14,-1
 -50 280.9 l 1,15,-1
 -50 500.67 l 1,16,-1
 50 546.189 l 1,17,-1
 50 800.02 l 1,0,-1
EndSplineSet
EndChar

StartChar: oslash
Encoding: 248 248 124
Width: 1300
Flags: MW
HStem: 0 200<350 350.01 350.01 450 650.01 950.01> 600 200<316.665 950.01 350.01 650 850 950.01 950.01 951 850 850>
VStem: 50 200 1050 200
LayerCount: 2
Fore
SplineSet
650 600 m 1,0,-1
 350 600 l 2,1,2
 249.995 600 249.995 600 250 400 c 128,-1,3
 250 200.005 250 200.005 350 200 c 2,4,-1
 450 200 l 1,5,-1
 650 600 l 1,0,-1
850 600 m 1,6,-1
 650.01 200 l 1,7,-1
 950.01 200 l 2,8,9
 1050.02 200 1050.02 200 1050 400 c 128,-1,10
 1050 599.995 1050 599.995 951 600 c 2,11,-1
 850 600 l 1,6,-1
950.01 800 m 2,12,13
 1250.01 800 1250.01 800 1250.01 400 c 128,-1,14
 1250.01 -0.00500488 1250.01 -0.00500488 950.01 0 c 2,15,-1
 350.01 0 l 2,16,17
 50.01 0 50.01 0 50.0098 400 c 128,-1,18
 50.0098 800.005 50.0098 800.005 350.01 800 c 2,19,-1
 950.01 800 l 2,12,13
EndSplineSet
EndChar

StartChar: trademark
Encoding: 8482 8482 125
Width: 620
Flags: W
HStem: 550 250<85 185 265 365 495 595> 700 100<25 85 185 240>
VStem: 85 100<550 700> 265 100<550 650> 495 100<550 650>
LayerCount: 2
Fore
SplineSet
85 550 m 1,0,-1
 85 700 l 1,1,-1
 25 700 l 1,2,-1
 25 800 l 1,3,-1
 240 800 l 1,4,-1
 240 700 l 1,5,-1
 185 700 l 1,6,-1
 185 550 l 1,7,-1
 85 550 l 1,0,-1
265 550 m 1,8,-1
 265 800 l 1,9,-1
 365 800 l 1,10,-1
 430 675 l 1,11,-1
 495 800 l 1,12,-1
 595 800 l 1,13,-1
 595 550 l 1,14,-1
 495 550 l 1,15,-1
 495 650 l 1,16,-1
 455 550 l 1,17,-1
 405 550 l 1,18,-1
 365 650 l 1,19,-1
 365 550 l 1,20,-1
 265 550 l 1,8,-1
EndSplineSet
EndChar

StartChar: Eth
Encoding: 208 208 126
Width: 1300
Flags: MW
HStem: 0 200<150 950.01 400.01 950.01 400.01 950.01> 300 200<50 150 50 150 350 450> 600 200<416.665 950.01 450.01 950>
VStem: 150 200<0 300 0 300> 1050 200
LayerCount: 2
Fore
SplineSet
150 500 m 1,0,1
 150.01 800 150.01 800 450.01 800 c 2,2,-1
 950.01 800 l 2,3,4
 1250.01 800 1250.01 800 1250.01 500 c 2,5,-1
 1250.01 300 l 2,6,7
 1250.01 0 1250.01 0 950.01 0 c 2,8,-1
 400.01 0 l 1,9,-1
 400.01 200 l 1,10,-1
 950.01 200 l 2,11,12
 1050.02 200 1050.02 200 1050 300 c 2,13,-1
 1050 500 l 2,14,15
 1050 600.005 1050 600.005 950 600 c 2,16,-1
 450 600 l 2,17,18
 349.995 600 349.995 600 350 500 c 1,19,-1
 450 500 l 1,20,-1
 450 300 l 1,21,-1
 350 300 l 1,22,-1
 350 0 l 1,23,-1
 150 0 l 1,24,-1
 150 300 l 1,25,-1
 50 300 l 1,26,-1
 50 500 l 1,27,-1
 150 500 l 1,0,1
EndSplineSet
EndChar

StartChar: onehalf
Encoding: 189 189 127
Width: 1000
Flags: W
HStem: 0 100<600 950 500 500> 150 100<633.333 825 650 825> 300 100<500 825 500 825> 400 10.5<175 275> 700 100<75 160.156>
VStem: 175 100<400 685.156>
LayerCount: 2
Fore
SplineSet
150 0 m 1,0,-1
 250 0 l 1,1,-1
 650 800 l 1,2,-1
 550 800 l 1,3,-1
 150 0 l 1,0,-1
EndSplineSet
Refer: 230 178 S 1 0 0 1 450 -200 2
Refer: 229 185 N 1 0 0 1 0 200 2
EndChar

StartChar: plusminus
Encoding: 177 177 128
Width: 500
Flags: MW
HStem: 50 200<50 450 50 450> 450 200<50 150 50 150 350 450>
VStem: 50 400<50 250 50 250 450 650> 150 200<350 450 350 450 650 750>
LayerCount: 2
Fore
SplineSet
150 750 m 1,0,-1
 350 750 l 1,1,-1
 350 650 l 1,2,-1
 450 650 l 1,3,-1
 450 450 l 1,4,-1
 350 450 l 1,5,-1
 350 350 l 1,6,-1
 150 350 l 1,7,-1
 150 450 l 1,8,-1
 50 450 l 1,9,-1
 50 650 l 1,10,-1
 150 650 l 1,11,-1
 150 750 l 1,0,-1
450 50 m 1,12,-1
 50 50 l 1,13,-1
 50 250 l 1,14,-1
 450 250 l 1,15,-1
 450 50 l 1,12,-1
EndSplineSet
EndChar

StartChar: degree
Encoding: 176 176 129
Width: 500
Flags: MW
HStem: 800 100 1100 100<250 250>
VStem: 50 100<986.345 1013.68 986.345 1027.67> 350 100<986.345 1013.68>
LayerCount: 2
Fore
SplineSet
391.5 1141.5 m 128,-1,1
 450 1083 450 1083 450 1000 c 128,-1,2
 450 917.005 450 917.005 391.5 858.5 c 128,-1,3
 333 800 333 800 250 800 c 128,-1,4
 167.005 800 167.005 800 108.5 858.5 c 128,-1,5
 50 917 50 917 50 1000 c 128,-1,6
 50 1083.01 50 1083.01 108.5 1141.5 c 128,-1,7
 167 1200 167 1200 250 1200 c 128,-1,0
 332.995 1200 332.995 1200 391.5 1141.5 c 128,-1,1
250 1100 m 128,-1,9
 209.005 1100.02 209.005 1100.02 179.5 1070.51 c 128,-1,10
 149.995 1041.02 149.995 1041.02 150 1000.01 c 128,-1,11
 150 959.015 150 959.015 179.5 929.51 c 128,-1,12
 209.005 900.005 209.005 900.005 250 900.01 c 128,-1,13
 290.995 900.01 290.995 900.01 320.5 929.51 c 128,-1,14
 350.005 959.015 350.005 959.015 350 1000.01 c 128,-1,15
 350 1041.02 350 1041.02 320.5 1070.51 c 128,-1,8
 290.995 1100.02 290.995 1100.02 250 1100 c 128,-1,9
EndSplineSet
EndChar

StartChar: registered
Encoding: 174 174 130
Width: 900
Flags: W
HStem: 0 66<333.073 566.757> 367 66<392 450> 560 68<392 517.969> 734 66<329.288 570.52>
VStem: 50 66<280.562 516.842> 283 109<186 367 433 560> 536 114<448.634 542.545> 784 66<275.155 519.289>
LayerCount: 2
Fore
SplineSet
450 734 m 0,0,1
 312 734 312 734 218 639 c 0,2,3
 117 538 117 538 116 400 c 0,4,5
 116 264 116 264 213 168 c 0,6,7
 312 67 312 67 449 66 c 0,8,9
 584 66 584 66 686 164 c 0,10,11
 784 257 784 257 784 393 c 0,12,13
 784 537 784 537 690 634 c 0,14,15
 590 734 590 734 450 734 c 0,0,1
449 800 m 0,16,17
 618 800 618 800 736 680 c 0,18,19
 850 565 850 565 850 399 c 0,20,21
 850 230 850 230 732 116 c 0,22,23
 612 0 612 0 449 0 c 0,24,25
 329 0 329 0 227 68 c 0,26,27
 126 138 126 138 80 248 c 0,28,29
 50 320 50 320 50 399 c 0,30,31
 50 510 50 510 108 607 c 0,32,33
 163 699 163 699 253 750 c 0,34,35
 342 800 342 800 449 800 c 0,16,17
392 433 m 1,36,-1
 450 433 l 2,37,38
 536 433 536 433 536 494 c 0,39,40
 536 560 536 560 450 560 c 2,41,-1
 392 560 l 1,42,-1
 392 433 l 1,36,-1
283 186 m 1,43,-1
 283 628 l 1,44,-1
 450 628 l 2,45,46
 650 628 650 628 650 502 c 3,47,48
 650 400 650 400 550 384 c 1,49,-1
 650 186 l 1,50,-1
 540 186 l 1,51,-1
 450 367 l 1,52,-1
 392 367 l 1,53,-1
 392 186 l 1,54,-1
 283 186 l 1,43,-1
EndSplineSet
EndChar

StartChar: copyright
Encoding: 169 169 131
Width: 900
Flags: W
HStem: 0 66<333.073 566.757> 193 104<358.195 601> 503 104<357.977 601> 734 66<329.288 570.52>
VStem: 50 66<280.562 516.842> 237.5 103.5<314.34 485.66> 784 66<275.155 519.289>
LayerCount: 2
Fore
SplineSet
450 734 m 0,0,1
 312 734 312 734 218 639 c 0,2,3
 117 538 117 538 116 400 c 0,4,5
 116 264 116 264 213 168 c 0,6,7
 312 67 312 67 449 66 c 0,8,9
 584 66 584 66 686 164 c 0,10,11
 784 257 784 257 784 393 c 0,12,13
 784 537 784 537 690 634 c 0,14,15
 590 734 590 734 450 734 c 0,0,1
449 800 m 0,16,17
 618 800 618 800 736 680 c 0,18,19
 850 565 850 565 850 399 c 0,20,21
 850 230 850 230 732 116 c 0,22,23
 612 0 612 0 449 0 c 0,24,25
 329 0 329 0 227 68 c 0,26,27
 126 138 126 138 80 248 c 0,28,29
 50 320 50 320 50 399 c 0,30,31
 50 510 50 510 108 607 c 0,32,33
 163 699 163 699 253 750 c 0,34,35
 342 800 342 800 449 800 c 0,16,17
600 193 m 1,36,-1
 395 193 l 2,37,38
 238 193 238 193 237.5 400 c 128,-1,39
 237 607 237 607 395 607 c 2,40,-1
 600 607 l 1,41,-1
 600 503 l 1,42,-1
 391.5 503 l 6,43,44
 338 503 338 503 337.5 400 c 4,45,46
 338 297 338 297 391.5 297 c 6,47,-1
 600 297 l 1,48,-1
 600 193 l 1,36,-1
EndSplineSet
EndChar

StartChar: Aacute
Encoding: 193 193 132
Width: 1200
Flags: MW
HStem: 0 200<250 900 350 900 350 1150 350 950> 600 200<316.665 850 350 850> 900 300<400 800 400 800>
VStem: 50 200<300 500> 400 400<900 1200> 950 200<0 500 0 533.335>
LayerCount: 2
Fore
SplineSet
50 300 m 2,0,-1
 50 500 l 2,1,2
 50 800 50 800 350 800 c 2,3,-1
 850 800 l 2,4,5
 1150 800 1150 800 1150 500 c 2,6,-1
 1150 0 l 1,7,-1
 950 0 l 1,8,-1
 950 500 l 2,9,10
 950 600.005 950 600.005 850 600 c 2,11,-1
 350 600 l 2,12,13
 249.995 600 249.995 600 250 500 c 2,14,-1
 250 300 l 2,15,16
 250 199.995 250 199.995 350 200 c 2,17,-1
 900 200 l 1,18,-1
 900 0 l 1,19,-1
 350 0 l 2,20,21
 50 0 50 0 50 300 c 2,0,-1
800 1200 m 1,22,-1
 600 900 l 1,23,-1
 400 900 l 1,24,-1
 600 1200 l 1,25,-1
 800 1200 l 1,22,-1
EndSplineSet
EndChar

StartChar: Acircumflex
Encoding: 194 194 133
Width: 1200
Flags: MW
HStem: 0 200<250 900 350 900 350 1150 350 950> 600 200<316.665 850 350 850> 900 400<300 600 600 900>
VStem: 50 200<300 500> 950 200<0 500 0 533.335>
LayerCount: 2
Fore
SplineSet
50 300 m 2,0,-1
 50 500 l 2,1,2
 50 800 50 800 350 800 c 2,3,-1
 850 800 l 2,4,5
 1150 800 1150 800 1150 500 c 2,6,-1
 1150 0 l 1,7,-1
 950 0 l 1,8,-1
 950 500 l 2,9,10
 950 600.005 950 600.005 850 600 c 2,11,-1
 350 600 l 2,12,13
 249.995 600 249.995 600 250 500 c 2,14,-1
 250 300 l 2,15,16
 250 199.995 250 199.995 350 200 c 2,17,-1
 900 200 l 1,18,-1
 900 0 l 1,19,-1
 350 0 l 2,20,21
 50 0 50 0 50 300 c 2,0,-1
900 900 m 1,22,-1
 900 1100 l 1,23,-1
 600 1300 l 1,24,-1
 300 1100 l 1,25,-1
 300 900 l 1,26,-1
 600 1100 l 1,27,-1
 900 900 l 1,22,-1
EndSplineSet
EndChar

StartChar: Adieresis
Encoding: 196 196 134
Width: 1200
Flags: MW
HStem: 0 200<250 900 350 900 350 1150 350 950> 600 200<316.665 850 350 850> 900 200<440 453.665 440 453.665>
VStem: 50 200<300 500> 950 200<0 500 0 533.335>
LayerCount: 2
Fore
SplineSet
50 300 m 2,0,-1
 50 500 l 2,1,2
 50 800 50 800 350 800 c 2,3,-1
 850 800 l 2,4,5
 1150 800 1150 800 1150 500 c 2,6,-1
 1150 0 l 1,7,-1
 950 0 l 1,8,-1
 950 500 l 2,9,10
 950 600.005 950 600.005 850 600 c 2,11,-1
 350 600 l 2,12,13
 249.995 600 249.995 600 250 500 c 2,14,-1
 250 300 l 2,15,16
 250 199.995 250 199.995 350 200 c 2,17,-1
 900 200 l 1,18,-1
 900 0 l 1,19,-1
 350 0 l 2,20,21
 50 0 50 0 50 300 c 2,0,-1
369.5 1070.5 m 128,-1,23
 399.005 1100.02 399.005 1100.02 440 1100 c 128,-1,24
 480.995 1100 480.995 1100 510.5 1070.5 c 128,-1,25
 540.005 1040.99 540.005 1040.99 540 1000 c 128,-1,26
 540 959.005 540 959.005 510.5 929.5 c 128,-1,27
 480.995 899.995 480.995 899.995 440 900 c 128,-1,28
 399.005 900 399.005 900 369.5 929.5 c 128,-1,29
 339.995 959.005 339.995 959.005 340 1000 c 128,-1,22
 340 1040.99 340 1040.99 369.5 1070.5 c 128,-1,23
669.5 1070.51 m 128,-1,31
 699.005 1100.03 699.005 1100.03 740 1100.01 c 128,-1,32
 780.995 1100.01 780.995 1100.01 810.5 1070.51 c 128,-1,33
 840.005 1041 840.005 1041 840 1000.01 c 128,-1,34
 840 959.015 840 959.015 810.5 929.51 c 128,-1,35
 780.995 900.005 780.995 900.005 740 900.01 c 128,-1,36
 699.005 900.01 699.005 900.01 669.5 929.51 c 128,-1,37
 639.995 959.015 639.995 959.015 640 1000.01 c 128,-1,30
 640 1041 640 1041 669.5 1070.51 c 128,-1,31
EndSplineSet
EndChar

StartChar: Agrave
Encoding: 192 192 135
Width: 1200
Flags: MW
HStem: 0 200<250 900 350 900 350 1150 350 950> 600 200<316.665 850 350 850> 900 300<400 800 400 600>
VStem: 50 200<300 500> 400 400<900 1200> 950 200<0 500 0 533.335>
LayerCount: 2
Fore
SplineSet
50 300 m 2,0,-1
 50 500 l 2,1,2
 50 800 50 800 350 800 c 2,3,-1
 850 800 l 2,4,5
 1150 800 1150 800 1150 500 c 2,6,-1
 1150 0 l 1,7,-1
 950 0 l 1,8,-1
 950 500 l 2,9,10
 950 600.005 950 600.005 850 600 c 2,11,-1
 350 600 l 2,12,13
 249.995 600 249.995 600 250 500 c 2,14,-1
 250 300 l 2,15,16
 250 199.995 250 199.995 350 200 c 2,17,-1
 900 200 l 1,18,-1
 900 0 l 1,19,-1
 350 0 l 2,20,21
 50 0 50 0 50 300 c 2,0,-1
600 1200 m 1,22,-1
 800 900 l 1,23,-1
 600 900 l 1,24,-1
 400 1200 l 1,25,-1
 600 1200 l 1,22,-1
EndSplineSet
EndChar

StartChar: Aring
Encoding: 197 197 136
Width: 1200
Flags: MW
HStem: 0 200<250 900 350 900 350 1150 350 950> 600 200<316.665 850 350 850> 800 100 1100 100<600 600>
VStem: 50 200<300 500> 400 100<986.345 1013.68 986.345 1027.67> 700 100<986.345 1013.68> 950 200<0 500 0 533.335>
LayerCount: 2
Fore
SplineSet
50 300 m 2,0,-1
 50 500 l 2,1,2
 50 800 50 800 350 800 c 2,3,-1
 850 800 l 2,4,5
 1150 800 1150 800 1150 500 c 2,6,-1
 1150 0 l 1,7,-1
 950 0 l 1,8,-1
 950 500 l 2,9,10
 950 600.005 950 600.005 850 600 c 2,11,-1
 350 600 l 2,12,13
 249.995 600 249.995 600 250 500 c 2,14,-1
 250 300 l 2,15,16
 250 199.995 250 199.995 350 200 c 2,17,-1
 900 200 l 1,18,-1
 900 0 l 1,19,-1
 350 0 l 2,20,21
 50 0 50 0 50 300 c 2,0,-1
741.5 1141.5 m 128,-1,23
 800 1083 800 1083 800 1000 c 128,-1,24
 800 917.005 800 917.005 741.5 858.5 c 128,-1,25
 683 800 683 800 600 800 c 128,-1,26
 517.005 800 517.005 800 458.5 858.5 c 128,-1,27
 400 917 400 917 400 1000 c 128,-1,28
 400 1083.01 400 1083.01 458.5 1141.5 c 128,-1,29
 517 1200 517 1200 600 1200 c 128,-1,22
 682.995 1200 682.995 1200 741.5 1141.5 c 128,-1,23
600 1100 m 128,-1,31
 559.005 1100.02 559.005 1100.02 529.5 1070.51 c 128,-1,32
 499.995 1041.02 499.995 1041.02 500 1000.01 c 128,-1,33
 500 959.015 500 959.015 529.5 929.51 c 128,-1,34
 559.005 900.005 559.005 900.005 600 900.01 c 128,-1,35
 640.995 900.01 640.995 900.01 670.5 929.51 c 128,-1,36
 700.005 959.015 700.005 959.015 700 1000.01 c 128,-1,37
 700 1041.02 700 1041.02 670.5 1070.51 c 128,-1,30
 640.995 1100.02 640.995 1100.02 600 1100 c 128,-1,31
EndSplineSet
EndChar

StartChar: Atilde
Encoding: 195 195 137
Width: 1200
Flags: MW
HStem: 0 200<250 900 350 900 350 1150 350 950> 600 200<316.665 850 350 850> 925 200<399.98 599.99 399.98 599.99 599.99 800>
VStem: 50 200<300 500> 950 200<0 500 0 533.335>
LayerCount: 2
Fore
SplineSet
50 300 m 2,0,-1
 50 500 l 2,1,2
 50 800 50 800 350 800 c 2,3,-1
 850 800 l 2,4,5
 1150 800 1150 800 1150 500 c 2,6,-1
 1150 0 l 1,7,-1
 950 0 l 1,8,-1
 950 500 l 2,9,10
 950 600.005 950 600.005 850 600 c 2,11,-1
 350 600 l 2,12,13
 249.995 600 249.995 600 250 500 c 2,14,-1
 250 300 l 2,15,16
 250 199.995 250 199.995 350 200 c 2,17,-1
 900 200 l 1,18,-1
 900 0 l 1,19,-1
 350 0 l 2,20,21
 50 0 50 0 50 300 c 2,0,-1
800 1125 m 1,22,-1
 800 925 l 1,23,24
 699.995 875.005 699.995 875.005 599.99 925 c 128,-1,25
 499.985 974.995 499.985 974.995 399.98 925 c 1,26,-1
 399.98 1025 l 1,27,-1
 399.98 1125 l 1,28,29
 499.985 1174.99 499.985 1174.99 599.99 1125 c 128,-1,30
 699.995 1075.01 699.995 1075.01 800 1125 c 1,22,-1
EndSplineSet
EndChar

StartChar: Eacute
Encoding: 201 201 138
Width: 1200
Flags: MW
HStem: 0 200<250.01 1150.01 350.01 1150.01> 300 200<350.01 900.01 350.01 900.01> 600 200<316.675 900.01 350.01 900.01>
VStem: 50 200
LayerCount: 2
Fore
SplineSet
1150 550 m 128,-1,1
 1150.02 299.995 1150.02 299.995 900.01 300 c 2,2,-1
 350.01 300 l 1,3,-1
 350.01 500 l 1,4,-1
 900.01 500 l 2,5,6
 950.005 500 950.005 500 950.01 550 c 128,-1,7
 950.01 599.995 950.01 599.995 900.01 600 c 2,8,-1
 350.01 600 l 2,9,10
 250.005 600 250.005 600 250.01 400 c 128,-1,11
 250.01 200.005 250.01 200.005 350.01 200 c 2,12,-1
 1150.01 200 l 1,13,-1
 1150.01 0 l 1,14,-1
 350.01 0 l 2,15,16
 50.01 0 50.01 0 50.0098 400 c 128,-1,17
 50.0098 800.005 50.0098 800.005 350.01 800 c 2,18,-1
 900.01 800 l 2,19,0
 1150.02 800 1150.02 800 1150 550 c 128,-1,1
800.01 1200 m 1,20,-1
 600.01 900 l 1,21,-1
 400.01 900 l 1,22,-1
 600.01 1200 l 1,23,-1
 800.01 1200 l 1,20,-1
EndSplineSet
EndChar

StartChar: Ecircumflex
Encoding: 202 202 139
Width: 1200
Flags: MW
HStem: 0 200<250.01 1150.01 350.01 1150.01> 300 200<350.01 900.01 350.01 900.01> 600 200<316.675 900.01 350.01 900.01>
VStem: 50 200
LayerCount: 2
Fore
SplineSet
1150 550 m 128,-1,1
 1150.02 299.995 1150.02 299.995 900.01 300 c 2,2,-1
 350.01 300 l 1,3,-1
 350.01 500 l 1,4,-1
 900.01 500 l 2,5,6
 950.005 500 950.005 500 950.01 550 c 128,-1,7
 950.01 599.995 950.01 599.995 900.01 600 c 2,8,-1
 350.01 600 l 2,9,10
 250.005 600 250.005 600 250.01 400 c 128,-1,11
 250.01 200.005 250.01 200.005 350.01 200 c 2,12,-1
 1150.01 200 l 1,13,-1
 1150.01 0 l 1,14,-1
 350.01 0 l 2,15,16
 50.01 0 50.01 0 50.0098 400 c 128,-1,17
 50.0098 800.005 50.0098 800.005 350.01 800 c 2,18,-1
 900.01 800 l 2,19,0
 1150.02 800 1150.02 800 1150 550 c 128,-1,1
900.01 900 m 1,20,-1
 900.01 1100 l 1,21,-1
 600.01 1300 l 1,22,-1
 300.01 1100 l 1,23,-1
 300.01 900 l 1,24,-1
 600.01 1100 l 1,25,-1
 900.01 900 l 1,20,-1
EndSplineSet
EndChar

StartChar: Edieresis
Encoding: 203 203 140
Width: 1200
Flags: MW
HStem: 0 200<250.01 1150.01 350.01 1150.01> 300 200<350.01 900.01 350.01 900.01> 600 200<316.675 900.01 350.01 900.01> 900 200<450.01 463.675 450.01 463.675>
VStem: 50 200
LayerCount: 2
Fore
SplineSet
1150 550 m 128,-1,1
 1150.02 299.995 1150.02 299.995 900.01 300 c 2,2,-1
 350.01 300 l 1,3,-1
 350.01 500 l 1,4,-1
 900.01 500 l 2,5,6
 950.005 500 950.005 500 950.01 550 c 128,-1,7
 950.01 599.995 950.01 599.995 900.01 600 c 2,8,-1
 350.01 600 l 2,9,10
 250.005 600 250.005 600 250.01 400 c 128,-1,11
 250.01 200.005 250.01 200.005 350.01 200 c 2,12,-1
 1150.01 200 l 1,13,-1
 1150.01 0 l 1,14,-1
 350.01 0 l 2,15,16
 50.01 0 50.01 0 50.0098 400 c 128,-1,17
 50.0098 800.005 50.0098 800.005 350.01 800 c 2,18,-1
 900.01 800 l 2,19,0
 1150.02 800 1150.02 800 1150 550 c 128,-1,1
379.51 1070.5 m 128,-1,21
 409.015 1100.02 409.015 1100.02 450.01 1100 c 128,-1,22
 491.005 1100 491.005 1100 520.51 1070.5 c 128,-1,23
 550.015 1040.99 550.015 1040.99 550.01 1000 c 128,-1,24
 550.01 959.005 550.01 959.005 520.51 929.5 c 128,-1,25
 491.005 899.995 491.005 899.995 450.01 900 c 128,-1,26
 409.015 900 409.015 900 379.51 929.5 c 128,-1,27
 350.005 959.005 350.005 959.005 350.01 1000 c 128,-1,20
 350.01 1040.99 350.01 1040.99 379.51 1070.5 c 128,-1,21
679.51 1070.51 m 128,-1,29
 709.015 1100.03 709.015 1100.03 750.01 1100.01 c 128,-1,30
 791.005 1100.01 791.005 1100.01 820.51 1070.51 c 128,-1,31
 850.015 1041 850.015 1041 850.01 1000.01 c 128,-1,32
 850.01 959.015 850.01 959.015 820.51 929.51 c 128,-1,33
 791.005 900.005 791.005 900.005 750.01 900.01 c 128,-1,34
 709.015 900.01 709.015 900.01 679.51 929.51 c 128,-1,35
 650.005 959.015 650.005 959.015 650.01 1000.01 c 128,-1,28
 650.01 1041 650.01 1041 679.51 1070.51 c 128,-1,29
EndSplineSet
EndChar

StartChar: Egrave
Encoding: 200 200 141
Width: 1200
Flags: MW
HStem: 0 200<250.01 1150.01 350.01 1150.01> 300 200<350.01 900.01 350.01 900.01> 600 200<316.675 900.01 350.01 900.01>
VStem: 50 200
LayerCount: 2
Fore
SplineSet
1150 550 m 128,-1,1
 1150.02 299.995 1150.02 299.995 900.01 300 c 2,2,-1
 350.01 300 l 1,3,-1
 350.01 500 l 1,4,-1
 900.01 500 l 2,5,6
 950.005 500 950.005 500 950.01 550 c 128,-1,7
 950.01 599.995 950.01 599.995 900.01 600 c 2,8,-1
 350.01 600 l 2,9,10
 250.005 600 250.005 600 250.01 400 c 128,-1,11
 250.01 200.005 250.01 200.005 350.01 200 c 2,12,-1
 1150.01 200 l 1,13,-1
 1150.01 0 l 1,14,-1
 350.01 0 l 2,15,16
 50.01 0 50.01 0 50.0098 400 c 128,-1,17
 50.0098 800.005 50.0098 800.005 350.01 800 c 2,18,-1
 900.01 800 l 2,19,0
 1150.02 800 1150.02 800 1150 550 c 128,-1,1
600.01 1200 m 1,20,-1
 800.01 900 l 1,21,-1
 600.01 900 l 1,22,-1
 400.01 1200 l 1,23,-1
 600.01 1200 l 1,20,-1
EndSplineSet
EndChar

StartChar: Iacute
Encoding: 205 205 142
Width: 300
Flags: W
HStem: 0 21G<50 250 50 250> 780 20G<50 250 50 250>
VStem: 50 200<0 800 0 800>
LayerCount: 2
Fore
SplineSet
450 1200 m 1,0,-1
 250 900 l 1,1,-1
 50 900 l 1,2,-1
 250 1200 l 1,3,-1
 450 1200 l 1,0,-1
EndSplineSet
Refer: 42 73 S 1 0 0 1 0 0 2
EndChar

StartChar: Idieresis
Encoding: 207 207 144
Width: 600
Flags: MW
HStem: 0 21G<200 400 200 200> 780 20G<200 400 400 400> 900 200<150 163.665 150 163.665>
VStem: 200 200<0 800>
LayerCount: 2
Fore
SplineSet
400 0 m 1,0,-1
 200 0 l 1,1,-1
 200 800 l 1,2,-1
 400 800 l 1,3,-1
 400 0 l 1,0,-1
79.5 1070.5 m 128,-1,5
 109.005 1100.02 109.005 1100.02 150 1100 c 128,-1,6
 190.995 1100 190.995 1100 220.5 1070.5 c 128,-1,7
 250.005 1040.99 250.005 1040.99 250 1000 c 128,-1,8
 250 959.005 250 959.005 220.5 929.5 c 128,-1,9
 190.995 899.995 190.995 899.995 150 900 c 128,-1,10
 109.005 900 109.005 900 79.5 929.5 c 128,-1,11
 49.9952 959.005 49.9952 959.005 50 1000 c 128,-1,4
 50 1040.99 50 1040.99 79.5 1070.5 c 128,-1,5
379.5 1070.51 m 128,-1,13
 409.005 1100.03 409.005 1100.03 450 1100.01 c 128,-1,14
 490.995 1100.01 490.995 1100.01 520.5 1070.51 c 128,-1,15
 550.005 1041 550.005 1041 550 1000.01 c 128,-1,16
 550 959.015 550 959.015 520.5 929.51 c 128,-1,17
 490.995 900.005 490.995 900.005 450 900.01 c 128,-1,18
 409.005 900.01 409.005 900.01 379.5 929.51 c 128,-1,19
 349.995 959.015 349.995 959.015 350 1000.01 c 128,-1,12
 350 1041 350 1041 379.5 1070.51 c 128,-1,13
EndSplineSet
EndChar

StartChar: Igrave
Encoding: 204 204 145
Width: 500
Flags: MW
HStem: 0 21G<250 450 250 250> 780 20G<250 450 450 450>
VStem: 250 200<0 800>
LayerCount: 2
Fore
SplineSet
450 0 m 1,0,-1
 250 0 l 1,1,-1
 250 800 l 1,2,-1
 450 800 l 1,3,-1
 450 0 l 1,0,-1
250 1200 m 1,4,-1
 450 900 l 1,5,-1
 250 900 l 1,6,-1
 50 1200 l 1,7,-1
 250 1200 l 1,4,-1
EndSplineSet
EndChar

StartChar: Oacute
Encoding: 211 211 146
Width: 1300
Flags: MW
HStem: 0 200<250 950.01 350.01 950> 600 200<350 350.01 350 950 950 951 350 350.01>
VStem: 50 200 1050 200<400 466.665>
LayerCount: 2
Fore
SplineSet
850 1200 m 1,0,-1
 650 900 l 1,1,-1
 450 900 l 1,2,-1
 650 1200 l 1,3,-1
 850 1200 l 1,0,-1
EndSplineSet
EndChar

StartChar: Ocircumflex
Encoding: 212 212 147
Width: 1300
Flags: MW
HStem: 0 200<250 950.01 350.01 950> 600 200<350 350.01 350 950 950 951 350 350.01> 900 400<350 650 650 950>
VStem: 50 200 1050 200<400 466.665>
LayerCount: 2
Fore
SplineSet
950 900 m 1,0,-1
 950 1100 l 1,1,-1
 650 1300 l 1,2,-1
 350 1100 l 1,3,-1
 350 900 l 1,4,-1
 650 1100 l 1,5,-1
 950 900 l 1,0,-1
350 800 m 2,6,-1
 950 800 l 2,7,8
 1250 800 1250 800 1250 400 c 128,-1,9
 1250 -0.00500488 1250 -0.00500488 950 0 c 2,10,-1
 350 0 l 2,11,12
 50 0 50 0 50 400 c 128,-1,13
 50 800.005 50 800.005 350 800 c 2,6,-1
350 600 m 2,14,15
 250.005 600 250.005 600 250.01 400 c 128,-1,16
 250.01 200.005 250.01 200.005 350.01 200 c 2,17,-1
 950.01 200 l 2,18,19
 1050.02 200 1050.02 200 1050 400 c 128,-1,20
 1050 599.995 1050 599.995 951 600 c 2,21,-1
 350 600 l 2,14,15
EndSplineSet
EndChar

StartChar: Odieresis
Encoding: 214 214 148
Width: 1300
Flags: MW
HStem: 0 200 600 200 900 200<500 513.665 500 513.665>
VStem: 50 200 1050 200<400.02 466.685>
LayerCount: 2
Fore
SplineSet
429.5 1070.5 m 128,-1,1
 459.005 1100.02 459.005 1100.02 500 1100 c 128,-1,2
 540.995 1100 540.995 1100 570.5 1070.5 c 128,-1,3
 600.005 1040.99 600.005 1040.99 600 1000 c 128,-1,4
 600 959.005 600 959.005 570.5 929.5 c 128,-1,5
 540.995 899.995 540.995 899.995 500 900 c 128,-1,6
 459.005 900 459.005 900 429.5 929.5 c 128,-1,7
 399.995 959.005 399.995 959.005 400 1000 c 128,-1,0
 400 1040.99 400 1040.99 429.5 1070.5 c 128,-1,1
729.5 1070.51 m 128,-1,9
 759.005 1100.03 759.005 1100.03 800 1100.01 c 128,-1,10
 840.995 1100.01 840.995 1100.01 870.5 1070.51 c 128,-1,11
 900.005 1041 900.005 1041 900 1000.01 c 128,-1,12
 900 959.015 900 959.015 870.5 929.51 c 128,-1,13
 840.995 900.005 840.995 900.005 800 900.01 c 128,-1,14
 759.005 900.01 759.005 900.01 729.5 929.51 c 128,-1,15
 699.995 959.015 699.995 959.015 700 1000.01 c 128,-1,8
 700 1041 700 1041 729.5 1070.51 c 128,-1,9
350 800.02 m 2,16,-1
 950 800.02 l 2,17,18
 1250 800.02 1250 800.02 1250 400.02 c 128,-1,19
 1250 0.0150146 1250 0.0150146 950 0.0195312 c 2,20,-1
 350 0.0195312 l 2,21,22
 50 0.0195312 50 0.0195312 50 400.02 c 128,-1,23
 50 800.024 50 800.024 350 800.02 c 2,16,-1
350 600.02 m 2,24,25
 250.005 600.02 250.005 600.02 250.01 400.02 c 128,-1,26
 250.01 200.023 250.01 200.023 350.01 200.02 c 2,27,-1
 950.01 200.02 l 2,28,29
 1050.02 200.02 1050.02 200.02 1050 400.02 c 128,-1,30
 1050 600.015 1050 600.015 951 600.02 c 2,31,-1
 350 600.02 l 2,24,25
EndSplineSet
EndChar

StartChar: Ograve
Encoding: 210 210 149
Width: 1300
Flags: MW
HStem: 0 200<250 950.01 350.01 950> 600 200<316.01 950 350 950 350 950 349 950>
VStem: 50 200 1050 200<400 466.665>
LayerCount: 2
Fore
SplineSet
650 1200 m 1,0,-1
 850 900 l 1,1,-1
 650 900 l 1,2,-1
 450 1200 l 1,3,-1
 650 1200 l 1,0,-1
650 1200 m 1,4,-1
 850 900 l 1,5,-1
 650 900 l 1,6,-1
 450 1200 l 1,7,-1
 650 1200 l 1,4,-1
EndSplineSet
EndChar

StartChar: Otilde
Encoding: 213 213 150
Width: 1300
Flags: MW
HStem: 0 200<250 950.01 350.01 950> 600 200<350 350.01 350 950 950 951 350 350.01>
VStem: 50 200 1050 200<400 466.665>
LayerCount: 2
Fore
SplineSet
850 1123 m 1,0,-1
 850 923 l 1,1,2
 749.995 873.005 749.995 873.005 649.99 923 c 128,-1,3
 549.985 972.995 549.985 972.995 449.98 923 c 1,4,-1
 449.98 1023 l 1,5,-1
 449.98 1123 l 1,6,7
 549.985 1172.99 549.985 1172.99 649.99 1123 c 128,-1,8
 749.995 1073.01 749.995 1073.01 850 1123 c 1,0,-1
350 800 m 2,9,-1
 950 800 l 2,10,11
 1250 800 1250 800 1250 400 c 128,-1,12
 1250 -0.00500488 1250 -0.00500488 950 0 c 2,13,-1
 350 0 l 2,14,15
 50 0 50 0 50 400 c 128,-1,16
 50 800.005 50 800.005 350 800 c 2,9,-1
350 600 m 2,17,18
 250.005 600 250.005 600 250.01 400 c 128,-1,19
 250.01 200.005 250.01 200.005 350.01 200 c 2,20,-1
 950.01 200 l 2,21,22
 1050.02 200 1050.02 200 1050 400 c 128,-1,23
 1050 599.995 1050 599.995 951 600 c 2,24,-1
 350 600 l 2,17,18
EndSplineSet
EndChar

StartChar: Uacute
Encoding: 218 218 151
Width: 800
Flags: MW
HStem: 0 200<350 450 350 516.665> 780 20G<50 250 250 250 550 750 750 750>
VStem: 50 200<350 800> 550 200<350 800>
LayerCount: 2
Fore
SplineSet
600 1200 m 1,0,-1
 400 900 l 1,1,-1
 200 900 l 1,2,-1
 400 1200 l 1,3,-1
 600 1200 l 1,0,-1
EndSplineSet
Refer: 54 85 S 1 0 0 1 0 0 2
EndChar

StartChar: Ucircumflex
Encoding: 219 219 152
Width: 800
Flags: MW
HStem: 0 200<350 450 350 516.665> 780 20G<50 250 250 250 550 750 750 750> 900 400<100 400 400 700>
VStem: 50 200<350 800> 550 200<350 800>
LayerCount: 2
Fore
SplineSet
700 900 m 1,0,-1
 700 1100 l 1,1,-1
 400 1300 l 1,2,-1
 100 1100 l 1,3,-1
 100 900 l 1,4,-1
 400 1100 l 1,5,-1
 700 900 l 1,0,-1
EndSplineSet
Refer: 54 85 S 1 0 0 1 0 0 2
EndChar

StartChar: Udieresis
Encoding: 220 220 153
Width: 800
Flags: MW
HStem: 0 200<350 450 350 516.665> 780 20G<50 250 250 250 550 750 750 750> 900 200<250 263.665 250 263.665>
VStem: 50 200<350 800> 550 200<350 800>
LayerCount: 2
Fore
SplineSet
179.5 1070.5 m 0,0,1
 209.005 1100.02 209.005 1100.02 250 1100 c 0,2,3
 290.995 1100 290.995 1100 320.5 1070.5 c 0,4,5
 350.005 1040.99 350.005 1040.99 350 1000 c 0,6,7
 350 959.005 350 959.005 320.5 929.5 c 0,8,9
 290.995 899.995 290.995 899.995 250 900 c 0,10,11
 209.005 900 209.005 900 179.5 929.5 c 0,12,13
 149.995 959.005 149.995 959.005 150 1000 c 0,14,15
 150 1040.99 150 1040.99 179.5 1070.5 c 0,0,1
479.5 1070.51 m 0,16,17
 509.005 1100.03 509.005 1100.03 550 1100.01 c 0,18,19
 590.995 1100.01 590.995 1100.01 620.5 1070.51 c 0,20,21
 650.005 1041 650.005 1041 650 1000.01 c 0,22,23
 650 959.015 650 959.015 620.5 929.51 c 0,24,25
 590.995 900.005 590.995 900.005 550 900.01 c 0,26,27
 509.005 900.01 509.005 900.01 479.5 929.51 c 0,28,29
 449.995 959.015 449.995 959.015 450 1000.01 c 0,30,31
 450 1041 450 1041 479.5 1070.51 c 0,16,17
EndSplineSet
Refer: 54 85 N 1 0 0 1 0 0 2
EndChar

StartChar: Ugrave
Encoding: 217 217 154
Width: 800
Flags: MW
HStem: 0 200<350 450 350 516.665> 780 20G<50 250 250 250 550 750 750 750>
VStem: 50 200<350 800> 550 200<350 800>
LayerCount: 2
Fore
SplineSet
50 350 m 2,0,-1
 50 800 l 1,1,-1
 250 800 l 1,2,-1
 250 350 l 2,3,4
 250 200 250 200 400 200 c 128,-1,5
 550 200 550 200 550 350 c 2,6,-1
 550 800 l 1,7,-1
 750 800 l 1,8,-1
 750 350 l 2,9,10
 750 0.00500488 750 0.00500488 400 0 c 128,-1,11
 50.005 0 50.005 0 50 350 c 2,0,-1
400 1200 m 1,12,-1
 600 900 l 1,13,-1
 400 900 l 1,14,-1
 200 1200 l 1,15,-1
 400 1200 l 1,12,-1
EndSplineSet
EndChar

StartChar: Yacute
Encoding: 221 221 155
Width: 900
Flags: MW
HStem: 0 21G<350 350 350 550> 780 20G
VStem: 50 200<599.99 799.99> 350 200<0 200 0 200> 650 200<599.99 799.99>
CounterMasks: 1 38
LayerCount: 2
Fore
SplineSet
350 0 m 1,0,-1
 350 200 l 1,1,2
 50 249.995 50 249.995 50 599.99 c 2,3,-1
 50 799.99 l 1,4,-1
 250 799.99 l 1,5,-1
 250 599.99 l 2,6,7
 250 399.995 250 399.995 450 399.99 c 128,-1,8
 649.995 399.99 649.995 399.99 650 599.99 c 2,9,-1
 650 799.99 l 1,10,-1
 850 799.99 l 1,11,-1
 850 599.99 l 2,12,13
 850 249.995 850 249.995 550 200 c 1,14,-1
 550 0 l 1,15,-1
 350 0 l 1,0,-1
650 1200 m 1,16,-1
 450 900 l 1,17,-1
 250 900 l 1,18,-1
 450 1200 l 1,19,-1
 650 1200 l 1,16,-1
EndSplineSet
EndChar

StartChar: aacute
Encoding: 225 225 156
Width: 1200
Flags: MW
HStem: 0 200<216.665 850 300 850> 600 200<50 850 50 850>
VStem: 50 200<233.335 266.665 233.335 333.335> 950 200<333.335 466.665>
LayerCount: 2
Fore
SplineSet
50 250 m 128,-1,1
 50 500.005 50 500.005 300 500 c 2,2,-1
 850 500 l 1,3,-1
 850 300 l 1,4,-1
 300 300 l 2,5,6
 250.005 300 250.005 300 250 250 c 128,-1,7
 250 200.005 250 200.005 300 200 c 2,8,-1
 850 200 l 2,9,10
 950.005 200 950.005 200 950 400 c 128,-1,11
 950 599.995 950 599.995 850 600 c 2,12,-1
 50 600 l 1,13,-1
 50 800 l 1,14,-1
 850 800 l 2,15,16
 1150 800 1150 800 1150 400 c 128,-1,17
 1150 -0.00500488 1150 -0.00500488 850 0 c 2,18,-1
 300 0 l 2,19,0
 49.995 0 49.995 0 50 250 c 128,-1,1
800 1200 m 1,20,-1
 600 900 l 1,21,-1
 400 900 l 1,22,-1
 600 1200 l 1,23,-1
 800 1200 l 1,20,-1
EndSplineSet
EndChar

StartChar: acircumflex
Encoding: 226 226 157
Width: 1200
Flags: MW
HStem: 0 200<216.665 850 300 850> 600 200<50 850 50 850>
VStem: 50 200<233.335 266.665 233.335 333.335> 950 200<333.335 466.665>
LayerCount: 2
Fore
SplineSet
50 250 m 128,-1,1
 50 500.005 50 500.005 300 500 c 2,2,-1
 850 500 l 1,3,-1
 850 300 l 1,4,-1
 300 300 l 2,5,6
 250.005 300 250.005 300 250 250 c 128,-1,7
 250 200.005 250 200.005 300 200 c 2,8,-1
 850 200 l 2,9,10
 950.005 200 950.005 200 950 400 c 128,-1,11
 950 599.995 950 599.995 850 600 c 2,12,-1
 50 600 l 1,13,-1
 50 800 l 1,14,-1
 850 800 l 2,15,16
 1150 800 1150 800 1150 400 c 128,-1,17
 1150 -0.00500488 1150 -0.00500488 850 0 c 2,18,-1
 300 0 l 2,19,0
 49.995 0 49.995 0 50 250 c 128,-1,1
900 900 m 1,20,-1
 900 1100 l 1,21,-1
 600 1300 l 1,22,-1
 300 1100 l 1,23,-1
 300 900 l 1,24,-1
 600 1100 l 1,25,-1
 900 900 l 1,20,-1
EndSplineSet
EndChar

StartChar: adieresis
Encoding: 228 228 158
Width: 1200
Flags: MW
HStem: 0 200<216.665 850 300 850> 600 200<50 850 50 850> 900 200<450 463.665 450 463.665>
VStem: 50 200<233.335 266.665 233.335 333.335> 950 200<333.335 466.665>
LayerCount: 2
Fore
SplineSet
50 250 m 128,-1,1
 50 500.005 50 500.005 300 500 c 2,2,-1
 850 500 l 1,3,-1
 850 300 l 1,4,-1
 300 300 l 2,5,6
 250.005 300 250.005 300 250 250 c 128,-1,7
 250 200.005 250 200.005 300 200 c 2,8,-1
 850 200 l 2,9,10
 950.005 200 950.005 200 950 400 c 128,-1,11
 950 599.995 950 599.995 850 600 c 2,12,-1
 50 600 l 1,13,-1
 50 800 l 1,14,-1
 850 800 l 2,15,16
 1150 800 1150 800 1150 400 c 128,-1,17
 1150 -0.00500488 1150 -0.00500488 850 0 c 2,18,-1
 300 0 l 2,19,0
 49.995 0 49.995 0 50 250 c 128,-1,1
379.5 1070.5 m 128,-1,21
 409.005 1100.02 409.005 1100.02 450 1100 c 128,-1,22
 490.995 1100 490.995 1100 520.5 1070.5 c 128,-1,23
 550.005 1040.99 550.005 1040.99 550 1000 c 128,-1,24
 550 959.005 550 959.005 520.5 929.5 c 128,-1,25
 490.995 899.995 490.995 899.995 450 900 c 128,-1,26
 409.005 900 409.005 900 379.5 929.5 c 128,-1,27
 349.995 959.005 349.995 959.005 350 1000 c 128,-1,20
 350 1040.99 350 1040.99 379.5 1070.5 c 128,-1,21
679.5 1070.51 m 128,-1,29
 709.005 1100.03 709.005 1100.03 750 1100.01 c 128,-1,30
 790.995 1100.01 790.995 1100.01 820.5 1070.51 c 128,-1,31
 850.005 1041 850.005 1041 850 1000.01 c 128,-1,32
 850 959.015 850 959.015 820.5 929.51 c 128,-1,33
 790.995 900.005 790.995 900.005 750 900.01 c 128,-1,34
 709.005 900.01 709.005 900.01 679.5 929.51 c 128,-1,35
 649.995 959.015 649.995 959.015 650 1000.01 c 128,-1,28
 650 1041 650 1041 679.5 1070.51 c 128,-1,29
EndSplineSet
EndChar

StartChar: agrave
Encoding: 224 224 159
Width: 1200
Flags: MW
HStem: 0 200<216.665 850 300 850> 600 200<50 850 50 850>
VStem: 50 200<233.335 266.665 233.335 333.335> 950 200<333.335 466.665>
LayerCount: 2
Fore
SplineSet
50 250 m 128,-1,1
 50 500.005 50 500.005 300 500 c 2,2,-1
 850 500 l 1,3,-1
 850 300 l 1,4,-1
 300 300 l 2,5,6
 250.005 300 250.005 300 250 250 c 128,-1,7
 250 200.005 250 200.005 300 200 c 2,8,-1
 850 200 l 2,9,10
 950.005 200 950.005 200 950 400 c 128,-1,11
 950 599.995 950 599.995 850 600 c 2,12,-1
 50 600 l 1,13,-1
 50 800 l 1,14,-1
 850 800 l 2,15,16
 1150 800 1150 800 1150 400 c 128,-1,17
 1150 -0.00500488 1150 -0.00500488 850 0 c 2,18,-1
 300 0 l 2,19,0
 49.995 0 49.995 0 50 250 c 128,-1,1
600 1200 m 1,20,-1
 800 900 l 1,21,-1
 600 900 l 1,22,-1
 400 1200 l 1,23,-1
 600 1200 l 1,20,-1
EndSplineSet
EndChar

StartChar: aring
Encoding: 229 229 160
Width: 1200
Flags: MW
HStem: 0 200<216.665 850 300 850> 600 200<50 850 50 850> 800 100 1100 100<598 598>
VStem: 50 200<233.335 266.665 233.335 333.335> 398 100<986.345 1013.68 986.345 1027.67> 698 100<986.345 1013.68> 950 200<333.335 466.665>
LayerCount: 2
Fore
SplineSet
50 250 m 128,-1,1
 50 500.005 50 500.005 300 500 c 2,2,-1
 850 500 l 1,3,-1
 850 300 l 1,4,-1
 300 300 l 2,5,6
 250.005 300 250.005 300 250 250 c 128,-1,7
 250 200.005 250 200.005 300 200 c 2,8,-1
 850 200 l 2,9,10
 950.005 200 950.005 200 950 400 c 128,-1,11
 950 599.995 950 599.995 850 600 c 2,12,-1
 50 600 l 1,13,-1
 50 800 l 1,14,-1
 850 800 l 2,15,16
 1150 800 1150 800 1150 400 c 128,-1,17
 1150 -0.00500488 1150 -0.00500488 850 0 c 2,18,-1
 300 0 l 2,19,0
 49.995 0 49.995 0 50 250 c 128,-1,1
739.5 1141.5 m 128,-1,21
 798 1083 798 1083 798 1000 c 128,-1,22
 798 917.005 798 917.005 739.5 858.5 c 128,-1,23
 681 800 681 800 598 800 c 128,-1,24
 515.005 800 515.005 800 456.5 858.5 c 128,-1,25
 398 917 398 917 398 1000 c 128,-1,26
 398 1083.01 398 1083.01 456.5 1141.5 c 128,-1,27
 515 1200 515 1200 598 1200 c 128,-1,20
 680.995 1200 680.995 1200 739.5 1141.5 c 128,-1,21
598 1100 m 128,-1,29
 557.005 1100.02 557.005 1100.02 527.5 1070.51 c 128,-1,30
 497.995 1041.02 497.995 1041.02 498 1000.01 c 128,-1,31
 498 959.015 498 959.015 527.5 929.51 c 128,-1,32
 557.005 900.005 557.005 900.005 598 900.01 c 128,-1,33
 638.995 900.01 638.995 900.01 668.5 929.51 c 128,-1,34
 698.005 959.015 698.005 959.015 698 1000.01 c 128,-1,35
 698 1041.02 698 1041.02 668.5 1070.51 c 128,-1,28
 638.995 1100.02 638.995 1100.02 598 1100 c 128,-1,29
EndSplineSet
EndChar

StartChar: atilde
Encoding: 227 227 161
Width: 1200
Flags: MW
HStem: 0 200<216.665 850 300 850> 600 200<50 850 50 850>
VStem: 50 200<233.335 266.665 233.335 333.335> 950 200<333.335 466.665>
LayerCount: 2
Fore
SplineSet
50 250 m 128,-1,1
 50 500.005 50 500.005 300 500 c 2,2,-1
 850 500 l 1,3,-1
 850 300 l 1,4,-1
 300 300 l 2,5,6
 250.005 300 250.005 300 250 250 c 128,-1,7
 250 200.005 250 200.005 300 200 c 2,8,-1
 850 200 l 2,9,10
 950.005 200 950.005 200 950 400 c 128,-1,11
 950 599.995 950 599.995 850 600 c 2,12,-1
 50 600 l 1,13,-1
 50 800 l 1,14,-1
 850 800 l 2,15,16
 1150 800 1150 800 1150 400 c 128,-1,17
 1150 -0.00500488 1150 -0.00500488 850 0 c 2,18,-1
 300 0 l 2,19,0
 49.995 0 49.995 0 50 250 c 128,-1,1
800 1125 m 1,20,-1
 800 925 l 1,21,22
 699.995 875.005 699.995 875.005 599.99 925 c 128,-1,23
 499.985 974.995 499.985 974.995 399.98 925 c 1,24,-1
 399.98 1025 l 1,25,-1
 399.98 1125 l 1,26,27
 499.985 1174.99 499.985 1174.99 599.99 1125 c 128,-1,28
 699.995 1075.01 699.995 1075.01 800 1125 c 1,20,-1
EndSplineSet
EndChar

StartChar: Dcroat
Encoding: 272 272 162
Width: 1300
Flags: MW
HStem: 0 200<150 950.01 400.01 950.01 400.01 950.01> 300 200<50 150 50 150 350 450> 600 200<416.665 950.01 450.01 950>
VStem: 150 200<0 300 0 300> 1050 200
LayerCount: 2
Fore
SplineSet
150 500 m 1,0,1
 150.01 800 150.01 800 450.01 800 c 2,2,-1
 950.01 800 l 2,3,4
 1250.01 800 1250.01 800 1250.01 500 c 2,5,-1
 1250.01 300 l 2,6,7
 1250.01 0 1250.01 0 950.01 0 c 2,8,-1
 400.01 0 l 1,9,-1
 400.01 200 l 1,10,-1
 950.01 200 l 2,11,12
 1050.02 200 1050.02 200 1050 300 c 2,13,-1
 1050 500 l 2,14,15
 1050 600.005 1050 600.005 950 600 c 2,16,-1
 450 600 l 2,17,18
 349.995 600 349.995 600 350 500 c 1,19,-1
 450 500 l 1,20,-1
 450 300 l 1,21,-1
 350 300 l 1,22,-1
 350 0 l 1,23,-1
 150 0 l 1,24,-1
 150 300 l 1,25,-1
 50 300 l 1,26,-1
 50 500 l 1,27,-1
 150 500 l 1,0,1
EndSplineSet
EndChar

StartChar: ccaron
Encoding: 269 269 163
Width: 900
Flags: MW
HStem: 0 200<283.335 850 400 850> 600 200<350 850 400 850>
VStem: 50 200<333.335 466.665 333.335 533.335>
LayerCount: 2
Fore
SplineSet
850 0 m 1,0,-1
 400 0 l 2,1,2
 50.005 0 50.005 0 50 400 c 128,-1,3
 50 800.005 50 800.005 400 800 c 2,4,-1
 850 800 l 1,5,-1
 850 600 l 1,6,-1
 400 600 l 2,7,8
 250 600 250 600 250 400 c 128,-1,9
 250 200.005 250 200.005 400 200 c 2,10,-1
 850 200 l 1,11,-1
 850 0 l 1,0,-1
550 1100 m 1,12,-1
 250 1300 l 1,13,-1
 250 1100 l 1,14,-1
 550 900 l 1,15,-1
 850 1100 l 1,16,-1
 850 1300 l 1,17,-1
 550 1100 l 1,12,-1
EndSplineSet
EndChar

StartChar: ccircumflex
Encoding: 265 265 164
Width: 900
Flags: MW
HStem: 0 200<283.335 850 400 850> 600 200<350 850 400 850>
VStem: 50 200<333.335 466.665 333.335 533.335>
LayerCount: 2
Fore
SplineSet
850 0 m 1,0,-1
 400 0 l 2,1,2
 50.005 0 50.005 0 50 400 c 128,-1,3
 50 800.005 50 800.005 400 800 c 2,4,-1
 850 800 l 1,5,-1
 850 600 l 1,6,-1
 400 600 l 2,7,8
 250 600 250 600 250 400 c 128,-1,9
 250 200.005 250 200.005 400 200 c 2,10,-1
 850 200 l 1,11,-1
 850 0 l 1,0,-1
850 900 m 1,12,-1
 850 1100 l 1,13,-1
 550 1300 l 1,14,-1
 250 1100 l 1,15,-1
 250 900 l 1,16,-1
 550 1100 l 1,17,-1
 850 900 l 1,12,-1
EndSplineSet
EndChar

StartChar: cdotaccent
Encoding: 267 267 165
Width: 900
Flags: MW
HStem: 0 200<283.335 850 400 850> 600 200<350 850 400 850>
VStem: 50 200<333.335 466.665 333.335 533.335>
LayerCount: 2
Fore
SplineSet
850 0 m 1,0,-1
 400 0 l 2,1,2
 50.005 0 50.005 0 50 400 c 128,-1,3
 50 800.005 50 800.005 400 800 c 2,4,-1
 850 800 l 1,5,-1
 850 600 l 1,6,-1
 400 600 l 2,7,8
 250 600 250 600 250 400 c 128,-1,9
 250 200.005 250 200.005 400 200 c 2,10,-1
 850 200 l 1,11,-1
 850 0 l 1,0,-1
620.5 1070.5 m 128,-1,13
 650.005 1041.01 650.005 1041.01 650 1000.01 c 128,-1,14
 650 959.015 650 959.015 620.5 929.51 c 128,-1,15
 590.995 900.005 590.995 900.005 550 900.01 c 128,-1,16
 509.005 900.01 509.005 900.01 479.5 929.51 c 128,-1,17
 449.995 959.015 449.995 959.015 450 1000.01 c 128,-1,18
 450 1041 450 1041 479.5 1070.51 c 128,-1,19
 509.005 1100.02 509.005 1100.02 550 1100 c 128,-1,12
 590.995 1100 590.995 1100 620.5 1070.5 c 128,-1,13
EndSplineSet
EndChar

StartChar: dieresistonos
Encoding: 901 901 166
Width: 800
Flags: W
LayerCount: 2
Fore
SplineSet
79.5 1070.5 m 128,-1,1
 109.005 1100.01 109.005 1100.01 150 1100 c 128,-1,2
 190.995 1100 190.995 1100 220.5 1070.5 c 128,-1,3
 250.005 1040.99 250.005 1040.99 250 1000 c 128,-1,4
 250 959.005 250 959.005 220.5 929.5 c 128,-1,5
 190.995 899.995 190.995 899.995 150 900 c 128,-1,6
 109.005 900 109.005 900 79.5 929.5 c 128,-1,7
 49.9952 959.005 49.9952 959.005 50 1000 c 128,-1,0
 50 1040.99 50 1040.99 79.5 1070.5 c 128,-1,1
579.5 1070.5 m 128,-1,9
 609.005 1100.01 609.005 1100.01 650 1100 c 128,-1,10
 690.995 1100 690.995 1100 720.5 1070.5 c 128,-1,11
 750.005 1040.99 750.005 1040.99 750 1000 c 128,-1,12
 750 959.005 750 959.005 720.5 929.5 c 128,-1,13
 690.995 899.995 690.995 899.995 650 900 c 128,-1,14
 609.005 900 609.005 900 579.5 929.5 c 128,-1,15
 549.995 959.005 549.995 959.005 550 1000 c 128,-1,8
 550 1040.99 550 1040.99 579.5 1070.5 c 128,-1,9
550 1100 m 1,16,-1
 450 900 l 1,17,-1
 250 900 l 1,18,-1
 350 1100 l 1,19,-1
 550 1100 l 1,16,-1
EndSplineSet
EndChar

StartChar: pi
Encoding: 960 960 167
Width: 900
Flags: W
LayerCount: 2
Fore
SplineSet
200 501 m 1,0,1
 150.005 500.005 150.005 500.005 50 400 c 1,2,-1
 50 600 l 1,3,4
 150.005 700.005 150.005 700.005 350 700 c 2,5,-1
 550 700 l 2,6,7
 749.995 700 749.995 700 850 800 c 1,8,-1
 850 600 l 1,9,10
 770.005 520.005 770.005 520.005 700 520 c 1,11,-1
 700 0 l 1,12,-1
 500 0 l 1,13,-1
 500 500 l 1,14,-1
 400 500 l 1,15,-1
 400 0 l 1,16,-1
 200 0 l 1,17,-1
 200 501 l 1,0,1
EndSplineSet
EndChar

StartChar: uni00A0
Encoding: 160 160 168
Width: 500
Flags: MW
HStem: 300 200<50 450 50 450>
LayerCount: 2
Fore
SplineSet
450 300 m 1,0,-1
 50 300 l 1,1,-1
 50 500 l 1,2,-1
 450 500 l 1,3,-1
 450 300 l 1,0,-1
EndSplineSet
EndChar

StartChar: uni00AD
Encoding: 173 173 169
Width: 350
Flags: MW
HStem: 300 200<50 300 50 300>
VStem: 50 250<300 500 300 500>
LayerCount: 2
Fore
SplineSet
300 300 m 1,0,-1
 50 300 l 1,1,-1
 50 500 l 1,2,-1
 300 500 l 1,3,-1
 300 300 l 1,0,-1
EndSplineSet
EndChar

StartChar: uni02C9
Encoding: 713 713 170
Width: 700
Flags: MW
HStem: 900 200<50 650 50 650>
LayerCount: 2
Fore
SplineSet
50 1100 m 1,0,-1
 650 1100 l 1,1,-1
 650 900 l 1,2,-1
 50 900 l 1,3,-1
 50 1100 l 1,0,-1
EndSplineSet
EndChar

StartChar: uniF000
Encoding: 61440 61440 171
Width: 900
Flags: MW
HStem: 0 21G<200 400 200 200 500 700 500 500> 780 20G<750 750>
VStem: 200 200<0 444 444 444.01 444.01 444.01> 500 200<0 500 500 500>
LayerCount: 2
Fore
SplineSet
200 444 m 1,0,1
 174.995 425.005 174.995 425.005 149.99 400 c 1,2,-1
 49.9902 600 l 1,3,4
 149.995 700.005 149.995 700.005 349.99 700 c 2,5,-1
 549.99 700 l 2,6,7
 650 700 650 700 750 800 c 1,8,-1
 850 600 l 1,9,10
 775 525 775 525 700 506 c 1,11,-1
 700 0 l 1,12,-1
 500 0 l 1,13,-1
 500 500 l 1,14,-1
 400 500 l 1,15,-1
 400 0 l 1,16,-1
 200 0 l 1,17,-1
 200 444 l 1,0,1
EndSplineSet
EndChar

StartChar: glyph149
Encoding: 65537 -1 172
Width: 899
Flags: MW
HStem: 0 200<216.665 850 300 850> 300 200<283.335 850 300 850> 600 200<50 850 50 850> 900 200<200 800 200 800>
VStem: 950 200<333.335 466.665>
LayerCount: 2
Fore
SplineSet
50 250 m 128,-1,1
 50 500.005 50 500.005 300 500 c 2,2,-1
 850 500 l 1,3,-1
 850 300 l 1,4,-1
 300 300 l 2,5,6
 250.005 300 250.005 300 250 250 c 128,-1,7
 250 200.005 250 200.005 300 200 c 2,8,-1
 850 200 l 2,9,10
 950.005 200 950.005 200 950 400 c 128,-1,11
 950 599.995 950 599.995 850 600 c 2,12,-1
 50 600 l 1,13,-1
 50 800 l 1,14,-1
 850 800 l 2,15,16
 1150 800 1150 800 1150 400 c 128,-1,17
 1150 -0.00500488 1150 -0.00500488 850 0 c 2,18,-1
 300 0 l 2,19,0
 49.995 0 49.995 0 50 250 c 128,-1,1
800 900 m 1,20,-1
 200 900 l 1,21,-1
 200 1100 l 1,22,-1
 800 1100 l 1,23,-1
 800 900 l 1,20,-1
EndSplineSet
EndChar

StartChar: glyph150
Encoding: 65538 -1 173
Width: 1200
Flags: MW
HStem: 0 200<216.665 850 300 850> 300 200<283.335 850 300 850> 600 200<50 850 50 850>
VStem: 300 200<1133.33 1300 1250 1300> 700 200<1200 1300 1250 1300> 950 200<333.335 466.665>
CounterMasks: 1 e0
LayerCount: 2
Fore
SplineSet
50 250 m 128,-1,1
 50 500.005 50 500.005 300 500 c 2,2,-1
 850 500 l 1,3,-1
 850 300 l 1,4,-1
 300 300 l 2,5,6
 250.005 300 250.005 300 250 250 c 128,-1,7
 250 200.005 250 200.005 300 200 c 2,8,-1
 850 200 l 2,9,10
 950.005 200 950.005 200 950 400 c 128,-1,11
 950 599.995 950 599.995 850 600 c 2,12,-1
 50 600 l 1,13,-1
 50 800 l 1,14,-1
 850 800 l 2,15,16
 1150 800 1150 800 1150 400 c 128,-1,17
 1150 -0.00500488 1150 -0.00500488 850 0 c 2,18,-1
 300 0 l 2,19,0
 49.995 0 49.995 0 50 250 c 128,-1,1
600 1100 m 128,-1,21
 499.995 1100 499.995 1100 500 1250 c 2,22,-1
 500 1300 l 1,23,-1
 300 1300 l 1,24,-1
 300 1250 l 2,25,26
 300 900.005 300 900.005 600 900 c 128,-1,27
 900 900 900 900 900 1250 c 2,28,-1
 900 1300 l 1,29,-1
 700 1300 l 1,30,-1
 700 1250 l 2,31,20
 700 1100 700 1100 600 1100 c 128,-1,21
EndSplineSet
EndChar

StartChar: glyph152
Encoding: 65539 -1 174
Width: 1200
Flags: MW
HStem: 0 200<250 900 350 900 350 1150 350 950> 600 200<316.665 850 350 850>
VStem: 50 200<300 500> 300 200<1133.33 1300 1250 1300> 700 200<1250 1300> 950 200<0 500 0 533.335>
LayerCount: 2
Fore
SplineSet
600 1100 m 128,-1,1
 499.995 1100 499.995 1100 500 1250 c 2,2,-1
 500 1300 l 1,3,-1
 300 1300 l 1,4,-1
 300 1250 l 2,5,6
 300 900.005 300 900.005 600 900 c 128,-1,7
 900 900 900 900 900 1250 c 2,8,-1
 900 1300 l 1,9,-1
 700 1300 l 1,10,-1
 700 1250 l 2,11,0
 700 1100 700 1100 600 1100 c 128,-1,1
50 300 m 2,12,-1
 50 500 l 2,13,14
 50 800 50 800 350 800 c 2,15,-1
 850 800 l 2,16,17
 1150 800 1150 800 1150 500 c 2,18,-1
 1150 0 l 1,19,-1
 950 0 l 1,20,-1
 950 500 l 2,21,22
 950 600.005 950 600.005 850 600 c 2,23,-1
 350 600 l 2,24,25
 249.995 600 249.995 600 250 500 c 2,26,-1
 250 300 l 2,27,28
 250 199.995 250 199.995 350 200 c 2,29,-1
 900 200 l 1,30,-1
 900 0 l 1,31,-1
 350 0 l 2,32,33
 50 0 50 0 50 300 c 2,12,-1
EndSplineSet
EndChar

StartChar: glyph153
Encoding: 65540 -1 175
Width: 800
Flags: MW
HStem: 0 21G<50 250 50 50 350 550 350 350> 780 20G<50 250 250 250 350 550 550 550>
LayerCount: 2
Fore
SplineSet
550 400 m 1,0,-1
 350 800 l 1,1,-1
 550 800 l 1,2,-1
 750 400 l 1,3,-1
 550 0 l 1,4,-1
 350 0 l 1,5,-1
 550 400 l 1,0,-1
250 400 m 1,6,-1
 50 800 l 1,7,-1
 250 800 l 1,8,-1
 450 400 l 1,9,-1
 250 0 l 1,10,-1
 50 0 l 1,11,-1
 250 400 l 1,6,-1
EndSplineSet
EndChar

StartChar: glyph154
Encoding: 65541 -1 176
Width: 800
Flags: MW
HStem: 0 200 0.00999451 199.99 780 20 780.02 20G
VStem: 49.99 199.99 50 200<300.001 800.001>
LayerCount: 2
Fore
SplineSet
49.9902 800.02 m 1,0,-1
 249.99 800.021 l 1,1,-1
 249.99 637.28 l 1,2,-1
 400 705.61 l 1,3,-1
 400 486.261 l 1,4,-1
 249.99 417.811 l 1,5,-1
 249.99 300.011 l 2,6,7
 249.99 200.006 249.99 200.006 349.98 200.011 c 2,8,-1
 750.011 200.011 l 1,9,-1
 750.011 0.0205078 l 1,10,-1
 349.98 0.0205078 l 2,11,12
 49.98 0.0205078 49.98 0.0205078 49.9902 300.011 c 2,13,-1
 49.9902 326.551 l 1,14,-1
 -50.0098 280.9 l 1,15,-1
 -50.0098 500.67 l 1,16,-1
 49.9902 546.189 l 1,17,-1
 49.9902 800.02 l 1,0,-1
50 800.001 m 1,18,-1
 250 800.001 l 1,19,-1
 250 300.001 l 2,20,21
 250 199.996 250 199.996 350 200.001 c 2,22,-1
 750 200.001 l 1,23,-1
 750 0.000976562 l 1,24,-1
 350 0.000976562 l 2,25,26
 50 0.000976562 50 0.000976562 50 300.001 c 2,27,-1
 50 800.001 l 1,18,-1
EndSplineSet
EndChar

StartChar: glyph155
Encoding: 65542 -1 177
Width: 1000
Flags: MW
HStem: 0 200<50 650 50 650> 300 200<50 650 50 650> 600 200<50 650 50 650>
VStem: 750 200<233.335 266.665 533.335 566.665>
CounterMasks: 1 e0
LayerCount: 2
Fore
SplineSet
650 0 m 2,0,-1
 50 0 l 1,1,-1
 50 200 l 1,2,-1
 650 200 l 2,3,4
 750.005 200 750.005 200 750 250 c 128,-1,5
 750 299.995 750 299.995 650 300 c 2,6,-1
 50 300 l 1,7,-1
 50 500 l 1,8,-1
 650 500 l 2,9,10
 750.005 500 750.005 500 750 550 c 128,-1,11
 750 599.995 750 599.995 650 600 c 2,12,-1
 50 600 l 1,13,-1
 50 800 l 1,14,-1
 650 800 l 2,15,16
 950 800 950 800 950 550 c 0,17,18
 950 449.995 950 449.995 900 400 c 1,19,20
 949.995 350.005 949.995 350.005 950 250 c 0,21,22
 950 -0.00485229 950 -0.00485229 650 0 c 2,0,-1
EndSplineSet
EndChar

StartChar: glyph156
Encoding: 65543 -1 178
Width: 900
Flags: MW
HStem: 0 21G<450 650 450 450> 100 200<250 450 250 450 650 850> 500 200<316.665 600 350 600 600 616.665 350 650> 780 20G<650 850 850 850>
VStem: 50 200<300 400 300 400 300 500> 450 200<0 100 0 100 300 400>
LayerCount: 2
Fore
SplineSet
850 100 m 1,0,-1
 650 100 l 1,1,-1
 650 0 l 1,2,-1
 450 0 l 1,3,-1
 450 100 l 1,4,-1
 50 100 l 1,5,-1
 50 400 l 2,6,7
 50 700 50 700 350 700 c 2,8,-1
 600 700 l 2,9,10
 649.995 700 649.995 700 650 750 c 2,11,-1
 650 800 l 1,12,-1
 850 800 l 1,13,-1
 850 750 l 2,14,15
 850 499.995 850 499.995 650 500 c 2,16,-1
 350 500 l 2,17,18
 249.995 500 249.995 500 250 400 c 2,19,-1
 250 300 l 1,20,-1
 450 300 l 1,21,-1
 450 400 l 1,22,-1
 650 400 l 1,23,-1
 650 300 l 1,24,-1
 850 300 l 1,25,-1
 850 100 l 1,0,-1
EndSplineSet
EndChar

StartChar: glyph157
Encoding: 65544 -1 179
Width: 1300
Flags: MW
HStem: 0 15<388.335 411.665 388.335 413.665> 41 19<368 435 383 435 383 453> 89 20<371 383 394 433> 185 15<388.335 411.665> 600 200<350 450 850 950>
VStem: 50 200<0 450 0 566.665> 300 15<88.335 111.665 88.335 113.665> 342 21<70.665 80.335 70.665 85.665> 433 20<109 158> 485 15<88.335 111.665> 550 200<0 450 0 500> 1050 200<0 450 0 500>
LayerCount: 2
Fore
SplineSet
1250 450 m 2,0,-1
 1250 0 l 1,1,-1
 1050 0 l 1,2,-1
 1050 450 l 2,3,4
 1050 600 1050 600 900 600 c 128,-1,5
 750 600 750 600 750 450 c 2,6,-1
 750 0 l 1,7,-1
 550 0 l 1,8,-1
 550 450 l 2,9,10
 550 600 550 600 400 600 c 128,-1,11
 250 600 250 600 250 450 c 2,12,-1
 250 0 l 1,13,-1
 50 0 l 1,14,-1
 50 450 l 2,15,16
 50 799.995 50 799.995 400 800 c 0,17,18
 550 800 550 800 650 700 c 1,19,20
 750.005 800.005 750.005 800.005 900 800 c 0,21,22
 1249.99 800 1249.99 800 1250 450 c 2,0,-1
400 0 m 128,-1,24
 440.995 0 440.995 0 470.5 29.5 c 128,-1,25
 500.005 59.0048 500.005 59.0048 500 100 c 128,-1,26
 500 140.995 500 140.995 470.5 170.5 c 128,-1,27
 440.995 200.005 440.995 200.005 400 200 c 128,-1,28
 359.005 200 359.005 200 329.5 170.5 c 128,-1,29
 299.995 140.995 299.995 140.995 300 100 c 128,-1,30
 300 59.0048 300 59.0048 329.5 29.5 c 128,-1,23
 359.005 -0.004879 359.005 -0.004879 400 0 c 128,-1,24
453 41 m 1,31,-1
 381 41 l 2,32,33
 342 41 342 41 342 77 c 0,34,35
 342 102.995 342 102.995 371 109 c 1,36,-1
 339 158 l 1,37,-1
 361 158 l 1,38,-1
 394 109 l 1,39,-1
 433 109 l 1,40,-1
 433 158 l 1,41,-1
 453 158 l 1,42,-1
 453 41 l 1,31,-1
435 60 m 1,43,-1
 435 89 l 1,44,-1
 383 89 l 2,45,46
 363.005 89 363.005 89 363 76 c 0,47,48
 363 59.9952 363 59.9952 383 60 c 2,49,-1
 435 60 l 1,43,-1
340 40 m 128,-1,51
 314.995 65.0049 314.995 65.0049 315 100 c 128,-1,52
 315 134.995 315 134.995 340 160 c 128,-1,53
 365.005 185.005 365.005 185.005 400 185 c 128,-1,54
 434.995 185 434.995 185 460 160 c 128,-1,55
 485.005 134.995 485.005 134.995 485 100 c 128,-1,56
 485 65.0049 485 65.0049 460 40 c 128,-1,57
 434.995 14.9951 434.995 14.9951 400 15 c 128,-1,50
 365.005 15 365.005 15 340 40 c 128,-1,51
EndSplineSet
EndChar

StartChar: glyph158
Encoding: 65545 -1 180
Width: 800
Flags: MW
HStem: 0 15<388.335 411.665 388.335 413.665> 41 19<368 435 383 435 383 453> 89 20<371 383 394 433> 185 15<388.335 411.665> 600 200<350 450>
VStem: 50 200<0 450 0 566.665> 300 15<88.335 111.665 88.335 113.665> 342 21<70.665 80.335 70.665 85.665> 433 20<109 158> 485 15<88.335 111.665> 550 200<0 450 0 500>
LayerCount: 2
Fore
SplineSet
750 450 m 2,0,-1
 750 0 l 1,1,-1
 550 0 l 1,2,-1
 550 450 l 2,3,4
 550 600 550 600 400 600 c 128,-1,5
 250 600 250 600 250 450 c 2,6,-1
 250 0 l 1,7,-1
 50 0 l 1,8,-1
 50 450 l 2,9,10
 50 799.995 50 799.995 400 800 c 128,-1,11
 749.995 800 749.995 800 750 450 c 2,0,-1
400 0 m 128,-1,13
 440.995 0 440.995 0 470.5 29.5 c 128,-1,14
 500.005 59.0048 500.005 59.0048 500 100 c 128,-1,15
 500 140.995 500 140.995 470.5 170.5 c 128,-1,16
 440.995 200.005 440.995 200.005 400 200 c 128,-1,17
 359.005 200 359.005 200 329.5 170.5 c 128,-1,18
 299.995 140.995 299.995 140.995 300 100 c 128,-1,19
 300 59.0048 300 59.0048 329.5 29.5 c 128,-1,12
 359.005 -0.004879 359.005 -0.004879 400 0 c 128,-1,13
453 41 m 1,20,-1
 381 41 l 2,21,22
 342 41 342 41 342 77 c 0,23,24
 342 102.995 342 102.995 371 109 c 1,25,-1
 339 158 l 1,26,-1
 361 158 l 1,27,-1
 394 109 l 1,28,-1
 433 109 l 1,29,-1
 433 158 l 1,30,-1
 453 158 l 1,31,-1
 453 41 l 1,20,-1
435 60 m 1,32,-1
 435 89 l 1,33,-1
 383 89 l 2,34,35
 363.005 89 363.005 89 363 76 c 0,36,37
 363 59.9952 363 59.9952 383 60 c 2,38,-1
 435 60 l 1,32,-1
340 40 m 128,-1,40
 314.995 65.0049 314.995 65.0049 315 100 c 128,-1,41
 315 134.995 315 134.995 340 160 c 128,-1,42
 365.005 185.005 365.005 185.005 400 185 c 128,-1,43
 434.995 185 434.995 185 460 160 c 128,-1,44
 485.005 134.995 485.005 134.995 485 100 c 128,-1,45
 485 65.0049 485 65.0049 460 40 c 128,-1,46
 434.995 14.9951 434.995 14.9951 400 15 c 128,-1,39
 365.005 15 365.005 15 340 40 c 128,-1,40
EndSplineSet
EndChar

StartChar: glyph159
Encoding: 65546 -1 181
Width: 800
Flags: MW
HStem: 0 200<350 450 350 516.665> 600 15<388.335 411.665 388.335 413.665> 691 20<367 406 367 367 365 429> 740 19<365 365 365 417> 785 15<388.335 411.665>
VStem: 50 200<350 800> 300 15<688.335 711.665 688.335 713.665> 347 20<642 691 642 759> 437 21<719.665 729.335> 485 15<688.335 711.665> 550 200<350 800>
LayerCount: 2
Fore
SplineSet
50 350 m 2,0,-1
 50 800 l 1,1,-1
 250 800 l 1,2,-1
 250 350 l 2,3,4
 250 200 250 200 400 200 c 128,-1,5
 550 200 550 200 550 350 c 2,6,-1
 550 800 l 1,7,-1
 750 800 l 1,8,-1
 750 350 l 2,9,10
 750 0.00500488 750 0.00500488 400 0 c 128,-1,11
 50.005 0 50.005 0 50 350 c 2,0,-1
400 800 m 128,-1,13
 359.005 800 359.005 800 329.5 770.5 c 128,-1,14
 299.995 740.995 299.995 740.995 300 700 c 128,-1,15
 300 659.005 300 659.005 329.5 629.5 c 128,-1,16
 359.005 599.995 359.005 599.995 400 600 c 128,-1,17
 440.995 600 440.995 600 470.5 629.5 c 128,-1,18
 500.005 659.005 500.005 659.005 500 700 c 128,-1,19
 500 740.995 500 740.995 470.5 770.5 c 128,-1,12
 440.995 800.005 440.995 800.005 400 800 c 128,-1,13
347 759 m 1,20,-1
 419 759 l 2,21,22
 458 759 458 759 458 723 c 0,23,24
 458 697.005 458 697.005 429 691 c 1,25,-1
 461 642 l 1,26,-1
 439 642 l 1,27,-1
 406 691 l 1,28,-1
 367 691 l 1,29,-1
 367 642 l 1,30,-1
 347 642 l 1,31,-1
 347 759 l 1,20,-1
365 740 m 1,32,-1
 365 711 l 1,33,-1
 417 711 l 2,34,35
 436.995 711 436.995 711 437 724 c 0,36,37
 437 740.005 437 740.005 417 740 c 2,38,-1
 365 740 l 1,32,-1
460 760 m 128,-1,40
 485.005 734.995 485.005 734.995 485 700 c 128,-1,41
 485 665.005 485 665.005 460 640 c 128,-1,42
 434.995 614.995 434.995 614.995 400 615 c 128,-1,43
 365.005 615 365.005 615 340 640 c 128,-1,44
 314.995 665.005 314.995 665.005 315 700 c 128,-1,45
 315 734.995 315 734.995 340 760 c 128,-1,46
 365.005 785.005 365.005 785.005 400 785 c 128,-1,39
 434.995 785 434.995 785 460 760 c 128,-1,40
EndSplineSet
EndChar

StartChar: glyph160
Encoding: 65547 -1 182
Width: 1300
Flags: MW
HStem: 0 200<350 450 350 450 850 950> 600 15<888.335 911.665 888.335 913.665> 691 20<867 906 867 867 865 929> 740 19<865 865 865 917> 785 15<888.335 911.665>
VStem: 50 200<350 800> 550 200<350 800> 800 15<688.335 711.665 688.335 713.665> 847 20<642 691 642 759> 937 21<719.665 729.335> 985 15<688.335 711.665> 1050 200<350 800>
LayerCount: 2
Fore
SplineSet
50 350 m 2,0,-1
 50 800 l 1,1,-1
 250 800 l 1,2,-1
 250 350 l 2,3,4
 250 200 250 200 400 200 c 128,-1,5
 550 200 550 200 550 350 c 2,6,-1
 550 800 l 1,7,-1
 750 800 l 1,8,-1
 750 350 l 2,9,10
 750 200 750 200 900 200 c 128,-1,11
 1050 200 1050 200 1050 350 c 2,12,-1
 1050 800 l 1,13,-1
 1250 800 l 1,14,-1
 1250 350 l 2,15,16
 1250 0.00500488 1250 0.00500488 900 0 c 0,17,18
 750 0 750 0 650 100 c 1,19,20
 549.995 -0.00485229 549.995 -0.00485229 400 0 c 0,21,22
 50.005 0 50.005 0 50 350 c 2,0,-1
900 800 m 128,-1,24
 859.005 800 859.005 800 829.5 770.5 c 128,-1,25
 799.995 740.995 799.995 740.995 800 700 c 128,-1,26
 800 659.005 800 659.005 829.5 629.5 c 128,-1,27
 859.005 599.995 859.005 599.995 900 600 c 128,-1,28
 940.995 600 940.995 600 970.5 629.5 c 128,-1,29
 1000.01 659.005 1000.01 659.005 1000 700 c 128,-1,30
 1000 740.995 1000 740.995 970.5 770.5 c 128,-1,23
 940.995 800.005 940.995 800.005 900 800 c 128,-1,24
847 759 m 1,31,-1
 919 759 l 2,32,33
 958 759 958 759 958 723 c 0,34,35
 958 697.005 958 697.005 929 691 c 1,36,-1
 961 642 l 1,37,-1
 939 642 l 1,38,-1
 906 691 l 1,39,-1
 867 691 l 1,40,-1
 867 642 l 1,41,-1
 847 642 l 1,42,-1
 847 759 l 1,31,-1
865 740 m 1,43,-1
 865 711 l 1,44,-1
 917 711 l 2,45,46
 936.995 711 936.995 711 937 724 c 0,47,48
 937 740.005 937 740.005 917 740 c 2,49,-1
 865 740 l 1,43,-1
960 760 m 128,-1,51
 985.005 734.995 985.005 734.995 985 700 c 128,-1,52
 985 665.005 985 665.005 960 640 c 128,-1,53
 934.995 614.995 934.995 614.995 900 615 c 128,-1,54
 865.005 615 865.005 615 840 640 c 128,-1,55
 814.995 665.005 814.995 665.005 815 700 c 128,-1,56
 815 734.995 815 734.995 840 760 c 128,-1,57
 865.005 785.005 865.005 785.005 900 785 c 128,-1,50
 934.995 785 934.995 785 960 760 c 128,-1,51
EndSplineSet
EndChar

StartChar: glyph165
Encoding: 65548 -1 183
Width: 900
Flags: MW
HStem: 0 21G<350 350 350 550> 600 15<438.335 461.665 438.335 463.665> 691 20<417 456 417 417 415 479> 740 19<415 415 415 467> 785 15<438.335 461.665>
VStem: 50 200<599.99 799.99> 350 15<688.335 711.665 688.335 713.665> 350 200<0 200 0 200 686.335 713.665> 397 20<642 691 642 759> 487 21<719.665 729.335> 535 15<688.335 711.665> 650 200<599.99 799.99>
LayerCount: 2
Fore
SplineSet
350 0 m 1,0,-1
 350 200 l 1,1,2
 50 249.995 50 249.995 50 599.99 c 2,3,-1
 50 799.99 l 1,4,-1
 250 799.99 l 1,5,-1
 250 599.99 l 2,6,7
 250 399.995 250 399.995 450 399.99 c 128,-1,8
 649.995 399.99 649.995 399.99 650 599.99 c 2,9,-1
 650 799.99 l 1,10,-1
 850 799.99 l 1,11,-1
 850 599.99 l 2,12,13
 850 249.995 850 249.995 550 200 c 1,14,-1
 550 0 l 1,15,-1
 350 0 l 1,0,-1
450 800 m 128,-1,17
 409.005 800 409.005 800 379.5 770.5 c 128,-1,18
 349.995 740.995 349.995 740.995 350 700 c 128,-1,19
 350 659.005 350 659.005 379.5 629.5 c 128,-1,20
 409.005 599.995 409.005 599.995 450 600 c 128,-1,21
 490.995 600 490.995 600 520.5 629.5 c 128,-1,22
 550.005 659.005 550.005 659.005 550 700 c 128,-1,23
 550 740.995 550 740.995 520.5 770.5 c 128,-1,16
 490.995 800.005 490.995 800.005 450 800 c 128,-1,17
397 759 m 1,24,-1
 469 759 l 2,25,26
 508 759 508 759 508 723 c 0,27,28
 508 697.005 508 697.005 479 691 c 1,29,-1
 511 642 l 1,30,-1
 489 642 l 1,31,-1
 456 691 l 1,32,-1
 417 691 l 1,33,-1
 417 642 l 1,34,-1
 397 642 l 1,35,-1
 397 759 l 1,24,-1
415 740 m 1,36,-1
 415 711 l 1,37,-1
 467 711 l 2,38,39
 486.995 711 486.995 711 487 724 c 0,40,41
 487 740.005 487 740.005 467 740 c 2,42,-1
 415 740 l 1,36,-1
510 760 m 128,-1,44
 535.005 734.995 535.005 734.995 535 700 c 128,-1,45
 535 665.005 535 665.005 510 640 c 128,-1,46
 484.995 614.995 484.995 614.995 450 615 c 128,-1,47
 415.005 615 415.005 615 390 640 c 128,-1,48
 364.995 665.005 364.995 665.005 365 700 c 128,-1,49
 365 734.995 365 734.995 390 760 c 128,-1,50
 415.005 785.005 415.005 785.005 450 785 c 128,-1,43
 484.995 785 484.995 785 510 760 c 128,-1,44
EndSplineSet
EndChar

StartChar: glyph166
Encoding: 65549 -1 184
Width: 800
Flags: MW
HStem: 0 200<249.999 749.999 349.999 749.999> 780 20<49.999 249.999 249.999 249.999>
VStem: 50 200
LayerCount: 2
Fore
SplineSet
647 599 m 1,0,-1
 -80.5605 266.96 l 1,1,-1
 -163.001 222 l 1,2,-1
 -163.471 448.97 l 1,3,-1
 564.56 780.59 l 1,4,-1
 647 816 l 1,5,-1
 647 599 l 1,0,-1
49.999 800 m 1,6,-1
 249.999 800 l 1,7,-1
 249.999 300 l 2,8,9
 249.999 199.995 249.999 199.995 349.999 200 c 2,10,-1
 749.999 200 l 1,11,-1
 749.999 0 l 1,12,-1
 349.999 0 l 2,13,14
 49.999 0 49.999 0 49.999 300 c 2,15,-1
 49.999 800 l 1,6,-1
EndSplineSet
EndChar

StartChar: uni204B
Encoding: 8267 8267 185
Width: 500
Flags: W
HStem: 100.031 24.99<75.0713 100.062 200.03 250.021> 200.031 25.001<200.778 315.464> 575.052 24.938<184.723 315.228>
VStem: 50.0605 25.0108<124.992 466.542> 100.062 99.968<125.021 205.871 227.88 258.032> 424.972 25.027<334.776 465.309>
LayerCount: 2
Fore
SplineSet
250.01 599.99 m 128,-1,1
 333.039 599.99 333.039 599.99 391.539 541.49 c 128,-1,2
 449.999 483.034 449.999 483.034 449.999 400.011 c 128,-1,3
 449.994 316.986 449.994 316.986 391.539 258.531 c 128,-1,4
 333.034 200.031 333.034 200.031 250.01 200.031 c 0,5,6
 223.825 200.031 223.825 200.031 200.03 205.871 c 1,7,-1
 200.03 125.021 l 1,8,-1
 250.021 125.021 l 1,9,-1
 250.021 100.031 l 1,10,-1
 50.0605 100.031 l 1,11,-1
 50.0605 394.861 l 2,12,13
 50.0605 398.556 50.0605 398.556 50.0205 400.021 c 0,14,15
 50.0205 403.922 50.0205 403.922 50.0605 405.182 c 2,16,-1
 50.1006 406.611 l 2,17,18
 52.3499 485.342 52.3499 485.342 108.511 541.502 c 0,19,0
 166.996 600.002 166.996 600.002 250.01 599.99 c 128,-1,1
249.991 425.002 m 128,-1,21
 239.491 425.003 239.491 425.003 232.261 417.771 c 128,-1,22
 225.001 410.512 225.001 410.512 225.001 400.012 c 128,-1,23
 225.001 389.517 225.001 389.517 232.261 382.242 c 128,-1,24
 239.491 375.012 239.491 375.012 249.991 375.012 c 128,-1,25
 260.531 375.012 260.531 375.012 267.762 382.242 c 128,-1,26
 275.021 389.502 275.021 389.502 275.021 400.002 c 128,-1,27
 275.022 410.502 275.022 410.502 267.762 417.762 c 128,-1,20
 260.531 424.992 260.531 424.992 249.991 425.002 c 128,-1,21
75.0713 394.082 m 1,28,-1
 75.0713 124.992 l 1,29,-1
 100.062 124.992 l 1,30,-1
 100.021 400.002 l 2,31,32
 100.021 402.669 100.021 402.669 100.062 403.872 c 2,33,-1
 100.142 406.603 l 2,34,35
 102.372 464.401 102.372 464.401 143.982 506.013 c 0,36,37
 187.978 550.022 187.978 550.022 249.973 550.022 c 128,-1,38
 311.968 550.008 311.968 550.008 355.963 506.013 c 128,-1,39
 399.973 462.008 399.973 462.008 399.973 400.013 c 128,-1,40
 399.958 338.018 399.958 338.018 355.963 294.022 c 128,-1,41
 311.958 250.013 311.958 250.013 249.963 250.013 c 0,42,43
 223.026 250.013 223.026 250.013 199.982 258.032 c 1,44,-1
 199.982 233.552 l 1,45,46
 225.557 225.032 225.557 225.032 249.962 225.032 c 0,47,48
 322.491 225.032 322.491 225.032 373.731 276.272 c 128,-1,49
 424.972 327.517 424.972 327.517 424.972 400.042 c 128,-1,50
 424.973 472.57 424.973 472.57 373.731 523.812 c 128,-1,51
 322.487 575.052 322.487 575.052 249.962 575.052 c 128,-1,52
 177.473 575.052 177.473 575.052 126.231 523.812 c 128,-1,53
 75.0312 472.621 75.0312 472.621 75.0312 404.581 c 2,54,-1
 75.0713 394.082 l 1,28,-1
EndSplineSet
EndChar

StartChar: openbullet
Encoding: 9702 9702 186
Width: 400
Flags: MW
HStem: 400 300<200 200>
VStem: 50 300<550 550>
LayerCount: 2
Fore
SplineSet
238 588 m 1,0,-1
 350 550 l 1,1,-1
 238 513 l 1,2,-1
 200 400 l 1,3,-1
 163 513 l 1,4,-1
 50 550 l 1,5,-1
 163 588 l 1,6,-1
 200 700 l 1,7,-1
 238 588 l 1,0,-1
EndSplineSet
EndChar

StartChar: uni3003
Encoding: 12291 12291 187
Width: 600
Flags: W
HStem: 500 300<50 250 350 550>
VStem: 50 200<500 800> 350 200<500 800>
LayerCount: 2
Fore
SplineSet
250 500 m 5,0,-1
 50 500 l 5,1,-1
 50 800 l 5,2,-1
 250 800 l 5,3,-1
 250 500 l 5,0,-1
550 500 m 1,4,-1
 350 500 l 1,5,-1
 350 800 l 1,6,-1
 550 800 l 1,7,-1
 550 500 l 1,4,-1
EndSplineSet
EndChar

StartChar: uni3016
Encoding: 12310 12310 188
Width: 500
Flags: MW
HStem: 0 50<116.665 400 150 400 150 450> 150 50 600 50<283.335 400 300 400 300 450> 750 50<140.335 450 150 400>
VStem: 50 50<100 700> 200 50<250 550> 400 50<50 50 650 750 750 750>
LayerCount: 2
Fore
SplineSet
450 0 m 1,0,-1
 150 0 l 2,1,2
 49.9951 0 49.9951 0 50 100 c 2,3,-1
 50 700 l 2,4,5
 50 800.005 50 800.005 150 800 c 2,6,-1
 450 800 l 1,7,-1
 450 600 l 1,8,-1
 300 600 l 2,9,10
 250.005 600 250.005 600 250 550 c 2,11,-1
 250 250 l 2,12,13
 250 200.005 250 200.005 300 200 c 2,14,-1
 450 200 l 1,15,-1
 450 0 l 1,0,-1
400 50 m 1,16,-1
 399.999 149.99 l 1,17,-1
 299.999 149.99 l 2,18,19
 254.414 149.99 254.414 149.99 227.21 176.86 c 128,-1,20
 200 203.727 200 203.727 200 250 c 2,21,-1
 200 550 l 2,22,23
 200 596.005 200 596.005 227 623 c 128,-1,24
 254 650 254 650 300 650 c 2,25,-1
 400 650 l 1,26,-1
 400 750 l 1,27,-1
 150 750 l 2,28,29
 121.005 750 121.005 750 110.5 739 c 128,-1,30
 100 728.005 100 728.005 100 700 c 2,31,-1
 100 100 l 2,32,33
 100 71.0049 100 71.0049 110.5 60.5 c 128,-1,34
 121 50 121 50 150 50 c 2,35,-1
 400 50 l 1,16,-1
EndSplineSet
EndChar

StartChar: uni3017
Encoding: 12311 12311 189
Width: 500
Flags: W
LayerCount: 2
Fore
SplineSet
50 0 m 1,0,-1
 350 0 l 2,1,2
 450.005 0 450.005 0 450 100 c 2,3,-1
 450 700 l 2,4,5
 450 800.005 450 800.005 350 800 c 2,6,-1
 50 800 l 1,7,-1
 50 600 l 1,8,-1
 200 600 l 2,9,10
 249.995 600 249.995 600 250 550 c 2,11,-1
 250 250 l 2,12,13
 250 200.005 250 200.005 200 200 c 2,14,-1
 50 200 l 1,15,-1
 50 0 l 1,0,-1
100 50 m 1,16,-1
 100.001 149.99 l 1,17,-1
 200.001 149.99 l 2,18,19
 245.586 149.99 245.586 149.99 272.79 176.86 c 128,-1,20
 300 203.727 300 203.727 300 250 c 2,21,-1
 300 550 l 2,22,23
 300 596.005 300 596.005 273 623 c 128,-1,24
 246 650 246 650 200 650 c 2,25,-1
 100 650 l 1,26,-1
 100 750 l 1,27,-1
 350 750 l 2,28,29
 378.995 750 378.995 750 389.5 739 c 128,-1,30
 400 728.005 400 728.005 400 700 c 2,31,-1
 400 100 l 2,32,33
 400 71.0049 400 71.0049 389.5 60.5 c 128,-1,34
 379 50 379 50 350 50 c 2,35,-1
 100 50 l 1,16,-1
EndSplineSet
EndChar

StartChar: uniF001
Encoding: 61441 61441 190
Width: 900
Flags: MW
HStem: 0 50 750 50
VStem: 50 50 800 50
LayerCount: 2
Fore
SplineSet
450 450 m 128,-1,1
 429 450 429 450 414.5 435.5 c 128,-1,2
 400 421 400 421 400 400 c 128,-1,3
 400 379 400 379 414.5 364.5 c 128,-1,4
 429 350 429 350 450 350 c 128,-1,5
 471 350 471 350 485.5 364.5 c 128,-1,6
 500 379 500 379 500 400 c 128,-1,7
 500 421 500 421 485.5 435.5 c 128,-1,0
 471 450 471 450 450 450 c 128,-1,1
350 116 m 1,8,-1
 349.98 67.0195 l 1,9,10
 400.995 50.0195 400.995 50.0195 449.98 50.0195 c 0,11,12
 594.985 50.0195 594.985 50.0195 697.48 152.52 c 128,-1,13
 799.976 255.015 799.976 255.015 799.98 400.02 c 128,-1,14
 799.98 545.023 799.98 545.023 697.48 647.52 c 128,-1,15
 594.985 750.015 594.985 750.015 449.98 750.02 c 128,-1,16
 304.977 750.02 304.977 750.02 202.48 647.52 c 128,-1,17
 99.985 545.024 99.985 545.024 99.9805 400.02 c 128,-1,18
 99.9805 255.015 99.9805 255.015 149.98 200.01 c 1,19,-1
 149.98 400.01 l 2,20,21
 149.98 524.015 149.98 524.015 237.98 612.02 c 128,-1,22
 325.985 700.024 325.985 700.024 449.99 700.02 c 128,-1,23
 573.995 700.02 573.995 700.02 662 612.02 c 128,-1,24
 750.005 524.015 750.005 524.015 750 400.01 c 128,-1,25
 750 276.005 750 276.005 662 188 c 128,-1,26
 573.995 99.995 573.995 99.995 449.99 100 c 0,27,28
 396.995 100 396.995 100 350 116 c 1,8,-1
849.98 400.02 m 128,-1,30
 849.98 234.015 849.98 234.015 732.98 117.02 c 128,-1,31
 615.98 0.019249 615.98 0.019249 449.98 0.0195312 c 128,-1,32
 283.977 0.0195312 283.977 0.0195312 166.98 117.02 c 128,-1,33
 49.9808 234.02 49.9808 234.02 49.9805 400.02 c 128,-1,34
 49.9805 566.023 49.9805 566.023 166.98 683.02 c 128,-1,35
 283.98 800.02 283.98 800.02 449.98 800.02 c 128,-1,36
 615.985 800.02 615.985 800.02 732.98 683.02 c 128,-1,29
 849.98 566.02 849.98 566.02 849.98 400.02 c 128,-1,30
EndSplineSet
EndChar

StartChar: uniF002
Encoding: 61442 61442 191
Width: 1170
Flags: MW
HStem: 2.75999 80.73
LayerCount: 2
Fore
SplineSet
443.2 738.84 m 1,0,-1
 420.449 725.729 l 1,1,2
 400.561 725.729 400.561 725.729 384.949 728.64 c 1,3,-1
 360.1 728.64 l 1,4,5
 329.575 722.82 329.575 722.82 309.7 725.73 c 1,6,-1
 266.4 749 l 1,7,8
 130.095 772.28 130.095 772.28 81.1201 666.09 c 1,9,10
 58.4115 629.731 58.4115 629.731 52.0205 601.359 c 128,-1,11
 45.6308 572.994 45.6308 572.994 59.1211 500.259 c 1,12,-1
 76.8711 471.889 l 1,13,14
 79.7217 420.244 79.7217 420.244 99.5918 383.869 c 1,15,16
 96.7573 329.314 96.7573 329.314 105.271 293.68 c 1,17,-1
 112.371 282.77 l 2,18,19
 119.463 270.417 119.463 270.417 127.991 264.59 c 1,20,-1
 211.051 153.31 l 1,21,-1
 213.181 145.31 l 1,22,-1
 254.351 65.2998 l 1,23,24
 269.261 31.8501 269.261 31.8501 289.841 10.7607 c 1,25,26
 413.365 -20.5137 413.365 -20.5137 458.801 34.7607 c 1,27,28
 478.676 104.585 478.676 104.585 407.681 135.141 c 1,29,-1
 423.301 143.141 l 1,30,31
 499.26 135.146 499.26 135.146 552.511 166.42 c 1,32,33
 577.366 161.335 577.366 161.335 572.401 138.051 c 1,34,-1
 559.621 127.871 l 1,35,36
 471.586 114.776 471.586 114.776 497.15 34.7705 c 1,37,38
 511.334 15.8628 511.334 15.8628 526.961 5.66992 c 1,39,-1
 546.841 2.75977 l 1,40,-1
 683.851 2.75977 l 1,41,42
 706.578 8.58437 706.578 8.58437 724.311 21.6699 c 1,43,44
 756.949 5.67284 756.949 5.67284 782.53 2.75977 c 1,45,-1
 873.391 2.75977 l 1,46,47
 934.424 0.570427 934.424 0.570427 971.361 8.57031 c 1,48,49
 982.011 18.7554 982.011 18.7554 984.141 31.8506 c 1,50,-1
 984.141 65.3105 l 1,51,-1
 991.95 85.6807 l 1,52,-1
 996.92 93.6807 l 1,53,-1
 1015.37 143.141 l 1,54,55
 1027.44 158.405 1027.44 158.405 1032.41 171.511 c 1,56,57
 1045.19 184.606 1045.19 184.606 1057.97 189.69 c 1,58,59
 1184.33 194.775 1184.33 194.775 1168.71 332.25 c 1,60,-1
 1166.58 340.25 l 1,61,62
 1166.58 360.614 1166.58 360.614 1158.77 373.701 c 1,63,64
 1131.88 398.984 1131.88 398.984 1116.17 420.251 c 1,65,-1
 1087.77 448.621 l 2,66,67
 1075.01 461.701 1075.01 461.701 1070.73 469.711 c 1,68,-1
 1042.34 497.351 l 1,69,70
 1025.31 510.436 1025.31 510.436 1004.71 536.621 c 1,71,72
 986.964 552.641 986.964 552.641 967.089 580.271 c 1,73,74
 957.144 603.549 957.144 603.549 944.379 619.54 c 1,75,-1
 938.699 655.91 l 1,76,-1
 936.569 684.28 l 1,77,-1
 934.439 689.37 l 1,78,-1
 923.789 705.37 l 1,79,-1
 863.449 769.38 l 1,80,-1
 840.729 788.29 l 1,81,82
 744.189 813.745 744.189 813.745 666.1 778.11 c 1,83,84
 597.955 805.755 597.955 805.755 534.07 798.48 c 1,85,86
 473.725 785.385 473.725 785.385 443.2 738.84 c 1,0,-1
612.829 749.01 m 1,87,88
 688.809 741.704 688.809 741.704 706.561 674.06 c 1,89,90
 691.661 652.987 691.661 652.987 685.97 637.7 c 1,91,-1
 688.81 632.61 l 1,92,-1
 693.779 616.61 l 1,93,-1
 706.56 614.431 l 1,94,95
 747.03 639.885 747.03 639.885 772.59 601.34 c 1,96,97
 752.01 549.695 752.01 549.695 701.61 575.88 c 1,98,-1
 691.67 567.88 l 1,99,-1
 691.67 546.78 l 1,100,-1
 695.93 539.511 l 1,101,102
 718.659 518.401 718.659 518.401 731.419 503.141 c 1,103,104
 739.234 415.136 739.234 415.136 695.929 350.391 c 1,105,106
 666.109 282.741 666.109 282.741 607.899 257.291 c 1,107,108
 536.904 191.831 536.904 191.831 451.01 189.642 c 1,109,110
 367.955 143.095 367.955 143.095 274.25 212.921 c 1,111,112
 233.78 228.191 233.78 228.191 208.94 257.291 c 1,113,114
 142.205 293.651 142.205 293.651 130.141 357.661 c 1,115,116
 160.665 425.311 160.665 425.311 225.971 425.311 c 1,117,118
 367.946 484.95 367.946 484.95 471.601 380.94 c 1,119,-1
 486.511 376.57 l 1,120,121
 514.137 363.515 514.137 363.515 529.811 353.301 c 1,122,123
 572.411 347.481 572.411 347.481 605.061 363.48 c 1,124,125
 623.508 380.938 623.508 380.938 610.73 399.851 c 1,126,127
 536.901 388.946 536.901 388.946 511.341 446.41 c 1,128,129
 509.211 484.96 509.211 484.96 519.86 510.42 c 1,130,-1
 534.061 526.42 l 1,131,-1
 554.65 544.6 l 1,132,-1
 565.301 552.6 l 1,133,134
 597.954 570.059 597.954 570.059 617.83 593.339 c 1,135,136
 630.606 635.52 630.606 635.52 623.509 674.079 c 1,137,138
 582.334 767.184 582.334 767.184 481.528 712.629 c 1,139,-1
 473.719 718.449 l 1,140,141
 478.683 728.634 478.683 728.634 494.299 741.729 c 1,142,143
 529.776 751.912 529.776 751.912 552.499 767.189 c 1,144,145
 587.989 767.189 587.989 767.189 612.829 749.01 c 1,87,88
792.461 748.979 m 1,146,147
 883.336 733.695 883.336 733.695 896.113 642.779 c 1,148,149
 938.698 556.951 938.698 556.951 893.263 474.029 c 1,150,-1
 893.263 466.76 l 1,151,152
 891.133 443.45 891.133 443.45 891.133 425.3 c 1,153,154
 883.334 404.214 883.334 404.214 873.383 391.109 c 1,155,156
 850.673 282.734 850.673 282.734 787.493 210.72 c 1,157,158
 739.223 101.623 739.223 101.623 656.163 36.8789 c 1,159,160
 588.018 21.6094 588.018 21.6094 542.583 60.1592 c 1,161,162
 556.773 83.4385 556.773 83.4385 597.953 83.4385 c 1,163,164
 614.993 101.619 614.993 101.619 623.513 116.889 c 1,165,-1
 625.643 137.979 l 2,166,167
 625.643 143.063 625.643 143.063 631.672 158.708 c 128,-1,168
 637.704 174.361 637.704 174.361 646.221 184.528 c 1,169,170
 648.35 199.788 648.35 199.788 653.32 210.708 c 1,171,172
 671.065 231.078 671.065 231.078 676.03 249.258 c 1,173,174
 747.025 324.183 747.025 324.183 764.061 412.188 c 1,175,176
 774.716 427.466 774.716 427.466 779.68 443.467 c 1,177,178
 779.68 479.856 779.68 479.856 769.74 508.207 c 1,179,180
 810.212 554.752 810.212 554.752 818.021 603.487 c 1,181,182
 808.066 616.615 808.066 616.615 802.4 627.498 c 1,183,184
 752.002 666.048 752.002 666.048 731.421 718.418 c 1,185,186
 721.48 728.599 721.48 728.599 716.512 738.778 c 1,187,188
 721.475 759.148 721.475 759.148 739.222 767.158 c 1,189,190
 769.752 767.158 769.752 767.158 792.461 748.979 c 1,146,147
291.984 622.41 m 1,191,-1
 279.212 614.399 l 1,192,193
 233.777 627.495 233.777 627.495 200.412 601.31 c 1,194,195
 187.633 575.853 187.633 575.853 189.763 543.119 c 1,196,197
 160.648 518.384 160.648 518.384 147.873 502.739 c 128,-1,198
 135.115 487.121 135.115 487.121 122.324 476.93 c 1,199,-1
 107.414 484.93 l 1,200,201
 102.449 506.019 102.449 506.019 105.284 521.289 c 1,202,203
 71.9239 575.844 71.9239 575.844 102.443 624.579 c 1,204,205
 128.002 689.316 128.002 689.316 156.394 702.41 c 0,206,207
 185.494 715.506 185.494 715.506 234.475 714.78 c 0,208,209
 304.044 712.605 304.044 712.605 291.984 622.41 c 1,191,-1
390.662 686.409 m 1,210,211
 420.502 666.048 420.502 666.048 443.212 655.868 c 1,212,213
 577.387 728.603 577.387 728.603 575.252 622.418 c 1,214,-1
 572.412 616.598 l 1,215,-1
 562.472 603.508 l 1,216,-1
 549.691 591.138 l 1,217,218
 501.426 549.681 501.426 549.681 478.712 500.219 c 1,219,220
 465.923 482.746 465.923 482.746 451.021 471.85 c 1,221,-1
 372.932 474.029 l 1,222,-1
 345.241 487.119 l 2,223,224
 332.462 492.939 332.462 492.939 322.521 492.939 c 2,225,-1
 279.222 492.939 l 1,226,227
 235.918 461.666 235.918 461.666 200.422 482.76 c 1,228,229
 216.037 508.214 216.037 508.214 233.782 521.31 c 1,230,231
 221.004 622.41 221.004 622.41 332.452 559.859 c 1,232,233
 367.942 562.771 367.942 562.771 393.502 580.229 c 1,234,-1
 423.312 583.14 l 1,235,236
 443.187 565.68 443.187 565.68 443.191 539.49 c 1,237,-1
 453.132 526.4 l 1,238,239
 471.595 533.68 471.595 533.68 481.531 544.59 c 1,240,241
 499.276 632.595 499.276 632.595 365.102 609.32 c 1,242,243
 347.355 614.405 347.355 614.405 337.411 624.59 c 1,244,245
 324.633 674.045 324.633 674.045 377.882 689.319 c 1,246,-1
 390.662 686.409 l 1,210,211
519.883 632.588 m 1,247,248
 526.977 652.956 526.977 652.956 504.263 652.957 c 1,249,250
 494.318 629.678 494.318 629.678 519.883 632.588 c 1,247,248
382.872 647.867 m 1,251,-1
 370.093 650.768 l 1,252,253
 372.927 624.592 372.927 624.592 382.872 647.867 c 1,251,-1
367.963 533.668 m 1,254,255
 375.069 506.012 375.069 506.012 403.464 518.377 c 1,256,257
 423.341 533.649 423.341 533.649 407.724 552.567 c 1,258,-1
 397.783 552.567 l 1,259,260
 380.743 544.572 380.743 544.572 367.963 533.668 c 1,254,255
277.104 531.477 m 1,261,262
 314.724 526.381 314.724 526.381 277.104 546.746 c 1,263,264
 274.269 539.471 274.269 539.471 277.104 531.477 c 1,261,262
977.063 508.196 m 1,265,-1
 1042.37 440.542 l 1,266,267
 1119.03 380.902 1119.03 380.902 1133.24 297.982 c 1,268,-1
 1123.3 280.522 l 1,269,270
 1119.04 259.434 1119.04 259.434 1106.26 244.163 c 1,271,272
 1080.71 233.983 1080.71 233.983 1065.09 223.073 c 1,273,274
 1050.18 217.983 1050.18 217.983 1036.35 217.983 c 128,-1,275
 1022.52 217.983 1022.52 217.983 1012.56 212.894 c 1,276,277
 964.287 158.329 964.287 158.329 957.192 96.5137 c 1,278,-1
 928.792 44.874 l 1,279,280
 911.74 47.0528 911.74 47.0528 898.982 52.1445 c 1,281,-1
 888.332 52.1445 l 1,282,283
 873.444 44.881 873.444 44.881 860.642 41.9648 c 1,284,285
 832.952 44.8755 832.952 44.8755 810.242 36.875 c 1,286,-1
 797.462 36.875 l 1,287,288
 774.737 49.2353 774.737 49.2353 761.962 68.1455 c 1,289,290
 776.872 124.876 776.872 124.876 845.022 78.3252 c 1,291,292
 860.644 83.4276 860.644 83.4276 867.733 91.416 c 1,293,-1
 870.573 119.786 l 1,294,295
 845.009 178.716 845.009 178.716 850.693 231.076 c 1,296,-1
 857.793 251.446 l 1,297,298
 867.745 264.552 867.745 264.552 873.413 277.627 c 1,299,-1
 880.513 297.997 l 1,300,-1
 891.163 313.997 l 1,301,302
 898.979 344.556 898.979 344.556 913.884 365.637 c 1,303,-1
 916.014 370.727 l 1,304,305
 918.848 409.999 918.848 409.999 936.594 438.366 c 1,306,-1
 938.724 456.557 l 1,307,-1
 941.563 474.017 l 1,308,-1
 944.403 503.106 l 1,309,-1
 957.184 513.286 l 1,310,-1
 977.063 508.196 l 1,265,-1
352.352 88.502 m 1,311,312
 358.052 81.2191 358.052 81.2191 362.29 78.3232 c 1,313,314
 395.65 81.234 395.65 81.234 416.23 60.1445 c 1,315,316
 413.396 47.0489 413.396 47.0489 403.451 36.8643 c 1,317,318
 322.526 15.7749 322.526 15.7749 296.971 75.4141 c 1,319,320
 272.836 96.1441 272.836 96.1441 266.446 116.874 c 128,-1,321
 260.056 137.603 260.056 137.603 271.411 158.333 c 1,322,323
 337.441 145.238 337.441 145.238 352.352 88.502 c 1,311,312
EndSplineSet
EndChar

StartChar: uniF003
Encoding: 61443 61443 192
Width: 900
Flags: MW
HStem: 0 200<283.345 316.675 283.345 330 799.99 849.99> 600 200<416.675 450.01 450.01 550.01>
LayerCount: 2
Fore
SplineSet
414 250 m 1,0,-1
 400 260 l 1,1,2
 350.011 300 350.011 300 300.01 300 c 128,-1,3
 250.015 300 250.015 300 250.01 250 c 128,-1,4
 250.01 200.005 250.01 200.005 300.01 200 c 128,-1,5
 350.011 200 350.011 200 400 240 c 1,6,-1
 414 250 l 1,0,-1
698 248 m 1,7,-1
 749.99 210 l 1,8,9
 769.985 199.995 769.985 199.995 799.99 200 c 2,10,-1
 849.99 200 l 1,11,-1
 849.99 0 l 1,12,-1
 799.99 0 l 2,13,14
 749.989 0 749.989 0 700 40 c 1,15,-1
 563 140 l 1,16,-1
 450 50 l 1,17,18
 390 0.00485229 390 0.00485229 300 0 c 0,19,20
 49.995 0 49.995 0 50 250 c 0,21,22
 50 350.005 50 350.005 100 400 c 0,23,24
 149.005 449.995 149.005 449.995 150.01 550 c 1,25,26
 150.01 800.005 150.01 800.005 400.01 800 c 2,27,-1
 600.01 800 l 2,28,29
 850.015 800 850.015 800 850.01 550 c 1,30,-1
 650.01 550 l 1,31,32
 650.01 599.995 650.01 599.995 550.01 600 c 2,33,-1
 450.01 600 l 2,34,35
 350.005 600 350.005 600 350.01 540 c 0,36,37
 350.01 510 350.01 510 450.01 430 c 1,38,-1
 555.01 353 l 1,39,-1
 700.01 460 l 1,40,41
 749.999 500 749.999 500 800 500 c 2,42,-1
 850 501 l 1,43,-1
 850 300 l 1,44,-1
 800 300 l 2,45,46
 770 300 770 300 750 290 c 1,47,-1
 698 248 l 1,7,-1
EndSplineSet
EndChar

StartChar: uniF004
Encoding: 61444 61444 193
Width: 350
Flags: MW
HStem: 400 300<150 150>
VStem: 0 300<550 550>
LayerCount: 2
Fore
SplineSet
188 588 m 1,0,-1
 300 550 l 1,1,-1
 188 513 l 1,2,-1
 150 400 l 1,3,-1
 113 513 l 1,4,-1
 0 550 l 1,5,-1
 113 588 l 1,6,-1
 150 700 l 1,7,-1
 188 588 l 1,0,-1
EndSplineSet
EndChar

StartChar: uniF005
Encoding: 61445 61445 194
Width: 500
Flags: MW
HStem: 400 400<250 250>
VStem: 50 400<600 600>
LayerCount: 2
Fore
SplineSet
390 740 m 1,0,-1
 317 626 l 1,1,-1
 450 600 l 1,2,-1
 317 573 l 1,3,-1
 390 460 l 1,4,-1
 277 533 l 1,5,-1
 250 400 l 1,6,-1
 223 533 l 1,7,-1
 110 460 l 1,8,-1
 184 573 l 1,9,-1
 50 600 l 1,10,-1
 183 627 l 1,11,-1
 110 740 l 1,12,-1
 223 666 l 1,13,-1
 250 800 l 1,14,-1
 277 667 l 1,15,-1
 390 740 l 1,0,-1
EndSplineSet
EndChar

StartChar: uniF006
Encoding: 61446 61446 195
Width: 1298
Flags: MW
HStem: 4.60001 186.35 548.2 186.35 780 20G<638.28 638.28>
VStem: 316.94 96.66 885.72 107.5
LayerCount: 2
Fore
SplineSet
638.28 800 m 1,0,-1
 671.895 799.949 l 1,1,-1
 990.965 592.539 l 1,2,-1
 1062.64 633.949 l 1,3,4
 1062.34 637.819 1062.34 637.819 1062.34 641.329 c 0,5,6
 1062.34 679.909 1062.34 679.909 1089.61 707.209 c 128,-1,7
 1116.88 734.509 1116.88 734.509 1155.41 734.509 c 128,-1,8
 1193.94 734.509 1193.94 734.509 1221.22 707.209 c 128,-1,9
 1248.49 679.909 1248.49 679.909 1248.49 641.329 c 128,-1,10
 1248.49 602.749 1248.49 602.749 1221.22 575.449 c 128,-1,11
 1193.95 548.149 1193.95 548.149 1155.41 548.149 c 0,12,13
 1129.8 548.149 1129.8 548.149 1107.83 561.279 c 1,14,-1
 993.223 495.02 l 1,15,-1
 993.223 340.079 l 1,16,-1
 909.232 253.119 l 1,17,-1
 1042.77 175.899 l 1,18,19
 1065.82 190.899 1065.82 190.899 1093.35 190.899 c 0,20,21
 1131.89 190.899 1131.89 190.899 1159.16 163.6 c 128,-1,22
 1186.43 136.298 1186.43 136.298 1186.43 97.7197 c 128,-1,23
 1186.43 59.1401 1186.43 59.1401 1159.16 31.8398 c 128,-1,24
 1131.89 4.5395 1131.89 4.5395 1093.35 4.54004 c 128,-1,25
 1054.82 4.54004 1054.82 4.54004 1027.55 31.8398 c 128,-1,26
 1000.28 59.1401 1000.28 59.1401 1000.28 97.7197 c 0,27,28
 1000.28 99.2035 1000.28 99.2035 1000.38 101.561 c 1,29,-1
 847.934 189.641 l 1,30,-1
 844.703 186.311 l 1,31,-1
 844.703 16.5205 l 1,32,-1
 831.684 3.44043 l 1,33,34
 740.632 -0.040035 740.632 -0.040035 655.073 -0.0400391 c 0,35,36
 570.67 -0.0400391 570.67 -0.0400391 468.313 3.44043 c 1,37,-1
 453.184 18.5908 l 1,38,-1
 453.184 182.871 l 1,39,-1
 298.113 93.2314 l 1,40,41
 296.358 56.1358 296.358 56.1358 269.413 30.3506 c 128,-1,42
 242.473 4.565 242.473 4.565 205.153 4.56055 c 0,43,44
 166.618 4.56055 166.618 4.56055 139.354 31.8604 c 128,-1,45
 112.084 59.1606 112.084 59.1606 112.084 97.7402 c 128,-1,46
 112.084 136.32 112.084 136.32 139.354 163.62 c 128,-1,47
 166.622 190.92 166.622 190.92 205.153 190.92 c 0,48,49
 237.028 190.92 237.028 190.92 262.213 171.33 c 1,50,-1
 397.312 249.46 l 1,51,-1
 316.952 340.11 l 1,52,-1
 316.952 496.62 l 1,53,-1
 197.442 565.71 l 1,54,55
 173.142 548.19 173.142 548.19 143.112 548.19 c 0,56,57
 104.571 548.19 104.571 548.19 77.3018 575.49 c 128,-1,58
 50.0322 602.79 50.0322 602.79 50.0322 641.37 c 128,-1,59
 50.0322 679.95 50.0322 679.95 77.3018 707.25 c 128,-1,60
 104.571 734.55 104.571 734.55 143.112 734.55 c 0,61,62
 181.437 734.55 181.437 734.55 208.642 707.521 c 128,-1,63
 235.851 680.491 235.851 680.491 236.181 642.181 c 1,64,-1
 320.471 593.45 l 1,65,-1
 638.28 800 l 1,0,-1
874.085 549.359 m 0,66,67
 873.693 549.37 873.693 549.37 872.364 549.308 c 0,68,69
 871.884 549.293 871.884 549.293 870.444 549.158 c 2,70,-1
 704.784 461.488 l 2,71,72
 679.261 449.081 679.261 449.081 696.765 446.889 c 1,73,74
 866.07 391.359 866.07 391.359 874.085 392.1 c 0,75,76
 882.826 392.835 882.826 392.835 885.735 408.159 c 1,77,-1
 885.735 538.959 l 2,78,79
 886.38 549.249 886.38 549.249 874.085 549.359 c 0,66,67
427.375 546.087 m 0,80,81
 419.571 545.967 419.571 545.967 413.586 538.977 c 1,82,-1
 413.586 404.536 l 1,83,84
 415.041 392.866 415.041 392.866 430.386 391.396 c 1,85,-1
 614.266 446.896 l 2,86,87
 623.756 450.554 623.756 450.554 610.636 457.856 c 2,88,-1
 434.726 544.776 l 2,89,90
 430.844 546.147 430.844 546.147 427.375 546.087 c 0,80,81
650.026 406.697 m 128,-1,92
 645.28 406.679 645.28 406.679 640.537 398.649 c 1,93,94
 603.967 304.929 603.967 304.929 602.557 298.559 c 1,95,96
 599.646 292.018 599.646 292.018 602.557 291.298 c 0,97,98
 604.627 290.608 604.627 290.608 630.307 284.728 c 0,99,100
 655.13 279.611 655.13 279.611 695.977 291.298 c 1,101,102
 700.382 290.564 700.382 290.564 695.267 305.188 c 2,103,-1
 659.507 398.668 l 1,104,91
 654.765 406.697 654.765 406.697 650.026 406.697 c 128,-1,92
EndSplineSet
EndChar

StartChar: uniF007
Encoding: 61447 61447 196
Width: 1293
Flags: MW
HStem: 1.25 181.49 551.76 181.49
VStem: 307.34 99.19 887.18 99.24
LayerCount: 2
Fore
SplineSet
690.1 782.25 m 1,0,-1
 962.215 602.799 l 1,1,2
 975.19 592.974 975.19 592.974 979.676 595.399 c 2,3,-1
 1062.3 643.079 l 1,4,5
 1062.52 680.459 1062.52 680.459 1089.09 706.858 c 128,-1,6
 1115.64 733.258 1115.64 733.258 1153.05 733.258 c 128,-1,7
 1190.61 733.258 1190.61 733.258 1217.17 706.678 c 128,-1,8
 1243.74 680.093 1243.74 680.093 1243.74 642.519 c 128,-1,9
 1243.74 604.944 1243.74 604.944 1217.17 578.349 c 128,-1,10
 1190.6 551.769 1190.6 551.769 1153.05 551.769 c 0,11,12
 1125.3 551.769 1125.3 551.769 1102.32 567.298 c 1,13,-1
 986.446 500.418 l 1,14,-1
 986.446 348.248 l 2,15,16
 986.446 335.346 986.446 335.346 975.746 328.158 c 0,17,18
 974.534 326.344 974.534 326.344 973.287 325.099 c 2,19,-1
 903.367 255.179 l 1,20,-1
 1049.62 170.778 l 1,21,22
 1070.52 182.733 1070.52 182.733 1094.56 182.738 c 0,23,24
 1132.14 182.738 1132.14 182.738 1158.73 156.147 c 128,-1,25
 1185.32 129.552 1185.32 129.552 1185.32 91.9873 c 128,-1,26
 1185.32 54.4273 1185.32 54.4273 1158.73 27.8271 c 128,-1,27
 1132.14 1.2315 1132.14 1.2315 1094.56 1.23633 c 128,-1,28
 1056.98 1.23633 1056.98 1.23633 1030.39 27.8271 c 128,-1,29
 1003.79 54.4228 1003.79 54.4228 1003.8 91.9873 c 0,30,31
 1003.8 94.9922 1003.8 94.9922 1004.01 98.127 c 1,32,-1
 843.077 191.027 l 1,33,-1
 843.077 27.6875 l 2,34,35
 843.077 17.6177 843.077 17.6177 835.997 10.5381 c 128,-1,36
 828.917 3.45801 828.917 3.45801 818.848 3.45801 c 2,37,-1
 474.958 3.45801 l 2,38,39
 464.878 3.45801 464.878 3.45801 457.799 10.5381 c 128,-1,40
 450.719 17.6177 450.719 17.6177 450.719 27.6875 c 2,41,-1
 450.719 191.088 l 1,42,-1
 289.738 98.1377 l 1,43,44
 289.948 95.0028 289.948 95.0028 289.948 91.998 c 0,45,46
 289.948 54.438 289.948 54.438 263.357 27.8379 c 128,-1,47
 236.762 1.24215 236.762 1.24215 199.197 1.24707 c 128,-1,48
 161.622 1.24707 161.622 1.24707 135.027 27.8379 c 128,-1,49
 108.432 54.4337 108.432 54.4337 108.437 91.998 c 128,-1,50
 108.437 129.558 108.437 129.558 135.027 156.158 c 128,-1,51
 161.624 182.755 161.624 182.755 199.197 182.749 c 0,52,53
 223.243 182.749 223.243 182.749 244.138 170.789 c 1,54,-1
 390.378 255.239 l 1,55,-1
 320.508 325.109 l 2,56,57
 319.261 326.356 319.261 326.356 318.099 328.109 c 0,58,59
 307.339 335.347 307.339 335.347 307.339 348.249 c 2,60,-1
 307.339 500.369 l 1,61,-1
 191.409 567.299 l 1,62,63
 168.429 551.774 168.429 551.774 140.679 551.77 c 0,64,65
 103.119 551.77 103.119 551.77 76.5488 578.36 c 128,-1,66
 49.984 604.94 49.984 604.94 49.9785 642.52 c 128,-1,67
 49.9785 680.094 49.9785 680.094 76.5488 706.679 c 128,-1,68
 103.114 733.258 103.114 733.258 140.679 733.259 c 128,-1,69
 178.089 733.259 178.089 733.259 204.64 706.859 c 128,-1,70
 231.19 680.461 231.19 680.461 231.43 643.08 c 1,71,-1
 314.1 595.35 l 2,72,73
 318.044 593.129 318.044 593.129 331.569 602.8 c 2,74,-1
 601.659 782.25 l 1,75,-1
 690.1 782.25 l 1,0,-1
421.405 546.619 m 0,76,77
 406.565 546.797 406.565 546.797 406.564 527.897 c 2,78,-1
 406.564 470.878 l 1,79,-1
 406.564 403.998 l 2,80,81
 406.564 396.42 406.564 396.42 416.694 394.589 c 128,-1,82
 426.819 392.759 426.819 392.759 435.204 395.759 c 2,83,-1
 511.784 418.369 l 1,84,-1
 606.994 447.799 l 2,85,86
 616.614 450.376 616.614 450.376 607.095 455.879 c 2,87,-1
 511.785 503.398 l 1,88,-1
 428.115 545.099 l 2,89,90
 425.556 546.574 425.556 546.574 421.405 546.619 c 0,76,77
872.365 546.617 m 0,91,92
 868.215 546.575 868.215 546.575 865.655 545.099 c 2,93,-1
 781.995 503.398 l 1,94,-1
 686.686 455.879 l 2,95,96
 677.165 450.377 677.165 450.377 686.786 447.799 c 2,97,-1
 781.996 418.369 l 1,98,-1
 858.576 395.759 l 2,99,100
 866.961 392.759 866.961 392.759 877.086 394.589 c 128,-1,101
 887.216 396.42 887.216 396.42 887.216 403.998 c 2,102,-1
 887.216 470.878 l 1,103,-1
 887.216 527.897 l 2,104,105
 887.216 546.797 887.216 546.797 872.365 546.617 c 0,91,92
646.865 406.569 m 1,106,-1
 637.615 399.169 l 1,107,-1
 621.355 357.099 l 1,108,-1
 597.955 293.579 l 2,109,110
 597.88 292.499 597.88 292.499 598.745 291.589 c 0,111,112
 617.964 285.929 617.964 285.929 633.784 284.189 c 1,113,-1
 634.464 286.18 l 1,114,-1
 642.334 306.58 l 1,115,-1
 643.754 307.26 l 1,116,-1
 644.594 306.37 l 1,117,-1
 644.544 294.78 l 2,118,119
 644.544 292.68 644.544 292.68 646.904 292.68 c 128,-1,120
 649.214 292.68 649.214 292.68 649.214 294.78 c 2,121,-1
 649.164 306.37 l 1,122,-1
 650.004 307.26 l 1,123,-1
 651.424 306.58 l 1,124,-1
 659.244 286.18 l 1,125,-1
 659.975 284.189 l 1,126,127
 675.863 285.941 675.863 285.941 695.075 291.589 c 0,128,129
 695.94 292.499 695.94 292.499 695.865 293.579 c 2,130,-1
 672.365 357.099 l 1,131,-1
 656.205 399.169 l 1,132,-1
 646.865 406.569 l 1,106,-1
EndSplineSet
EndChar

StartChar: uniF008
Encoding: 61448 61448 197
Width: 1293
Flags: MW
HStem: 3.45 10 172.46 10.28 406.41 10.14 546.62 10 551.76 10.38 571.76 141.49 584.92 10.48 723.26 10 773.99 8.25999
VStem: 50 10 108.43 10 221.48 9.96001 279.93 10 307.34 10 327.34 59.19 396.53 10 450.7 10 631.8 30.1 833.06 10 887.18 10 907.18 59.24 976.42 10 1003.78 10 1062.27 9.96001 1175.28 10 1233.71 10
LayerCount: 2
Fore
SplineSet
690.1 782.25 m 1,0,-1
 962.214 602.799 l 1,1,2
 975.189 592.974 975.189 592.974 979.675 595.399 c 2,3,-1
 1062.29 643.079 l 1,4,5
 1062.53 680.459 1062.53 680.459 1089.08 706.858 c 128,-1,6
 1115.65 733.258 1115.65 733.258 1153.05 733.258 c 128,-1,7
 1190.61 733.258 1190.61 733.258 1217.17 706.678 c 128,-1,8
 1243.74 680.093 1243.74 680.093 1243.74 642.519 c 128,-1,9
 1243.74 604.944 1243.74 604.944 1217.17 578.349 c 128,-1,10
 1190.6 551.769 1190.6 551.769 1157.95 551.769 c 128,-1,11
 1125.3 551.769 1125.3 551.769 1102.31 567.298 c 1,12,-1
 986.437 500.418 l 1,13,-1
 986.437 348.248 l 2,14,15
 986.437 335.351 986.437 335.351 975.687 328.108 c 0,16,17
 974.522 326.353 974.522 326.353 973.277 325.108 c 2,18,-1
 903.357 255.188 l 1,19,-1
 1049.61 170.788 l 1,20,21
 1070.51 182.748 1070.51 182.748 1101.32 182.748 c 128,-1,22
 1132.13 182.748 1132.13 182.748 1158.72 156.157 c 128,-1,23
 1185.31 129.562 1185.31 129.562 1185.31 91.9971 c 128,-1,24
 1185.31 54.437 1185.31 54.437 1158.72 27.8369 c 128,-1,25
 1132.13 1.24115 1132.13 1.24115 1094.55 1.24609 c 128,-1,26
 1056.97 1.24609 1056.97 1.24609 1030.38 27.8369 c 128,-1,27
 1003.79 54.4327 1003.79 54.4327 1003.79 91.9971 c 0,28,29
 1003.79 95.002 1003.79 95.002 1004 98.1367 c 1,30,-1
 843.067 191.037 l 1,31,-1
 843.067 27.6973 l 2,32,33
 843.067 17.6275 843.067 17.6275 835.987 10.5479 c 128,-1,34
 828.908 3.46777 828.908 3.46777 818.838 3.46777 c 2,35,-1
 474.948 3.46777 l 2,36,37
 464.87 3.46777 464.87 3.46777 457.789 10.5479 c 128,-1,38
 450.709 17.6274 450.709 17.6274 450.709 27.6973 c 2,39,-1
 450.709 191.098 l 1,40,-1
 289.729 98.1475 l 1,41,42
 289.938 95.0055 289.938 95.0055 289.938 92.0078 c 0,43,44
 289.938 54.4478 289.938 54.4478 263.348 27.8477 c 128,-1,45
 236.752 1.25195 236.752 1.25195 199.188 1.25684 c 128,-1,46
 161.613 1.25684 161.613 1.25684 135.018 27.8477 c 128,-1,47
 108.422 54.4433 108.422 54.4433 108.427 92.0078 c 128,-1,48
 108.427 129.568 108.427 129.568 135.018 156.168 c 128,-1,49
 161.609 182.759 161.609 182.759 192.418 182.759 c 128,-1,50
 223.224 182.759 223.224 182.759 244.128 170.799 c 1,51,-1
 390.368 255.249 l 1,52,-1
 320.498 325.119 l 2,53,54
 319.243 326.374 319.243 326.374 318.028 328.159 c 0,55,56
 307.328 335.347 307.328 335.347 307.328 348.249 c 2,57,-1
 307.328 500.369 l 1,58,-1
 191.398 567.299 l 1,59,60
 168.418 551.774 168.418 551.774 135.769 551.77 c 128,-1,61
 103.114 551.77 103.114 551.77 76.5488 578.36 c 128,-1,62
 49.984 604.94 49.984 604.94 49.9785 642.52 c 128,-1,63
 49.9785 680.094 49.9785 680.094 76.5488 706.679 c 128,-1,64
 103.114 733.258 103.114 733.258 140.679 733.259 c 128,-1,65
 178.089 733.259 178.089 733.259 204.64 706.859 c 128,-1,66
 231.19 680.461 231.19 680.461 231.43 643.08 c 1,67,-1
 314.1 595.35 l 2,68,69
 318.044 593.129 318.044 593.129 331.569 602.8 c 2,70,-1
 601.659 782.25 l 1,71,-1
 690.1 782.25 l 1,0,-1
421.404 546.619 m 0,72,73
 406.554 546.789 406.554 546.789 406.554 527.888 c 2,74,-1
 406.554 403.987 l 2,75,76
 406.554 396.409 406.554 396.409 416.684 394.578 c 128,-1,77
 426.809 392.748 426.809 392.748 435.193 395.748 c 2,78,-1
 606.983 447.788 l 2,79,80
 616.604 450.366 616.604 450.366 607.084 455.868 c 2,81,-1
 428.114 545.099 l 2,82,83
 425.555 546.574 425.555 546.574 421.404 546.619 c 0,72,73
872.354 546.607 m 0,84,85
 868.204 546.574 868.204 546.574 865.645 545.099 c 2,86,-1
 686.675 455.868 l 2,87,88
 677.154 450.365 677.154 450.365 686.775 447.788 c 2,89,-1
 858.565 395.748 l 2,90,91
 866.95 392.748 866.95 392.748 877.075 394.578 c 128,-1,92
 887.205 396.409 887.205 396.409 887.205 403.987 c 2,93,-1
 887.205 527.888 l 2,94,95
 887.205 546.786 887.205 546.786 872.354 546.607 c 0,84,85
656.185 399.169 m 1,96,97
 649.51 406.399 649.51 406.399 646.905 406.399 c 128,-1,98
 644.29 406.399 644.29 406.399 637.615 399.169 c 1,99,-1
 597.955 293.579 l 2,100,101
 597.88 292.499 597.88 292.499 598.745 291.589 c 0,102,103
 617.964 285.929 617.964 285.929 633.784 284.189 c 1,104,-1
 642.334 306.59 l 1,105,106
 644.584 309.23 644.584 309.23 644.584 306.379 c 2,107,-1
 644.534 294.789 l 2,108,109
 644.534 292.688 644.534 292.688 646.895 292.688 c 128,-1,110
 649.205 292.688 649.205 292.688 649.204 294.789 c 2,111,-1
 649.154 306.379 l 2,112,113
 649.154 309.229 649.154 309.229 651.404 306.59 c 1,114,-1
 659.954 284.189 l 1,115,116
 675.843 285.941 675.843 285.941 695.055 291.589 c 0,117,118
 695.92 292.499 695.92 292.499 695.845 293.579 c 2,119,-1
 656.185 399.169 l 1,96,97
1102.73 579.069 m 1,120,121
 1124.13 562.473 1124.13 562.473 1155.3 562.098 c 128,-1,122
 1186.48 561.723 1186.48 561.723 1210.12 585.377 c 128,-1,123
 1233.76 609.031 1233.76 609.031 1233.76 642.467 c 128,-1,124
 1233.76 675.902 1233.76 675.902 1210.12 699.557 c 128,-1,125
 1186.47 723.216 1186.47 723.216 1153.13 723.216 c 128,-1,126
 1119.8 723.216 1119.8 723.216 1095.37 699.285 c 128,-1,127
 1070.93 675.36 1070.93 675.36 1072.27 637.245 c 1,128,-1
 984.566 586.635 l 2,129,130
 981.335 584.885 981.335 584.885 975.646 584.885 c 128,-1,131
 969.961 584.885 969.961 584.885 956.446 594.605 c 2,132,-1
 684.496 773.955 l 1,133,-1
 606.996 773.735 l 1,134,-1
 337.286 594.535 l 2,135,136
 323.816 584.905 323.816 584.905 318.036 584.905 c 128,-1,137
 312.268 584.905 312.268 584.905 309.187 586.636 c 2,138,-1
 221.507 637.266 l 1,139,140
 222.827 675.441 222.827 675.441 198.417 699.336 c 128,-1,141
 174.012 723.231 174.012 723.231 140.667 723.226 c 128,-1,142
 107.321 723.226 107.321 723.226 83.6768 699.566 c 128,-1,143
 60.0371 675.912 60.0371 675.912 60.0371 642.477 c 128,-1,144
 60.0371 609.042 60.0371 609.042 83.6768 585.387 c 128,-1,145
 107.316 561.732 107.316 561.732 138.486 562.088 c 128,-1,146
 169.658 562.448 169.658 562.448 191.036 579.049 c 1,147,-1
 317.376 506.099 l 1,148,-1
 317.376 348.209 l 2,149,150
 317.376 340.584 317.376 340.584 320.977 338.199 c 2,151,-1
 406.696 253.069 l 1,152,-1
 244.196 159.229 l 1,153,154
 224.501 172.129 224.501 172.129 195.146 172.43 c 128,-1,155
 165.791 172.73 165.791 172.73 142.137 149.07 c 128,-1,156
 118.478 125.412 118.478 125.412 118.478 91.9902 c 128,-1,157
 118.478 58.5685 118.478 58.5685 142.137 34.9102 c 128,-1,158
 165.795 11.251 165.795 11.251 199.217 11.251 c 128,-1,159
 232.637 11.251 232.637 11.251 256.297 34.9102 c 128,-1,160
 279.956 58.5699 279.956 58.5699 279.956 91.9902 c 1,161,-1
 279.356 103.67 l 1,162,-1
 460.736 208.4 l 1,163,-1
 460.736 27.6807 l 2,164,165
 460.736 21.7499 460.736 21.7499 464.886 17.6006 c 128,-1,166
 469.035 13.4512 469.035 13.4512 474.966 13.4512 c 2,167,-1
 818.855 13.4512 l 2,168,169
 824.786 13.4512 824.786 13.4512 828.936 17.6006 c 128,-1,170
 833.085 21.7503 833.085 21.7503 833.085 27.6807 c 2,171,-1
 833.085 208.341 l 1,172,-1
 1014.41 103.671 l 1,173,-1
 1013.81 91.9912 l 1,174,175
 1013.81 58.5755 1013.81 58.5755 1037.46 34.9111 c 128,-1,176
 1061.11 11.2569 1061.11 11.2569 1094.55 11.252 c 128,-1,177
 1128 11.252 1128 11.252 1151.64 34.9111 c 128,-1,178
 1175.3 58.5705 1175.3 58.5705 1175.3 91.9912 c 128,-1,179
 1175.3 125.412 1175.3 125.412 1151.64 149.071 c 128,-1,180
 1128 172.727 1128 172.727 1098.65 172.44 c 128,-1,181
 1069.29 172.155 1069.29 172.155 1049.59 159.229 c 1,182,-1
 887.066 253.02 l 1,183,-1
 966.206 332.159 l 2,184,185
 975.656 341.594 975.656 341.594 968.995 335.52 c 1,186,187
 976.121 339.766 976.121 339.766 976.436 348.229 c 2,188,-1
 976.436 506.18 l 1,189,-1
 1102.73 579.069 l 1,120,121
424.148 383.858 m 0,190,191
 396.574 383.877 396.574 383.877 396.568 403.978 c 2,192,-1
 396.568 527.878 l 2,193,194
 396.568 556.603 396.568 556.603 421.498 556.599 c 0,195,196
 429.674 555.727 429.674 555.727 432.858 553.888 c 2,197,-1
 611.839 464.657 l 2,198,199
 621.849 458.881 621.849 458.881 621.849 451.108 c 1,200,201
 620.02 448.297 620.02 448.297 618.528 444.208 c 128,-1,202
 617.025 440.091 617.025 440.091 609.788 438.158 c 2,203,-1
 438.328 386.229 l 2,204,205
 431.744 383.858 431.744 383.858 424.148 383.858 c 0,190,191
897.209 403.977 m 1,206,207
 893.947 383.888 893.947 383.888 869.646 383.888 c 0,208,209
 862.051 383.888 862.051 383.888 855.467 386.258 c 2,210,-1
 684.007 438.188 l 1,211,212
 671.932 443.108 671.932 443.108 671.938 450.997 c 128,-1,213
 671.938 458.889 671.938 458.889 681.947 464.666 c 2,214,-1
 860.928 553.896 l 2,215,216
 867.978 556.562 867.978 556.562 872.278 556.607 c 2,217,-1
 872.608 556.607 l 2,218,219
 897.209 556.607 897.209 556.607 897.209 527.877 c 2,220,-1
 897.209 403.977 l 1,206,207
643.887 282.758 m 1,221,-1
 640.687 273.349 l 1,222,223
 617.26 275.357 617.26 275.357 593.377 282.738 c 1,224,225
 588.417 286.71 588.417 286.71 587.997 293.929 c 2,226,-1
 588.057 295.528 l 1,227,-1
 629.007 404.538 l 1,228,-1
 638.727 413.688 l 2,229,230
 642.539 416.314 642.539 416.314 646.257 416.539 c 2,231,-1
 647.487 416.539 l 1,232,233
 657.56 413.091 657.56 413.091 664.867 404.539 c 1,234,-1
 705.808 295.539 l 1,235,-1
 705.878 293.579 l 2,236,237
 705.428 286.727 705.428 286.727 700.488 282.748 c 1,238,239
 676.685 275.399 676.685 275.399 653.308 273.388 c 1,240,-1
 649.777 282.978 l 1,241,242
 648.434 282.678 648.434 282.678 646.927 282.678 c 0,243,244
 645.695 282.678 645.695 282.678 643.887 282.758 c 1,221,-1
474.986 23.4287 m 2,245,246
 470.734 23.4375 470.734 23.4375 470.733 27.668 c 2,247,-1
 470.733 225.708 l 1,248,-1
 268.964 109.208 l 1,249,-1
 269.794 96.7783 l 2,250,251
 269.954 94.3773 269.954 94.3773 269.954 91.9785 c 0,252,253
 269.954 62.6992 269.954 62.6992 249.224 41.9688 c 128,-1,254
 228.492 21.2382 228.492 21.2382 199.214 21.2383 c 128,-1,255
 169.934 21.2383 169.934 21.2383 149.204 41.9688 c 128,-1,256
 128.474 62.6992 128.474 62.6992 128.474 91.9785 c 128,-1,257
 128.474 121.258 128.474 121.258 149.204 141.988 c 128,-1,258
 169.934 162.719 169.934 162.719 193.944 162.719 c 128,-1,259
 217.944 162.719 217.944 162.719 234.244 153.398 c 2,260,-1
 244.225 147.688 l 1,261,-1
 422.994 250.919 l 1,262,-1
 334.694 339.219 l 1,263,-1
 333.814 340.608 l 1,264,265
 329.316 343.112 329.316 343.112 327.395 348.198 c 1,266,-1
 327.395 511.858 l 1,267,-1
 190.635 590.818 l 1,268,-1
 180.274 583.809 l 2,269,270
 162.38 571.719 162.38 571.719 136.925 571.719 c 128,-1,271
 111.47 571.719 111.47 571.719 90.7559 592.449 c 128,-1,272
 70.0459 613.176 70.0459 613.176 70.0459 642.47 c 128,-1,273
 70.0459 671.764 70.0459 671.764 90.7559 692.49 c 128,-1,274
 111.469 713.221 111.469 713.221 140.686 713.221 c 128,-1,275
 169.906 713.221 169.906 713.221 190.605 692.641 c 128,-1,276
 211.305 672.061 211.305 672.061 211.485 642.931 c 2,277,-1
 211.556 631.471 l 1,278,-1
 304.246 577.951 l 2,279,280
 319.366 569.431 319.366 569.431 342.977 586.312 c 2,281,-1
 612.307 765.271 l 1,282,-1
 678.877 765.712 l 1,283,-1
 950.697 586.462 l 2,284,285
 967.4 574.902 967.4 574.902 975.637 574.902 c 128,-1,286
 983.872 574.902 983.872 574.902 989.468 577.932 c 2,287,-1
 1082.26 631.481 l 1,288,-1
 1082.33 642.951 l 2,289,290
 1082.51 672.081 1082.51 672.081 1103.22 692.661 c 128,-1,291
 1123.92 713.241 1123.92 713.241 1153.14 713.241 c 128,-1,292
 1182.34 713.241 1182.34 713.241 1203.06 692.511 c 128,-1,293
 1223.77 671.784 1223.77 671.784 1223.77 642.49 c 128,-1,294
 1223.77 613.195 1223.77 613.195 1203.06 592.47 c 128,-1,295
 1182.34 571.739 1182.34 571.739 1156.89 571.739 c 128,-1,296
 1131.44 571.739 1131.44 571.739 1113.54 583.84 c 2,297,-1
 1103.17 590.84 l 1,298,-1
 966.468 511.93 l 1,299,-1
 966.468 348.21 l 2,300,301
 966.153 345.12 966.153 345.12 963.378 343.89 c 1,302,-1
 870.808 250.859 l 1,303,-1
 1049.59 147.68 l 1,304,-1
 1059.56 153.39 l 2,305,306
 1075.86 162.71 1075.86 162.71 1099.86 162.71 c 128,-1,307
 1123.87 162.71 1123.87 162.71 1144.6 141.979 c 128,-1,308
 1165.33 121.249 1165.33 121.249 1165.33 91.9697 c 128,-1,309
 1165.33 62.6905 1165.33 62.6905 1144.6 41.96 c 128,-1,310
 1123.87 21.2295 1123.87 21.2295 1094.58 21.2295 c 128,-1,311
 1065.29 21.2295 1065.29 21.2295 1044.56 41.96 c 128,-1,312
 1023.83 62.6905 1023.83 62.6905 1023.83 91.9697 c 0,313,314
 1023.83 94.2188 1023.83 94.2188 1024 96.7695 c 2,315,-1
 1024.83 109.199 l 1,316,-1
 823.106 225.64 l 1,317,-1
 823.106 27.6592 l 2,318,319
 823.106 23.4287 823.106 23.4287 818.876 23.4287 c 2,320,-1
 474.986 23.4287 l 2,245,246
437.574 562.697 m 2,321,322
 430.982 566.49 430.982 566.49 421.573 566.597 c 2,323,-1
 421.184 566.597 l 2,324,325
 407.931 566.597 407.931 566.597 397.243 557.637 c 128,-1,326
 386.563 548.682 386.563 548.682 386.563 527.867 c 2,327,-1
 386.563 403.967 l 2,328,329
 386.563 379.697 386.563 379.697 402.644 376.787 c 128,-1,330
 418.723 373.877 418.723 373.877 426.073 373.877 c 128,-1,331
 433.438 373.877 433.438 373.877 441.404 376.737 c 2,332,-1
 612.524 428.567 l 2,333,334
 631.831 433.744 631.831 433.744 631.824 449.197 c 128,-1,335
 631.824 464.647 631.824 464.647 616.555 473.467 c 1,336,-1
 437.574 562.697 l 2,321,322
872.553 566.606 m 2,337,-1
 872.15 566.587 l 2,338,339
 862.746 566.482 862.746 566.482 856.161 562.687 c 2,340,-1
 677.181 473.456 l 1,341,342
 661.911 464.636 661.911 464.636 661.911 449.187 c 128,-1,343
 661.911 433.737 661.911 433.737 681.211 428.557 c 2,344,-1
 852.331 376.727 l 2,345,346
 860.296 373.866 860.296 373.866 867.662 373.866 c 128,-1,347
 875.041 373.866 875.041 373.866 883.353 375.376 c 128,-1,348
 891.698 376.892 891.698 376.892 899.433 384.356 c 128,-1,349
 907.173 391.828 907.173 391.828 907.173 403.977 c 2,350,-1
 907.173 527.877 l 2,351,352
 907.173 548.697 907.173 548.697 896.493 557.646 c 128,-1,353
 885.807 566.606 885.807 566.606 872.553 566.606 c 2,337,-1
673.46 409.887 m 1,354,-1
 662.899 420.286 l 2,355,356
 661.497 421.389 661.497 421.389 655.25 423.696 c 128,-1,357
 648.985 426.01 648.985 426.01 648.03 426.517 c 2,358,-1
 646.8 426.587 l 2,359,360
 638.145 426.362 638.145 426.362 634.2 423.106 c 2,361,-1
 620.3 409.916 l 1,362,-1
 578.06 297.476 l 1,363,364
 577.458 281.786 577.458 281.786 587.93 273.896 c 1,365,366
 610.654 266.794 610.654 266.794 631.569 264.285 c 2,367,-1
 647.499 262.535 l 1,368,-1
 662.129 264.285 l 2,369,370
 683.054 266.775 683.054 266.775 705.84 273.886 c 1,371,372
 714.905 281.06 714.905 281.06 715.82 293.736 c 1,373,-1
 715.69 297.486 l 1,374,-1
 673.46 409.887 l 1,354,-1
EndSplineSet
EndChar

StartChar: uniF009
Encoding: 61449 61449 198
Width: 1293
Flags: MW
HStem: 3.45 10 172.46 10.28 406.41 10.14 546.62 10 551.76 10.38 723.26 10 773.99 8.25999
VStem: 50 10 108.43 10 221.48 9.96001 279.93 10 307.34 10 396.53 10 450.7 10 833.06 10 887.18 10 976.42 10 1003.78 10 1062.27 9.96001 1175.28 10 1233.71 10
LayerCount: 2
Fore
SplineSet
690.1 782.25 m 1,0,-1
 962.214 602.809 l 2,1,2
 976.344 593.494 976.344 593.494 979.674 595.409 c 2,3,-1
 1062.29 643.089 l 1,4,5
 1062.51 680.469 1062.51 680.469 1089.08 706.868 c 128,-1,6
 1115.63 733.268 1115.63 733.268 1153.04 733.268 c 128,-1,7
 1190.6 733.268 1190.6 733.268 1217.17 706.688 c 128,-1,8
 1243.73 680.108 1243.73 680.108 1243.74 642.528 c 128,-1,9
 1243.74 604.954 1243.74 604.954 1217.17 578.358 c 128,-1,10
 1190.6 551.778 1190.6 551.778 1157.95 551.778 c 128,-1,11
 1125.3 551.778 1125.3 551.778 1102.31 567.308 c 1,12,-1
 986.436 500.428 l 1,13,-1
 986.436 348.258 l 2,14,15
 986.436 335.361 986.436 335.361 975.686 328.118 c 0,16,17
 974.521 326.363 974.521 326.363 973.276 325.118 c 2,18,-1
 903.356 255.198 l 1,19,-1
 1049.61 170.798 l 1,20,21
 1070.51 182.758 1070.51 182.758 1101.32 182.758 c 128,-1,22
 1132.13 182.758 1132.13 182.758 1158.72 156.167 c 128,-1,23
 1185.31 129.572 1185.31 129.572 1185.31 92.0068 c 128,-1,24
 1185.31 54.4468 1185.31 54.4468 1158.72 27.8467 c 128,-1,25
 1132.13 1.25095 1132.13 1.25095 1094.55 1.25586 c 128,-1,26
 1056.97 1.25586 1056.97 1.25586 1030.38 27.8467 c 128,-1,27
 1003.79 54.4423 1003.79 54.4423 1003.79 92.0068 c 0,28,29
 1003.79 95.0117 1003.79 95.0117 1004 98.1465 c 1,30,-1
 843.066 191.047 l 1,31,-1
 843.066 27.707 l 2,32,33
 843.066 17.6371 843.066 17.6371 835.986 10.5576 c 128,-1,34
 828.907 3.47754 828.907 3.47754 818.837 3.47754 c 2,35,-1
 474.947 3.47754 l 2,36,37
 464.868 3.47754 464.868 3.47754 457.788 10.5576 c 128,-1,38
 450.708 17.6371 450.708 17.6371 450.708 27.707 c 2,39,-1
 450.708 191.107 l 1,40,-1
 289.728 98.1572 l 1,41,42
 289.938 95.0002 289.938 95.0002 289.938 92.0176 c 0,43,44
 289.938 54.4575 289.938 54.4575 263.347 27.8574 c 128,-1,45
 236.751 1.2618 236.751 1.2618 199.187 1.2666 c 128,-1,46
 161.612 1.2666 161.612 1.2666 135.017 27.8574 c 128,-1,47
 108.421 54.4531 108.421 54.4531 108.426 92.0176 c 128,-1,48
 108.426 129.578 108.426 129.578 135.017 156.178 c 128,-1,49
 161.608 182.769 161.608 182.769 192.417 182.769 c 128,-1,50
 223.221 182.769 223.221 182.769 244.127 170.809 c 1,51,-1
 390.367 255.259 l 1,52,-1
 320.497 325.129 l 2,53,54
 319.227 326.399 319.227 326.399 318.037 328.169 c 0,55,56
 307.337 335.357 307.337 335.357 307.337 348.259 c 2,57,-1
 307.337 500.379 l 1,58,-1
 191.407 567.309 l 1,59,60
 168.42 551.779 168.42 551.779 135.777 551.779 c 128,-1,61
 103.124 551.779 103.124 551.779 76.5576 578.37 c 128,-1,62
 49.9927 604.95 49.9927 604.95 49.9873 642.529 c 128,-1,63
 49.9873 680.104 49.9873 680.104 76.5576 706.688 c 128,-1,64
 103.123 733.268 103.123 733.268 140.688 733.269 c 128,-1,65
 178.098 733.269 178.098 733.269 204.648 706.869 c 128,-1,66
 231.199 680.471 231.199 680.471 231.438 643.09 c 1,67,-1
 314.108 595.359 l 2,68,69
 317.454 593.424 317.454 593.424 331.569 602.8 c 2,70,-1
 601.659 782.25 l 1,71,-1
 690.1 782.25 l 1,0,-1
421.404 546.629 m 0,72,73
 406.564 546.807 406.564 546.807 406.563 527.907 c 2,74,-1
 406.563 470.888 l 1,75,-1
 406.563 404.008 l 2,76,77
 406.563 396.428 406.563 396.428 416.693 394.599 c 128,-1,78
 426.818 392.769 426.818 392.769 435.203 395.769 c 2,79,-1
 511.783 418.379 l 1,80,-1
 606.993 447.809 l 2,81,82
 616.615 450.385 616.615 450.385 607.094 455.889 c 2,83,-1
 511.784 503.408 l 1,84,-1
 428.114 545.108 l 2,85,86
 425.556 546.584 425.556 546.584 421.404 546.629 c 0,72,73
872.364 546.627 m 0,87,88
 868.214 546.585 868.214 546.585 865.654 545.108 c 2,89,-1
 781.994 503.408 l 1,90,-1
 686.685 455.889 l 2,91,92
 677.163 450.385 677.163 450.385 686.785 447.809 c 2,93,-1
 781.995 418.379 l 1,94,-1
 858.575 395.769 l 2,95,96
 866.96 392.769 866.96 392.769 877.085 394.599 c 128,-1,97
 887.215 396.428 887.215 396.428 887.215 404.008 c 2,98,-1
 887.215 470.888 l 1,99,-1
 887.215 527.907 l 2,100,101
 887.215 546.807 887.215 546.807 872.364 546.627 c 0,87,88
656.194 399.179 m 1,102,103
 649.521 406.409 649.521 406.409 646.915 406.409 c 128,-1,104
 644.3 406.409 644.3 406.409 637.625 399.179 c 1,105,-1
 597.965 293.589 l 2,106,107
 597.89 292.509 597.89 292.509 598.755 291.599 c 0,108,109
 617.983 285.936 617.983 285.936 633.794 284.199 c 1,110,-1
 642.344 306.6 l 1,111,112
 644.594 309.239 644.594 309.239 644.594 306.389 c 2,113,-1
 644.544 294.799 l 2,114,115
 644.544 292.698 644.544 292.698 646.904 292.698 c 128,-1,116
 649.214 292.698 649.214 292.698 649.214 294.799 c 2,117,-1
 649.164 306.389 l 2,118,119
 649.164 309.239 649.164 309.239 651.414 306.6 c 1,120,-1
 659.964 284.199 l 1,121,122
 675.852 285.951 675.852 285.951 695.064 291.599 c 0,123,124
 695.929 292.507 695.929 292.507 695.854 293.589 c 2,125,-1
 656.194 399.179 l 1,102,103
1102.74 579.079 m 1,126,127
 1124.15 562.494 1124.15 562.494 1155.32 562.119 c 128,-1,128
 1186.5 561.744 1186.5 561.744 1210.14 585.398 c 128,-1,129
 1233.78 609.053 1233.78 609.053 1233.78 642.488 c 128,-1,130
 1233.78 675.923 1233.78 675.923 1210.14 699.578 c 128,-1,131
 1186.5 723.237 1186.5 723.237 1153.15 723.237 c 128,-1,132
 1119.82 723.237 1119.82 723.237 1095.39 699.307 c 128,-1,133
 1070.95 675.38 1070.95 675.38 1072.29 637.267 c 1,134,-1
 984.586 586.656 l 2,135,136
 981.55 584.906 981.55 584.906 976.365 584.906 c 128,-1,137
 971.184 584.906 971.184 584.906 956.455 594.627 c 2,138,-1
 684.505 773.977 l 1,139,-1
 607.005 773.757 l 1,140,-1
 337.295 594.557 l 2,141,142
 322.805 584.927 322.805 584.927 317.505 584.927 c 128,-1,143
 312.204 584.927 312.204 584.927 309.195 586.657 c 2,144,-1
 221.516 637.287 l 1,145,146
 222.836 675.462 222.836 675.462 198.426 699.357 c 128,-1,147
 174.021 723.252 174.021 723.252 140.676 723.247 c 128,-1,148
 107.329 723.247 107.329 723.247 83.6855 699.588 c 128,-1,149
 60.0459 675.933 60.0459 675.933 60.0459 642.498 c 128,-1,150
 60.0459 609.063 60.0459 609.063 83.6855 585.408 c 128,-1,151
 107.325 561.754 107.325 561.754 138.495 562.109 c 128,-1,152
 169.677 562.471 169.677 562.471 191.045 579.07 c 1,153,-1
 317.385 506.12 l 1,154,-1
 317.385 348.23 l 2,155,156
 317.385 340.602 317.385 340.602 321.115 338.13 c 2,157,-1
 406.705 253.09 l 1,158,-1
 244.205 159.25 l 1,159,160
 224.51 172.15 224.51 172.15 195.155 172.45 c 128,-1,161
 165.8 172.75 165.8 172.75 142.146 149.091 c 128,-1,162
 118.491 125.436 118.491 125.436 118.486 92.0107 c 128,-1,163
 118.486 58.59 118.486 58.59 142.146 34.9307 c 128,-1,164
 165.804 11.2715 165.804 11.2715 199.226 11.2715 c 128,-1,165
 232.646 11.2715 232.646 11.2715 256.306 34.9307 c 128,-1,166
 279.965 58.5904 279.965 58.5904 279.965 92.0107 c 1,167,-1
 279.365 103.69 l 1,168,-1
 460.745 208.421 l 1,169,-1
 460.745 27.7012 l 2,170,171
 460.745 21.7704 460.745 21.7704 464.895 17.6211 c 128,-1,172
 469.044 13.4717 469.044 13.4717 474.975 13.4717 c 2,173,-1
 818.864 13.4717 l 2,174,175
 824.795 13.4717 824.795 13.4717 828.944 17.6211 c 128,-1,176
 833.094 21.7703 833.094 21.7703 833.094 27.7012 c 2,177,-1
 833.094 208.361 l 1,178,-1
 1014.41 103.691 l 1,179,-1
 1013.81 92.0117 l 1,180,181
 1013.81 58.591 1013.81 58.591 1037.47 34.9316 c 128,-1,182
 1061.13 11.2774 1061.13 11.2774 1094.56 11.2725 c 128,-1,183
 1127.99 11.2725 1127.99 11.2725 1151.65 34.9316 c 128,-1,184
 1175.31 58.591 1175.31 58.591 1175.31 92.0117 c 128,-1,185
 1175.31 125.432 1175.31 125.432 1151.65 149.092 c 128,-1,186
 1127.99 172.745 1127.99 172.745 1098.64 172.461 c 128,-1,187
 1069.3 172.176 1069.3 172.176 1049.59 159.25 c 1,188,-1
 887.075 253.04 l 1,189,-1
 966.215 332.18 l 1,190,-1
 969.005 335.529 l 1,191,192
 976.13 339.774 976.13 339.774 976.445 348.239 c 2,193,-1
 976.445 506.189 l 1,194,-1
 1102.74 579.079 l 1,126,127
432.889 553.89 m 2,195,-1
 611.839 464.678 l 2,196,197
 621.849 458.9 621.849 458.9 621.849 451.129 c 1,198,199
 620.03 448.333 620.03 448.333 618.759 444.858 c 0,200,201
 617.364 441.034 617.364 441.034 612.909 439.219 c 0,202,203
 611.439 438.618 611.439 438.618 609.778 438.169 c 2,204,-1
 514.698 408.779 l 1,205,-1
 438.328 386.239 l 2,206,207
 431.743 383.869 431.743 383.869 424.148 383.869 c 0,208,209
 419.078 383.869 419.078 383.869 415.179 384.679 c 128,-1,210
 411.258 385.493 411.258 385.493 409.049 386.368 c 0,211,212
 396.599 391.288 396.599 391.288 396.599 403.979 c 2,213,-1
 396.599 527.879 l 2,214,215
 396.599 556.604 396.599 556.604 421.528 556.6 c 0,216,217
 428.139 555.897 428.139 555.897 430.318 555.08 c 0,218,219
 431.742 554.546 431.742 554.546 432.889 553.89 c 2,195,-1
872.609 556.618 m 2,220,221
 897.18 556.612 897.18 556.612 897.181 527.882 c 2,222,-1
 897.181 403.981 l 1,223,224
 894.976 390.419 894.976 390.419 884.721 386.371 c 0,225,226
 882.045 385.319 882.045 385.319 878.08 384.601 c 128,-1,227
 874.108 383.88 874.108 383.88 869.619 383.88 c 0,228,229
 862.024 383.88 862.024 383.88 855.439 386.25 c 2,230,-1
 779.069 408.79 l 1,231,-1
 683.989 438.18 l 2,232,233
 675.945 441.467 675.945 441.467 673.849 444.67 c 0,234,235
 671.919 447.617 671.919 447.617 671.919 451.12 c 0,236,237
 671.919 458.891 671.919 458.891 681.929 464.669 c 2,238,-1
 860.909 553.899 l 2,239,240
 866.978 556.193 866.978 556.193 869.309 556.449 c 0,241,242
 870.775 556.603 870.775 556.603 872.279 556.618 c 2,243,-1
 872.609 556.618 l 2,220,221
643.85 282.752 m 1,244,-1
 640.649 273.343 l 1,245,246
 617.216 275.353 617.216 275.353 593.34 282.732 c 1,247,248
 588.38 286.704 588.38 286.704 587.96 293.923 c 2,249,-1
 588.02 295.522 l 1,250,-1
 628.97 404.532 l 1,251,-1
 638.689 413.683 l 2,252,253
 642.499 416.308 642.499 416.308 646.22 416.533 c 2,254,-1
 647.45 416.533 l 1,255,256
 657.523 413.085 657.523 413.085 664.83 404.533 c 1,257,-1
 705.771 295.533 l 1,258,-1
 705.841 293.573 l 2,259,260
 705.391 286.723 705.391 286.723 700.451 282.742 c 1,261,262
 676.648 275.393 676.648 275.393 653.271 273.382 c 1,263,-1
 649.74 282.972 l 1,264,265
 648.397 282.672 648.397 282.672 646.89 282.672 c 0,266,267
 645.656 282.672 645.656 282.672 643.85 282.752 c 1,244,-1
EndSplineSet
EndChar

StartChar: uniF00A
Encoding: 61450 61450 199
Width: 200
Flags: MW
VStem: 50 100<400 1000>
LayerCount: 2
Fore
SplineSet
150 201 m 5,0,-1
 50 201 l 5,1,-1
 50 801 l 5,2,-1
 150 801 l 5,3,-1
 150 201 l 5,0,-1
EndSplineSet
EndChar

StartChar: uniF00B
Encoding: 61451 61451 200
Width: 200
Flags: MW
VStem: 50 200
LayerCount: 2
Fore
SplineSet
50 251 m 6,0,-1
 50 801 l 5,1,-1
 150 801 l 5,2,-1
 150 251 l 6,3,4
 150 200.99 150 200.99 99.9902 200.99 c 132,-1,5
 49.9951 200.99 49.9951 200.99 50 251 c 6,0,-1
EndSplineSet
EndChar

StartChar: uniF00C
Encoding: 61452 61452 201
Width: 300
Flags: MW
VStem: 50 200<600 899.989>
LayerCount: 2
Fore
SplineSet
50 600 m 6,0,-1
 50 899.989 l 5,1,-1
 250 899.989 l 5,2,-1
 250 599.989 l 6,3,4
 250 500.03 250 500.03 149 500 c 4,5,6
 50 500 50 500 50 600 c 6,0,-1
EndSplineSet
EndChar

StartChar: uniFFFD
Encoding: 65533 65533 202
Width: 700
Flags: MW
HStem: 0 200<250 450 250 650> 600 200<250 250 250 450>
VStem: 50 200<200 600 200 800> 450 200<200 600 600 600>
LayerCount: 2
Fore
SplineSet
650 800 m 1,0,-1
 650 0 l 1,1,-1
 50 0 l 1,2,-1
 50 800 l 1,3,-1
 650 800 l 1,0,-1
250 600 m 1,4,-1
 250 200 l 1,5,-1
 450 200 l 1,6,-1
 450 600 l 1,7,-1
 250 600 l 1,4,-1
EndSplineSet
EndChar

StartChar: uni001A
Encoding: 26 26 203
Width: 700
Flags: MW
HStem: 0 200<250 450 250 650> 600 200<250 250 250 450>
VStem: 50 200<200 600 200 800> 450 200<200 600 600 600>
LayerCount: 2
Fore
SplineSet
650 800 m 1,0,-1
 650 0 l 1,1,-1
 50 0 l 1,2,-1
 50 800 l 1,3,-1
 650 800 l 1,0,-1
250 600 m 1,4,-1
 250 200 l 1,5,-1
 450 200 l 1,6,-1
 450 600 l 1,7,-1
 250 600 l 1,4,-1
EndSplineSet
EndChar

StartChar: NameMe.204
Encoding: 65550 -1 204
Width: 1000
Flags: W
HStem: -200.03 200.03 249.99 200.02 729.37 200
VStem: 300.01 199.99 800.01 200
LayerCount: 2
Fore
SplineSet
300.01 450.01 m 1,0,-1
 300.02 499.989 l 1,1,-1
 300.02 579.379 l 2,2,3
 300.02 929.374 300.02 929.374 650.02 929.379 c 128,-1,4
 1000.01 929.379 1000.01 929.379 1000.02 579.379 c 2,5,-1
 1000.02 499.999 l 1,6,-1
 800.02 499.999 l 1,7,-1
 800.02 579.379 l 2,8,9
 800.02 729.379 800.02 729.379 650.02 729.379 c 128,-1,10
 500.02 729.379 500.02 729.379 500.02 579.379 c 2,11,-1
 500.02 499.989 l 1,12,-1
 500.01 450.009 l 1,13,-1
 750.02 450.009 l 1,14,-1
 750.02 249.979 l 1,15,-1
 500.01 249.979 l 1,16,-1
 500.01 50.9883 l 2,17,18
 500.01 -200.007 500.01 -200.007 200.02 -200.021 c 2,19,-1
 50 -200.021 l 1,20,-1
 50 0.00878906 l 1,21,-1
 200.02 0.00878906 l 2,22,23
 288.385 0.00878906 288.385 0.00878906 300.01 149.979 c 1,24,-1
 300.01 249.989 l 1,25,-1
 50 249.979 l 1,26,-1
 50 450.01 l 1,27,-1
 300.01 450.01 l 1,0,-1
EndSplineSet
EndChar

StartChar: NameMe.205
Encoding: 65551 -1 205
Width: 800
Flags: W
LayerCount: 2
Fore
SplineSet
750 450 m 2,0,-1
 750 0 l 1,1,-1
 550 0 l 1,2,-1
 550 450 l 2,3,4
 550 600 550 600 400 600 c 128,-1,5
 250 600 250 600 250 450 c 2,6,-1
 250 0 l 1,7,-1
 50 0 l 1,8,-1
 50 450 l 2,9,10
 50 799.995 50 799.995 400 800 c 128,-1,11
 749.995 800 749.995 800 750 450 c 2,0,-1
400 0 m 128,-1,13
 440.995 0 440.995 0 470.5 29.5 c 128,-1,14
 500.005 59.0048 500.005 59.0048 500 100 c 128,-1,15
 500 140.995 500 140.995 470.5 170.5 c 128,-1,16
 440.995 200.005 440.995 200.005 400 200 c 128,-1,17
 359.005 200 359.005 200 329.5 170.5 c 128,-1,18
 299.995 140.995 299.995 140.995 300 100 c 128,-1,19
 300 59.0048 300 59.0048 329.5 29.5 c 128,-1,12
 359.005 -0.004879 359.005 -0.004879 400 0 c 128,-1,13
453 41 m 1,20,-1
 381 41 l 2,21,22
 342 41 342 41 342 77 c 0,23,24
 342 102.995 342 102.995 371 109 c 1,25,-1
 339 158 l 1,26,-1
 361 158 l 1,27,-1
 394 109 l 1,28,-1
 433 109 l 1,29,-1
 433 158 l 1,30,-1
 453 158 l 1,31,-1
 453 41 l 1,20,-1
435 60 m 1,32,-1
 435 89 l 1,33,-1
 383 89 l 2,34,35
 363.005 89 363.005 89 363 76 c 0,36,37
 363 59.9952 363 59.9952 383 60 c 2,38,-1
 435 60 l 1,32,-1
340 40 m 128,-1,40
 314.995 65.0049 314.995 65.0049 315 100 c 128,-1,41
 315 134.995 315 134.995 340 160 c 128,-1,42
 365.005 185.005 365.005 185.005 400 185 c 128,-1,43
 434.995 185 434.995 185 460 160 c 128,-1,44
 485.005 134.995 485.005 134.995 485 100 c 128,-1,45
 485 65.0049 485 65.0049 460 40 c 128,-1,46
 434.995 14.9951 434.995 14.9951 400 15 c 128,-1,39
 365.005 15 365.005 15 340 40 c 128,-1,40
EndSplineSet
EndChar

StartChar: NameMe.206
Encoding: 65552 -1 206
Width: 706
Flags: W
HStem: 0 16.52 42.74 17.09 91.74 16.52 183.48 16.52
VStem: 50 194 259.7 16.53 310.42 27.64 374.25 27.07 443.2 16.53 473.76 182.24
LayerCount: 2
Fore
SplineSet
374.25 59.8301 m 1,0,-1
 374.251 91.749 l 1,1,-1
 361.141 91.749 l 2,2,3
 338.056 91.749 338.056 91.749 338.061 76.3594 c 0,4,5
 338.061 59.83 338.061 59.83 362.57 59.8301 c 2,6,-1
 374.25 59.8301 l 1,0,-1
401.321 42.749 m 1,7,-1
 357.72 42.7588 l 2,8,9
 310.423 42.7588 310.423 42.7588 310.42 74.3789 c 0,10,11
 310.42 98.0186 310.42 98.0186 334.641 104.009 c 1,12,-1
 309.851 153.579 l 1,13,-1
 340.051 153.579 l 1,14,-1
 361.141 108.279 l 1,15,-1
 374.251 108.279 l 1,16,-1
 374.251 153.579 l 1,17,-1
 401.321 153.579 l 1,18,-1
 401.321 42.749 l 1,7,-1
359.72 16.5488 m 0,19,20
 394.19 16.5674 394.19 16.5674 417.85 40.207 c 0,21,22
 443.215 65.5576 443.215 65.5576 443.21 100.028 c 0,23,24
 443.21 133.928 443.21 133.928 418.989 158.138 c 0,25,26
 394.194 183.503 394.194 183.503 360.009 183.498 c 0,27,28
 326.379 183.498 326.379 183.498 300.729 158.998 c 0,29,30
 276.221 135.628 276.221 135.628 276.22 101.729 c 0,31,32
 276.22 65.8337 276.22 65.8337 299.869 41.6191 c 0,33,34
 324.664 16.5543 324.664 16.5543 359.72 16.5488 c 0,19,20
360.01 0.0478516 m 0,35,36
 317.836 0.0664062 317.836 0.0664062 288.201 29.9766 c 0,37,38
 259.701 58.746 259.701 58.746 259.701 100.347 c 0,39,40
 259.701 142.512 259.701 142.512 289.341 170.997 c 0,41,42
 319.266 200.052 319.266 200.052 360.011 200.058 c 0,43,44
 389.929 200.058 389.929 200.058 415.58 182.957 c 0,45,46
 440.945 165.572 440.945 165.572 452.34 137.947 c 0,47,48
 459.75 119.993 459.75 119.993 459.75 100.338 c 0,49,50
 459.75 72.708 459.75 72.708 445.22 48.1982 c 0,51,52
 431.537 25.1241 431.537 25.1241 409.03 12.5879 c 0,53,54
 386.8 0.0473595 386.8 0.0473595 360.01 0.0478516 c 0,35,36
50.001 0.0664062 m 1,55,-1
 50.0117 458.055 l 2,56,57
 50.0117 800.22 50.0117 800.22 353.012 800.215 c 128,-1,58
 656.012 800.065 656.012 800.065 656.012 457.926 c 2,59,-1
 656.012 -0.333984 l 1,60,-1
 473.771 -0.0742188 l 1,61,-1
 473.771 452.586 l 2,62,63
 473.771 580.551 473.771 580.551 357.281 580.546 c 0,64,65
 242.771 580.516 242.771 580.516 243.041 452.066 c 2,66,-1
 244.001 0.0664062 l 1,67,-1
 50.001 0.0664062 l 1,55,-1
EndSplineSet
EndChar

StartChar: NameMe.208
Encoding: 65553 -1 207
Width: 500
Flags: W
HStem: 0 200<250 450 350 450> 780 20G<50 250 250 250>
VStem: 50 200<300 800>
LayerCount: 2
Fore
SplineSet
50 800 m 1,0,-1
 250 800 l 1,1,-1
 250 300 l 2,2,3
 250 199.995 250 199.995 350 200 c 2,4,-1
 450 200 l 1,5,-1
 450 0 l 1,6,-1
 350 0 l 2,7,8
 50 0 50 0 50 300 c 2,9,-1
 50 800 l 1,0,-1
EndSplineSet
EndChar

StartChar: NameMe.209
Encoding: 65554 -1 208
Width: 800
Flags: W
HStem: 0 21G<50 250 50 50 550 550 550 750> 200 200<250 450 250 450> 780 20G<50 250 250 250>
VStem: 50 200<0 200 400 800> 550 200<0 100 0 133.335 500 600>
LayerCount: 2
Fore
SplineSet
450 200 m 2,0,-1
 250 200 l 1,1,-1
 250 0 l 1,2,-1
 50 0 l 1,3,-1
 50 800 l 1,4,-1
 250 800 l 1,5,-1
 250 400 l 1,6,-1
 450 400 l 2,7,8
 550.005 400 550.005 400 550 500 c 2,9,-1
 550 600 l 1,10,-1
 750 600 l 1,11,-1
 750 500 l 2,12,13
 750 383 750 383 650 300 c 1,14,15
 750.005 217.005 750.005 217.005 750 100 c 2,16,-1
 750 0 l 1,17,-1
 550 0 l 1,18,-1
 550 100 l 2,19,20
 550 200.005 550 200.005 450 200 c 2,0,-1
EndSplineSet
EndChar

StartChar: NameMe.210
Encoding: 65555 -1 209
Width: 900
Flags: W
HStem: 0 21G<150 350> 200 200<50 150 350 600> 600 200<387.964 850>
VStem: 150 200<0 200 400 570.093>
LayerCount: 2
Fore
SplineSet
850 800 m 1,0,-1
 850 600 l 1,1,-1
 456 600 l 2,2,3
 350 600 350 600 350 500 c 2,4,-1
 350 400 l 1,5,-1
 600 400 l 1,6,-1
 600 200 l 1,7,-1
 350 200 l 1,8,-1
 350 0 l 1,9,-1
 150 0 l 1,10,-1
 150 200 l 1,11,-1
 50 200 l 1,12,-1
 50 400 l 1,13,-1
 150 400 l 1,14,-1
 150 500 l 2,15,16
 150 800 150 800 450 800 c 2,17,-1
 850 800 l 1,0,-1
EndSplineSet
EndChar

StartChar: NameMe.211
Encoding: 65556 -1 210
Width: 900
Flags: W
HStem: 0 21G<50 250 50 50> 200 200<250 850 250 850> 600 200<316.665 850 350 850>
VStem: 50 200<0 200 400 500>
LayerCount: 2
Fore
SplineSet
850 800 m 1,0,-1
 850 600 l 1,1,-1
 350 600 l 2,2,3
 249.995 600 249.995 600 250 500 c 2,4,-1
 250 400 l 1,5,-1
 850 400 l 1,6,-1
 850 200 l 1,7,-1
 250 200 l 1,8,-1
 250 0 l 1,9,-1
 50 0 l 1,10,-1
 50 500 l 2,11,12
 50 800 50 800 350 800 c 2,13,-1
 850 800 l 1,0,-1
EndSplineSet
EndChar

StartChar: NameMe.212
Encoding: 65557 -1 211
Width: 800
Flags: W
HStem: 1678 200<50 500 50 500> 1378 200<216.665 500 300 500> 1078 200<283.335 750 300 750>
LayerCount: 2
Fore
SplineSet
750 800 m 1,0,-1
 750 600 l 1,1,-1
 300 600 l 2,2,3
 250.005 600 250.005 600 250 550 c 128,-1,4
 250 500.005 250 500.005 300 500 c 2,5,-1
 500 500 l 2,6,7
 750.005 500 750.005 500 750 250 c 128,-1,8
 750 -0.00485229 750 -0.00485229 500 0 c 2,9,-1
 50 0 l 1,10,-1
 50 200 l 1,11,-1
 500 200 l 2,12,13
 549.995 200 549.995 200 550 250 c 128,-1,14
 550 299.995 550 299.995 500 300 c 2,15,-1
 300 300 l 2,16,17
 49.995 300 49.995 300 50 550 c 128,-1,18
 50 800.005 50 800.005 300 800 c 2,19,-1
 750 800 l 1,0,-1
EndSplineSet
EndChar

StartChar: NameMe.213
Encoding: 65558 -1 212
Width: 500
Flags: W
HStem: 0 21G<50 250> 600 200<279.688 450>
VStem: 50 200<0 570.312>
LayerCount: 2
Fore
SplineSet
50 500 m 2,0,1
 50 800 50 800 350 800 c 2,2,-1
 450 800 l 1,3,-1
 450 600 l 1,4,-1
 350 600 l 2,5,6
 250 600 250 600 250 500 c 2,7,-1
 250 0 l 1,8,-1
 50 0 l 1,9,-1
 50 500 l 2,0,1
EndSplineSet
EndChar

StartChar: NameMe.214
Encoding: 65559 -1 213
Width: 775
Flags: W
HStem: 150 50<264.6 576.691> 250 50<370.776 530.45> 350 50<370.776 473.566> 450 50<301.434 473.566> 550 50<244.379 530.621> 650 50<211.2 563.441>
VStem: 50 50<250 538.8> 150 50<271.344 505.621> 250 50<250 448.566> 325 45<301.022 348.978> 475 50<400.766 449.234> 575 50<344.223 505.777> 675 50<287.329 538.8>
LayerCount: 2
Fore
SplineSet
450 500 m 2,0,1
 525 500 525 500 525 425 c 128,-1,2
 525 350 525 350 450 350 c 2,3,-1
 400 350 l 2,4,5
 370 350 370 350 370 325 c 128,-1,6
 370 300 370 300 400 300 c 2,7,-1
 450 300 l 2,8,9
 574 300 574 300 575 425 c 0,10,11
 575 550 575 550 450 550 c 0,12,-1
 325 550 l 0,13,14
 200 550 200 550 200 425 c 0,15,-1
 200 375 l 0,16,17
 200 200 200 200 350 200 c 1,18,-1
 450 200 l 0,19,20
 675 200 675 200 675 375 c 0,21,22
 675 425 l 0,23,24
 675 650 675 650 450 650 c 24,25,26
 325 650 l 0,27,28
 100 650 100 650 100 425 c 0,29,-1
 100 250 l 0,30,-1
 50 250 l 0,31,-1
 50 425 l 4,32,33
 50 700 50 700 325 700 c 0,34,-1
 450 700 l 0,35,36
 724 700 724 700 725 425 c 0,37,-1
 725 375 l 0,38,39
 725 150 725 150 450 150 c 8,40,-1
 350 150 l 1,41,42
 150 150 150 150 150 375 c 0,43,-1
 150 425 l 0,44,45
 150 600 150 600 325 600 c 0,46,-1
 450 600 l 0,47,48
 625 600 625 600 625 425 c 128,-1,49
 625 250 625 250 450 250 c 26,50,-1
 400 250 l 2,51,52
 325 250 325 250 325 325 c 128,-1,53
 325 400 325 400 400 400 c 2,54,-1
 450 400 l 2,55,56
 475 400 475 400 475 425 c 128,-1,57
 475 450 475 450 450 450 c 2,58,-1
 325 450 l 2,59,60
 300 450 300 450 300 425.5 c 2,61,-1
 300 250 l 1,62,-1
 250 250 l 1,63,-1
 250 425 l 2,64,65
 250 500 250 500 325 500 c 2,66,-1
 450 500 l 2,0,1
EndSplineSet
EndChar

StartChar: NameMe.215
Encoding: 65560 -1 214
Width: 650
Flags: W
HStem: 0 21G<50 250> 600 200<279.688 600>
VStem: 50 200<0 570.312>
LayerCount: 2
Fore
SplineSet
50 500 m 2,0,1
 50 800 50 800 350 800 c 2,2,-1
 600 800 l 1,3,-1
 600 600 l 1,4,-1
 350 600 l 2,5,6
 250 600 250 600 250 500 c 2,7,-1
 250 0 l 1,8,-1
 50 0 l 1,9,-1
 50 500 l 2,0,1
EndSplineSet
EndChar

StartChar: NameMe.216
Encoding: 65561 -1 215
Width: 800
Flags: W
HStem: 0 200<50 450 50 450> 780 20G<550 750 750 750>
VStem: 550 200<300 800>
LayerCount: 2
Fore
SplineSet
750 300 m 2,0,1
 750 0 750 0 450 0 c 2,2,-1
 50 0 l 1,3,-1
 50 200 l 1,4,-1
 450 200 l 2,5,6
 550.005 200 550.005 200 550 300 c 2,7,-1
 550 800 l 1,8,-1
 750 800 l 1,9,-1
 750 300 l 2,0,1
EndSplineSet
EndChar

StartChar: NameMe.217
Encoding: 65562 -1 216
Width: 800
Flags: W
HStem: 0 200<50 450 50 450>
VStem: 550 200<300 550 686.335 713.665>
LayerCount: 2
Fore
SplineSet
750 300 m 2,0,1
 750 0 750 0 450 0 c 2,2,-1
 50 0 l 1,3,-1
 50 200 l 1,4,-1
 450 200 l 2,5,6
 550.005 200 550.005 200 550 300 c 2,7,-1
 550 550 l 1,8,-1
 750 550 l 1,9,-1
 750 300 l 2,0,1
579.5 629.5 m 128,-1,11
 549.995 659.005 549.995 659.005 550 700 c 128,-1,12
 550 740.995 550 740.995 579.5 770.5 c 128,-1,13
 609.005 800.005 609.005 800.005 650 800 c 128,-1,14
 690.995 800 690.995 800 720.5 770.5 c 128,-1,15
 750.005 740.995 750.005 740.995 750 700 c 128,-1,16
 750 659.005 750 659.005 720.5 629.5 c 128,-1,17
 690.995 599.995 690.995 599.995 650 600 c 128,-1,10
 609.005 600 609.005 600 579.5 629.5 c 128,-1,11
EndSplineSet
EndChar

StartChar: NameMe.218
Encoding: 65563 -1 217
Width: 600
Flags: W
HStem: 500 300<50 250 350 550>
VStem: 50 200<500 800> 350 200<500 800>
LayerCount: 2
Fore
SplineSet
250 500 m 1,0,-1
 50 500 l 1,1,-1
 50 800 l 1,2,-1
 250 800 l 1,3,-1
 250 500 l 1,0,-1
550 500 m 1,4,-1
 350 500 l 1,5,-1
 350 800 l 1,6,-1
 550 800 l 1,7,-1
 550 500 l 1,4,-1
EndSplineSet
EndChar

StartChar: NameMe.219
Encoding: 65564 -1 218
Width: 524
Flags: W
LayerCount: 2
Fore
SplineSet
462.56 650 m 1,0,-1
 524.771 900 l 1,1,-1
 324.771 900 l 1,2,-1
 262.57 650 l 1,3,4
 262.69 549.995 262.69 549.995 250.25 500 c 1,5,-1
 400.25 500 l 1,6,7
 412.685 549.995 412.685 549.995 462.56 650 c 1,0,-1
212.57 650 m 1,8,-1
 274.781 900 l 1,9,-1
 74.7812 900 l 1,10,-1
 12.5811 650 l 1,11,12
 12.7011 549.995 12.7011 549.995 0.260742 500 c 1,13,-1
 150.261 500 l 1,14,15
 162.696 549.995 162.696 549.995 212.57 650 c 1,8,-1
EndSplineSet
EndChar

